<?xml version="1.0" encoding="UTF-8" standalone="no"?>
<!-- Created with Inkscape (http://www.inkscape.org/) -->

<svg
   version="1.1"
   id="svg1214"
   width="1685.3333"
   height="1676"
   viewBox="0 0 1685.3333 1676"
   sodipodi:docname="Cerchio blu cane blu.svg"
   inkscape:version="1.1.2 (08b2f3d93c, 2022-04-05)"
   xmlns:inkscape="http://www.inkscape.org/namespaces/inkscape"
   xmlns:sodipodi="http://sodipodi.sourceforge.net/DTD/sodipodi-0.dtd"
   xmlns="http://www.w3.org/2000/svg"
   xmlns:svg="http://www.w3.org/2000/svg">
  <defs
     id="defs1218" />
  <sodipodi:namedview
     id="namedview1216"
     pagecolor="#505050"
     bordercolor="#ffffff"
     borderopacity="1"
     inkscape:pageshadow="0"
     inkscape:pageopacity="0"
     inkscape:pagecheckerboard="1"
     showgrid="false"
     inkscape:zoom="0.45883055"
     inkscape:cx="211.40702"
     inkscape:cy="838"
     inkscape:window-width="1920"
     inkscape:window-height="1011"
     inkscape:window-x="0"
     inkscape:window-y="0"
     inkscape:window-maximized="1"
     inkscape:current-layer="g1220" />
  <g
     inkscape:groupmode="layer"
     inkscape:label="Image"
     id="g1220">
    <g
       id="g1340"
       transform="translate(-12.702109,-8.8880853)">
      <path
         style="fill:#c9c9d1;stroke-width:1.33333"
         d="m 812.99998,1665.7257 c 1.65,-0.3178 4.35,-0.3178 6,0 1.65,0.3178 0.3,0.5778 -3,0.5778 -3.3,0 -4.65,-0.26 -3,-0.5778 z m 52,0 c 1.65,-0.3178 4.35,-0.3178 6,0 1.65,0.3178 0.3,0.5778 -3,0.5778 -3.3,0 -4.65,-0.26 -3,-0.5778 z m -78.66666,-1.2754 c 0.91666,-0.3699 2.41666,-0.3699 3.33333,0 0.91667,0.3698 0.16667,0.6725 -1.66667,0.6725 -1.83333,0 -2.58333,-0.3027 -1.66666,-0.6725 z m 109.41666,-0.028 c 0.9625,-0.3852 2.11251,-0.3379 2.55556,0.1053 0.44306,0.4431 -0.34445,0.7583 -1.75,0.7004 -1.55326,-0.064 -1.8692,-0.38 -0.80556,-0.8056 z m -126.66666,-1.3334 c 0.96249,-0.3852 2.1125,-0.3378 2.55556,0.1054 0.44305,0.443 -0.34446,0.7582 -1.75,0.7004 -1.55327,-0.064 -1.8692,-0.38 -0.80556,-0.8056 z m 144,0 c 0.96249,-0.3852 2.1125,-0.3378 2.55556,0.1054 0.44305,0.443 -0.34446,0.7582 -1.75,0.7004 -1.55327,-0.064 -1.8692,-0.38 -0.80556,-0.8056 z m 14.66666,-1.3333 c 0.96249,-0.3852 2.11251,-0.3379 2.55556,0.1053 0.44305,0.4431 -0.34445,0.7583 -1.75,0.7004 -1.55327,-0.064 -1.8692,-0.38 -0.80556,-0.8056 z m 12,-1.3333 c 0.96249,-0.3852 2.11251,-0.3379 2.55556,0.1053 0.44305,0.4431 -0.34445,0.7583 -1.75,0.7004 -1.55327,-0.064 -1.8692,-0.38 -0.80556,-0.8056 z M 799.02536,1631.076 c 1.29729,-0.338 3.09729,-0.3159 4,0.049 0.9027,0.3652 -0.15871,0.6418 -2.35871,0.6147 -2.2,-0.027 -2.93859,-0.326 -1.64129,-0.6641 z m -19.27538,-1.3201 c 0.9625,-0.3852 2.11251,-0.3379 2.55556,0.1053 0.44306,0.4431 -0.34445,0.7583 -1.75,0.7004 -1.55326,-0.064 -1.8692,-0.38 -0.80556,-0.8056 z m -16,-1.3334 c 0.9625,-0.3852 2.11251,-0.3378 2.55556,0.1054 0.44306,0.443 -0.34445,0.7582 -1.75,0.7004 -1.55326,-0.064 -1.8692,-0.38 -0.80556,-0.8056 z m 154.66667,0 c 0.96249,-0.3852 2.11251,-0.3378 2.55556,0.1054 0.44305,0.443 -0.34445,0.7582 -1.75,0.7004 -1.55327,-0.064 -1.8692,-0.38 -0.80556,-0.8056 z m -2.3114,-3.8669 c 0.064,-1.5533 0.37992,-1.8692 0.80555,-0.8056 0.38516,0.9625 0.3378,2.1125 -0.1052,2.5556 -0.44306,0.4431 -0.75819,-0.3445 -0.7003,-1.75 z m -66.01955,-84.9464 c 0.50071,-1.3149 1.24626,-2.0549 1.65678,-1.6445 0.41052,0.4105 8.5e-4,1.4864 -0.91038,2.3909 -1.31682,1.3069 -1.46997,1.1539 -0.7464,-0.7464 z m -229.70437,-18.9425 c 0.0107,-3.6667 0.26896,-5.0084 0.57543,-2.9818 0.30648,2.0268 0.29828,5.0268 -0.0181,6.6667 -0.31648,1.64 -0.56723,-0.019 -0.55723,-3.6849 z m 110.03532,-2.9108 c 0.9625,-0.3852 2.11251,-0.3379 2.55556,0.1053 0.44306,0.4431 -0.34445,0.7583 -1.75,0.7004 -1.55326,-0.064 -1.8692,-0.38 -0.80556,-0.8056 z m 101.6886,-3.867 c 0.064,-1.5533 0.37992,-1.8692 0.80555,-0.8056 0.38516,0.9626 0.3378,2.1126 -0.1052,2.5556 -0.44306,0.4431 -0.75819,-0.3445 -0.7003,-1.75 z m -540.27534,-56.2222 c -1.65849,-2.1148 -1.61133,-2.1619 0.50342,-0.5035 1.28333,1.0065 2.33333,2.0565 2.33333,2.3333 0,1.0975 -1.09492,0.3911 -2.83675,-1.8298 z m 1105.50339,-4.8368 c 0,-0.2768 1.05,-1.3268 2.3333,-2.3334 2.1148,-1.6584 2.1619,-1.6113 0.5035,0.5035 -1.7419,2.2209 -2.8368,2.9273 -2.8368,1.8299 z M 277.87331,1445 l -2.53998,-3 3,2.54 c 1.65,1.3969 3,2.7469 3,3 0,1.0669 -1.07306,0.2792 -3.46002,-2.54 z m 1149.45999,-21 c 5.8323,-5.8667 10.9041,-10.6667 11.2708,-10.6667 0.3667,0 -4.1052,4.8 -9.9375,10.6667 -5.8322,5.8667 -10.9041,10.6667 -11.2708,10.6667 -0.3666,0 4.1052,-4.8 9.9375,-10.6667 z m -740.91665,8.4225 c 0.9625,-0.3852 2.11251,-0.3378 2.55556,0.1054 0.44306,0.443 -0.34445,0.7582 -1.75,0.7004 -1.55326,-0.064 -1.8692,-0.38 -0.80556,-0.8056 z m 690.91665,-7.5926 c 0,-0.2768 1.05,-1.3268 2.3333,-2.3334 2.1148,-1.6584 2.1619,-1.6113 0.5035,0.5035 -1.7419,2.2209 -2.8368,2.9273 -2.8368,1.8299 z m -1080.79332,-9.1632 -2.53999,-3 3,2.54 c 1.65,1.3969 3,2.7469 3,3 0,1.0669 -1.07305,0.2792 -3.46001,-2.54 z M 233.87332,1401 l -2.53999,-3 3,2.54 c 1.65,1.3969 3,2.7469 3,3 0,1.0669 -1.07305,0.2792 -3.46001,-2.54 z m 1219.45998,-4.1701 c 0,-0.2768 1.05,-1.3268 2.3333,-2.3334 2.1148,-1.6584 2.1619,-1.6113 0.5035,0.5035 -1.7419,2.2209 -2.8368,2.9273 -2.8368,1.8299 z M 221.16325,1387 c -1.65849,-2.1148 -1.61133,-2.1619 0.50341,-0.5035 2.221,1.7419 2.92731,2.8368 1.82992,2.8368 -0.27686,0 -1.32686,-1.05 -2.33333,-2.3333 z m 42.0434,-4.6667 -2.53999,-3 3,2.54 c 1.65,1.397 3,2.747 3,3 0,1.067 -1.07305,0.2792 -3.46001,-2.54 z m 504.54333,2.0892 c 0.9625,-0.3852 2.11251,-0.3378 2.55556,0.1054 0.44306,0.443 -0.34445,0.7582 -1.75,0.7004 -1.55326,-0.064 -1.8692,-0.38 -0.80556,-0.8056 z m 657.58332,-7.5926 c 0,-0.2768 1.05,-1.3268 2.3333,-2.3334 2.1148,-1.6584 2.1619,-1.6113 0.5035,0.5035 -1.7419,2.2209 -2.8368,2.9273 -2.8368,1.8299 z m -694.66665,-56 c 0,-0.2768 1.05,-1.3268 2.33334,-2.3333 2.11474,-1.6585 2.1619,-1.6113 0.50341,0.5034 -1.74183,2.221 -2.83675,2.9273 -2.83675,1.8299 z M 813.9161,1265 l -3.91612,-4.3333 4.33334,3.9161 c 4.03928,3.6504 4.9462,4.7505 3.91612,4.7505 -0.22947,0 -2.17947,-1.95 -4.33334,-4.3333 z m -24,-24 -3.91612,-4.3333 4.33334,3.9161 c 4.03928,3.6504 4.9462,4.7505 3.91612,4.7505 -0.22947,0 -2.17947,-1.95 -4.33334,-4.3333 z m -81.24945,-57 c -0.45322,-0.7333 -0.18864,-1.3333 0.58798,-1.3333 0.77661,0 1.41202,0.6 1.41202,1.3333 0,0.7333 -0.26458,1.3333 -0.58797,1.3333 -0.32339,0 -0.9588,-0.6 -1.41203,-1.3333 z m 486.66665,-105.3333 c 1.3273,-1.4667 2.7133,-2.6667 3.08,-2.6667 0.3666,0 -0.4193,1.2 -1.7467,2.6667 -1.3273,1.4666 -2.7133,2.6666 -3.0799,2.6666 -0.3667,0 0.4193,-1.2 1.7466,-2.6666 z m 28,-28 c 1.3273,-1.4667 2.7133,-2.6667 3.08,-2.6667 0.3666,0 -0.4193,1.2 -1.7467,2.6667 -1.3273,1.4666 -2.7133,2.6666 -3.0799,2.6666 -0.3667,0 0.4193,-1.2 1.7466,-2.6666 z M 633.69647,950.66667 c 0,-3.3 0.26002,-4.65 0.57782,-3 0.31782,1.65 0.31782,4.35 0,6 -0.3178,1.65 -0.57782,0.3 -0.57782,-3 z M 1665.4385,928.55556 c 0.064,-1.55327 0.38,-1.8692 0.8056,-0.80556 0.3852,0.96249 0.3379,2.11251 -0.1053,2.55556 -0.4431,0.44305 -0.7583,-0.34445 -0.7004,-1.75 z M 52.105262,927.22223 c 0.06397,-1.55327 0.379921,-1.8692 0.805556,-0.80556 0.385161,0.96249 0.337792,2.1125 -0.105267,2.55556 -0.443056,0.44305 -0.758188,-0.34446 -0.700293,-1.75 z m 1614.666538,-12 c 0.064,-1.55327 0.38,-1.8692 0.8056,-0.80556 0.3852,0.96249 0.3379,2.1125 -0.1053,2.55556 -0.4431,0.44305 -0.7583,-0.34446 -0.7004,-1.75 z M 16.105262,909.88889 c 0.06397,-1.55326 0.379922,-1.8692 0.805556,-0.80556 0.385162,0.9625 0.337792,2.11251 -0.105266,2.55556 -0.443056,0.44306 -0.758188,-0.34445 -0.700294,-1.75 z m 1617.333238,-4 c 0.064,-1.55326 0.38,-1.8692 0.8056,-0.80556 0.3852,0.9625 0.3379,2.11251 -0.1053,2.55556 -0.4431,0.44306 -0.7583,-0.34445 -0.7004,-1.75 z M 49.438595,899.22223 c 0.06397,-1.55327 0.379921,-1.8692 0.805556,-0.80556 0.385161,0.96249 0.337792,2.1125 -0.105267,2.55556 -0.443056,0.44305 -0.758188,-0.34446 -0.700293,-1.75 z m 1618.666605,0 c 0.064,-1.55327 0.38,-1.8692 0.8056,-0.80556 0.3852,0.96249 0.3378,2.1125 -0.1054,2.55556 -0.443,0.44305 -0.7582,-0.34446 -0.7004,-1.75 z M 14.877193,892 c 0,-1.83333 0.302631,-2.58333 0.672515,-1.66667 0.369882,0.91667 0.369882,2.41667 0,3.33334 -0.369884,0.91666 -0.672515,0.16666 -0.672515,-1.66667 z M 1620.9702,889.70436 c 2.367,-0.29455 6.567,-0.29939 9.3334,-0.0107 2.7664,0.28864 0.8297,0.52963 -4.3036,0.53555 -5.1334,0.005 -7.3967,-0.23024 -5.0298,-0.52479 z m -39.2782,-1.29501 c 1.2973,-0.33806 3.0973,-0.31583 4,0.0495 0.9028,0.36524 -0.1587,0.64183 -2.3587,0.61466 -2.2,-0.0272 -2.9385,-0.326 -1.6413,-0.66406 z m -22.0254,-1.29239 c 0.9167,-0.36988 2.4167,-0.36988 3.3334,0 0.9166,0.36988 0.1666,0.67252 -1.6667,0.67252 -1.8333,0 -2.5833,-0.30264 -1.6667,-0.67252 z m -15.9166,-1.36111 c 0.9625,-0.38516 2.1125,-0.3378 2.5556,0.1052 0.443,0.44306 -0.3446,0.75819 -1.75,0.7003 -1.5534,-0.064 -1.8692,-0.37992 -0.8056,-0.80555 z M 48.259931,878 c 0.02717,-2.2 0.325997,-2.93859 0.664056,-1.64129 0.338057,1.29729 0.315825,3.09729 -0.0494,4 C 48.509351,881.26141 48.232758,880.2 48.259931,878 Z M 1669.6426,877.33333 c 0,-2.56666 0.2744,-3.61666 0.6098,-2.33333 0.3354,1.28333 0.3354,3.38333 0,4.66667 -0.3354,1.28333 -0.6098,0.23333 -0.6098,-2.33334 z M 13.696485,862.66667 c 0,-3.3 0.260021,-4.65 0.577825,-3 0.317804,1.65 0.317804,4.35 0,6 -0.317804,1.65 -0.577825,0.3 -0.577825,-3 z M 1257.4386,861.88889 c 0.064,-1.55326 0.3799,-1.8692 0.8055,-0.80556 0.3852,0.9625 0.3378,2.11251 -0.1052,2.55556 -0.443,0.44306 -0.7582,-0.34445 -0.7003,-1.75 z M 1063,847.08089 c 1.2833,-0.33536 3.3833,-0.33536 4.6666,0 1.2834,0.33538 0.2334,0.60978 -2.3333,0.60978 -2.5667,0 -3.6167,-0.2744 -2.3333,-0.60978 z m 63.4166,0.008 c 0.9625,-0.38516 2.1126,-0.3378 2.5556,0.1052 0.4431,0.44306 -0.3444,0.75819 -1.75,0.7003 -1.5533,-0.064 -1.8692,-0.37992 -0.8056,-0.80555 z M 1085,845.72569 c 1.65,-0.31781 4.35,-0.31781 6,0 1.65,0.3178 0.3,0.57783 -3,0.57783 -3.3,0 -4.65,-0.26003 -3,-0.57783 z m 17.3333,0 c 1.65,-0.31781 4.35,-0.31781 6,0 1.65,0.3178 0.3,0.57783 -3,0.57783 -3.3,0 -4.65,-0.26003 -3,-0.57783 z m 467.3333,-5.31146 c 1.2834,-0.33536 3.3834,-0.33536 4.6667,0 1.2833,0.33537 0.2333,0.60977 -2.3333,0.60977 -2.5667,0 -3.6167,-0.2744 -2.3334,-0.60977 z m 23.4167,-1.32504 c 0.9625,-0.38516 2.1125,-0.3378 2.5556,0.1052 0.4431,0.44305 -0.3445,0.75818 -1.75,0.70029 -1.5533,-0.064 -1.8692,-0.37992 -0.8056,-0.80555 z m 14.6667,-1.33334 c 0.9625,-0.38516 2.1125,-0.3378 2.5556,0.1052 0.443,0.44306 -0.3446,0.75819 -1.75,0.7003 -1.5534,-0.064 -1.8692,-0.37992 -0.8056,-0.80555 z m -382.2062,-12.42252 c 0,-1.83333 0.3027,-2.58333 0.6725,-1.66666 0.3699,0.91666 0.3699,2.41666 0,3.33333 -0.3698,0.91667 -0.6725,0.16667 -0.6725,-1.66667 z m 410.8694,-6 c 0.013,-4.4 0.2564,-6.03925 0.553,-3.64278 0.2968,2.39646 0.2907,5.99646 -0.013,8 -0.3041,2.00353 -0.5469,0.0428 -0.5395,-4.35722 z M 13.714685,812.66667 c 0.01,-3.66667 0.268951,-5.00842 0.575423,-2.98167 0.306473,2.02675 0.298282,5.02675 -0.0182,6.66667 -0.316483,1.63992 -0.567232,-0.0183 -0.557223,-3.685 z m 1520.701915,5.08918 c 0.9626,-0.38516 2.1126,-0.3378 2.5556,0.1052 0.4431,0.44306 -0.3445,0.75819 -1.75,0.7003 -1.5533,-0.064 -1.8692,-0.37992 -0.8056,-0.80555 z m -18.75,-1.30556 c 0.9167,-0.36988 2.4167,-0.36988 3.3334,0 0.9166,0.36988 0.1666,0.67252 -1.6667,0.67252 -1.8333,0 -2.5833,-0.30264 -1.6667,-0.67252 z m -18.5833,-1.3611 c 0.9625,-0.38516 2.1125,-0.3378 2.5556,0.1052 0.4431,0.44305 -0.3445,0.75818 -1.75,0.70029 -1.5533,-0.064 -1.8692,-0.37992 -0.8056,-0.80555 z m -342.75,-1.38706 c 2.3833,-0.29576 6.2833,-0.29576 8.6667,0 2.3833,0.29578 0.4333,0.53778 -4.3334,0.53778 -4.7666,0 -6.7166,-0.242 -4.3333,-0.53778 z m 163,-3.70213 c 2.4877,-2.56667 4.8231,-4.66667 5.1898,-4.66667 0.3666,0 -1.3688,2.1 -3.8565,4.66667 -2.4877,2.56667 -4.8231,4.66667 -5.1897,4.66667 -0.3667,0 1.3687,-2.1 3.8564,-4.66667 z M 1477,813.78363 c 0.9166,-0.36988 2.4166,-0.36988 3.3333,0 0.9167,0.36988 0.1667,0.67252 -1.6667,0.67252 -1.8333,0 -2.5833,-0.30264 -1.6666,-0.67252 z m -1133.79335,-11.4503 -2.53999,-3 3,2.53999 c 2.81925,2.38696 3.60699,3.46001 2.53999,3.46001 -0.25302,0 -1.60302,-1.35 -3,-3 z m 1326.43595,-3.66666 c 0,-2.56667 0.2744,-3.61667 0.6098,-2.33334 0.3354,1.28334 0.3354,3.38334 0,4.66667 -0.3354,1.28333 -0.6098,0.23333 -0.6098,-2.33333 z m -1621.382669,-2 c 0.02717,-2.2 0.325997,-2.93859 0.664056,-1.6413 0.338057,1.2973 0.315825,3.0973 -0.0494,4 -0.365236,0.90271 -0.641829,-0.1587 -0.614656,-2.3587 z M 1212,795.33333 C 1213.7223,793.5 1215.4315,792 1215.7981,792 c 0.3667,0 -0.7425,1.5 -2.4648,3.33333 -1.7223,1.83334 -3.4315,3.33334 -3.7982,3.33334 -0.3666,0 0.7425,-1.5 2.4649,-3.33334 z m 15.1473,-10 c 0,-6.96666 0.2247,-9.81666 0.4994,-6.33333 0.2747,3.48333 0.2747,9.18333 0,12.66667 -0.2747,3.48333 -0.4994,0.63333 -0.4994,-6.33334 z M 1634.8772,788 c 0,-1.83333 0.3026,-2.58333 0.6725,-1.66667 0.3699,0.91667 0.3699,2.41667 0,3.33334 -0.3699,0.91666 -0.6725,0.16666 -0.6725,-1.66667 z M 327.82991,787 c -1.65849,-2.11475 -1.61133,-2.16191 0.50342,-0.50341 1.28333,1.00646 2.33333,2.05646 2.33333,2.33333 0,1.09739 -1.09492,0.39108 -2.83675,-1.82992 z M 14.877193,784 c 0,-1.83333 0.302631,-2.58333 0.672515,-1.66667 0.369882,0.91667 0.369882,2.41667 0,3.33334 -0.369884,0.91666 -0.672515,0.16666 -0.672515,-1.66667 z M 1424.3586,780.40935 c 1.2974,-0.33806 3.0974,-0.31583 4,0.0495 0.9028,0.36524 -0.1586,0.64183 -2.3586,0.61466 -2.2,-0.0272 -2.9386,-0.326 -1.6414,-0.66406 z M 49.438595,776.55556 c 0.06397,-1.55327 0.379921,-1.8692 0.805556,-0.80556 0.385161,0.96249 0.337792,2.11251 -0.105267,2.55556 -0.443056,0.44305 -0.758188,-0.34445 -0.700293,-1.75 z M 1668.2105,776 c 0,-1.83333 0.3027,-2.58333 0.6725,-1.66667 0.3699,0.91667 0.3699,2.41667 0,3.33334 -0.3698,0.91666 -0.6725,0.16666 -0.6725,-1.66667 z m -34.772,-6.11111 c 0.064,-1.55326 0.38,-1.8692 0.8056,-0.80556 0.3852,0.9625 0.3379,2.11251 -0.1053,2.55556 -0.4431,0.44306 -0.7583,-0.34445 -0.7004,-1.75 z m -1617.333238,-4 c 0.06397,-1.55326 0.379922,-1.8692 0.805556,-0.80556 0.385162,0.9625 0.337792,2.11251 -0.105266,2.55556 -0.443056,0.44306 -0.758188,-0.34445 -0.700294,-1.75 z m 334.522878,-9.55556 -8.62815,-9 9,8.62815 c 8.35959,8.0142 9.60951,9.37185 8.62815,9.37185 -0.20452,0 -4.25452,-4.05 -9,-9 z m -299.856212,4.22223 c 0.06397,-1.55327 0.379922,-1.8692 0.805556,-0.80556 0.385162,0.96249 0.337792,2.11251 -0.105266,2.55556 -0.443056,0.44305 -0.758188,-0.34445 -0.700294,-1.75 z M 1632.1052,755.22223 c 0.064,-1.55327 0.38,-1.8692 0.8056,-0.80556 0.3852,0.96249 0.3378,2.1125 -0.1054,2.55556 -0.443,0.44305 -0.7582,-0.34446 -0.7004,-1.75 z m -257.4386,-4.97278 c 0,-0.22946 1.95,-2.17946 4.3334,-4.33333 l 4.3333,-3.91612 -3.9161,4.33333 c -3.6504,4.03928 -4.7506,4.9462 -4.7506,3.91612 z M 1404,719.33333 C 1405.7222,717.5 1407.4314,716 1407.7981,716 c 0.3667,0 -0.7425,1.5 -2.4648,3.33333 -1.7223,1.83334 -3.4315,3.33334 -3.7981,3.33334 -0.3667,0 0.7425,-1.5 2.4648,-3.33334 z m 23.3333,-24.66666 c 1.3273,-1.46667 2.7133,-2.66667 3.08,-2.66667 0.3667,0 -0.4193,1.2 -1.7467,2.66667 -1.3273,1.46666 -2.7133,2.66666 -3.08,2.66666 -0.3666,0 0.4194,-1.2 1.7467,-2.66666 z M 970.77191,681.88889 c 0.064,-1.55326 0.37992,-1.8692 0.80555,-0.80556 0.38516,0.9625 0.3378,2.11251 -0.1052,2.55556 -0.44305,0.44306 -0.75819,-0.34445 -0.70029,-1.75 z m 30.66669,-8 c 0.064,-1.55326 0.3799,-1.8692 0.8055,-0.80556 0.3852,0.9625 0.3378,2.11251 -0.1052,2.55556 -0.443,0.44306 -0.7582,-0.34445 -0.7003,-1.75 z m -29.33335,-8 c 0.064,-1.55326 0.37992,-1.8692 0.80554,-0.80556 0.38516,0.9625 0.3378,2.11251 -0.1052,2.55556 -0.44305,0.44306 -0.75818,-0.34445 -0.70029,-1.75 z m 1.33333,-14.66666 c 0.064,-1.55327 0.37992,-1.8692 0.80555,-0.80556 0.38516,0.96249 0.3378,2.1125 -0.1052,2.55556 -0.44306,0.44305 -0.75819,-0.34446 -0.7003,-1.75 z m 1.33333,-14.66667 c 0.064,-1.55327 0.37992,-1.8692 0.80555,-0.80556 0.38516,0.96249 0.3378,2.11251 -0.1052,2.55556 -0.44305,0.44305 -0.75819,-0.34445 -0.70029,-1.75 z m 1.33334,-14.66667 c 0.064,-1.55326 0.37992,-1.8692 0.80554,-0.80556 0.38516,0.9625 0.3378,2.11251 -0.1052,2.55556 -0.44305,0.44306 -0.75818,-0.34445 -0.70029,-1.75 z m 45.33335,-1.33333 c 0.064,-1.55327 0.3799,-1.8692 0.8055,-0.80556 0.3852,0.96249 0.3378,2.11251 -0.1052,2.55556 -0.443,0.44305 -0.7582,-0.34445 -0.7003,-1.75 z m -44.00002,-13.33333 c 0.064,-1.55327 0.37992,-1.8692 0.80555,-0.80556 0.38516,0.96249 0.3378,2.1125 -0.1052,2.55556 -0.44306,0.44305 -0.75819,-0.34446 -0.7003,-1.75 z m -738.66665,-8 c 0.064,-1.55327 0.37992,-1.8692 0.80555,-0.80556 0.38516,0.96249 0.3378,2.1125 -0.1052,2.55556 -0.44307,0.44305 -0.75819,-0.34446 -0.7003,-1.75 z m 739.99998,-5.33334 c 0.064,-1.55326 0.37992,-1.8692 0.80555,-0.80556 0.38516,0.9625 0.3378,2.11251 -0.1052,2.55556 -0.44305,0.44306 -0.75819,-0.34445 -0.70029,-1.75 z M 237.54385,584 c 0,-1.83333 0.30264,-2.58333 0.67252,-1.66667 0.36988,0.91667 0.36988,2.41667 0,3.33334 -0.36988,0.91666 -0.67252,0.16666 -0.67252,-1.66667 z m 742.5614,-3.44444 c 0.064,-1.55327 0.37992,-1.8692 0.80554,-0.80556 0.38516,0.96249 0.3378,2.11251 -0.1052,2.55556 -0.44305,0.44305 -0.75818,-0.34445 -0.70029,-1.75 z m -711.99999,-12 c 0.064,-1.55327 0.37992,-1.8692 0.80555,-0.80556 0.38516,0.96249 0.3378,2.11251 -0.1052,2.55556 -0.44307,0.44305 -0.75819,-0.34445 -0.7003,-1.75 z m 713.33332,-1.33333 c 0.064,-1.55327 0.37992,-1.8692 0.80555,-0.80556 0.38516,0.96249 0.3378,2.1125 -0.1052,2.55556 -0.44306,0.44305 -0.75819,-0.34446 -0.7003,-1.75 z M 1401.7146,562 c 0.013,-3.66667 0.269,-5.00841 0.5755,-2.98167 0.3064,2.02675 0.2983,5.02675 -0.019,6.66667 -0.3164,1.63992 -0.5672,-0.0184 -0.5572,-3.685 z M 236.44828,554.66667 c 0,-5.5 0.23534,-7.75 0.52301,-5 0.28765,2.75 0.28765,7.25 0,10 -0.28767,2.75 -0.52301,0.5 -0.52301,-5 z m 778.32362,3.22222 c 0.064,-1.55326 0.3799,-1.8692 0.8056,-0.80556 0.3851,0.9625 0.3378,2.11251 -0.1052,2.55556 -0.4431,0.44306 -0.7582,-0.34445 -0.7003,-1.75 z m -747.769,-10.55556 c 0.0148,-2.93333 0.28785,-3.97633 0.60677,-2.31778 0.31892,1.65854 0.30682,4.05854 -0.0269,5.33333 -0.33372,1.27479 -0.59467,-0.0823 -0.57987,-3.01555 z m 1194.5409,2 c 0,-1.83333 0.3027,-2.58333 0.6726,-1.66666 0.3698,0.91666 0.3698,2.41666 0,3.33333 -0.3699,0.91667 -0.6726,0.16667 -0.6726,-1.66667 z M 733.08332,527.08919 c 0.96249,-0.38516 2.11251,-0.3378 2.55556,0.1052 0.44305,0.44305 -0.34445,0.75818 -1.75,0.70029 -1.55327,-0.064 -1.8692,-0.37992 -0.80556,-0.80555 z m -20,-13.33334 c 0.96249,-0.38516 2.11251,-0.3378 2.55556,0.1052 0.44305,0.44306 -0.34445,0.75819 -1.75,0.7003 -1.55327,-0.064 -1.8692,-0.37992 -0.80556,-0.80555 z m -398.41666,-4.92593 c 0,-0.27687 1.05,-1.32687 2.33333,-2.33333 2.11475,-1.6585 2.16191,-1.61134 0.50342,0.50341 -1.74183,2.221 -2.83675,2.92731 -2.83675,1.82992 z m 694.77194,-8.27436 c 0.064,-1.55327 0.3799,-1.8692 0.8055,-0.80556 0.3852,0.96249 0.3378,2.11251 -0.1052,2.55556 -0.443,0.44305 -0.7582,-0.34445 -0.7003,-1.75 z m -299.02195,-0.13307 c 0.9625,-0.38516 2.11251,-0.3378 2.55556,0.1052 0.44306,0.44306 -0.34445,0.75819 -1.75,0.7003 -1.55326,-0.064 -1.8692,-0.37992 -0.80556,-0.80555 z m 705.51155,-8.08918 -4.5949,-5 5,4.59489 c 4.6539,4.27681 5.6131,5.40511 4.5949,5.40511 -0.2228,0 -2.4728,-2.25 -5,-5 z m -407.823,-5.11111 c 0.064,-1.55327 0.38,-1.8692 0.8056,-0.80556 0.3852,0.96249 0.3378,2.11251 -0.1052,2.55556 -0.4431,0.44305 -0.7582,-0.34445 -0.7003,-1.75 z m -739.89469,-4.55553 c 0,-1.83334 0.30264,-2.58334 0.67252,-1.66667 0.36988,0.91667 0.36988,2.41667 0,3.33333 -0.36988,0.91667 -0.67252,0.16667 -0.67252,-1.66666 z m 1130.28599,-9 c -1.6584,-2.11475 -1.6113,-2.16191 0.5035,-0.50342 2.2209,1.74183 2.9273,2.83675 1.8298,2.83675 -0.2768,0 -1.3268,-1.05 -2.3333,-2.33333 z M 269.43859,467.22223 c 0.064,-1.55327 0.37992,-1.8692 0.80555,-0.80556 0.38516,0.96249 0.3378,2.1125 -0.1052,2.55556 -0.44307,0.44305 -0.75819,-0.34446 -0.70029,-1.75 z m 213.58677,-28.14622 c 1.2973,-0.33805 3.0973,-0.31582 4,0.0495 0.90271,0.36524 -0.1587,0.64183 -2.3587,0.61465 -2.2,-0.0272 -2.93859,-0.326 -1.6413,-0.66405 z m 51.30796,0.0409 c 0.91667,-0.36988 2.41667,-0.36988 3.33334,0 0.91666,0.36988 0.16666,0.67252 -1.66667,0.67252 -1.83333,0 -2.58333,-0.30264 -1.66667,-0.67252 z m -70.58333,-1.36111 c 0.96249,-0.38516 2.11251,-0.3378 2.55556,0.1052 0.44305,0.44305 -0.34445,0.75819 -1.75,0.70029 -1.55327,-0.064 -1.8692,-0.37992 -0.80556,-0.80554 z m 89.33333,0 c 0.9625,-0.38516 2.11251,-0.3378 2.55556,0.1052 0.44306,0.44305 -0.34445,0.75819 -1.75,0.70029 -1.55326,-0.064 -1.8692,-0.37992 -0.80556,-0.80554 z m 13.33334,-1.33333 c 0.96249,-0.38516 2.1125,-0.3378 2.55556,0.1052 0.44305,0.44305 -0.34446,0.75818 -1.75,0.70029 -1.55327,-0.064 -1.8692,-0.37992 -0.80556,-0.80555 z m -133.33334,-1.33334 c 0.9625,-0.38516 2.11251,-0.3378 2.55556,0.1052 0.44306,0.44306 -0.34445,0.75819 -1.75,0.7003 -1.55326,-0.064 -1.8692,-0.37992 -0.80556,-0.80555 z m -34.66666,-4 c 0.96249,-0.38516 2.11251,-0.3378 2.55556,0.1052 0.44305,0.44306 -0.34445,0.75819 -1.75,0.7003 -1.55327,-0.064 -1.8692,-0.37992 -0.80556,-0.80555 z M 1344.5828,413 l -3.9162,-4.33333 4.3334,3.91612 c 2.3833,2.15386 4.3333,4.10386 4.3333,4.33333 0,1.03008 -1.1001,0.1232 -4.7505,-3.91612 z m -35.4196,-0.66667 c -1.6585,-2.11474 -1.6113,-2.1619 0.5034,-0.50341 2.221,1.74183 2.9273,2.83675 1.83,2.83675 -0.2769,0 -1.3269,-1.05 -2.3334,-2.33334 z m -948.19294,-5.29564 c 2.36697,-0.29454 6.56697,-0.29938 9.33333,-0.0107 2.76635,0.28864 0.82974,0.52962 -4.3036,0.53554 -5.13333,0.005 -7.39672,-0.23024 -5.02973,-0.52478 z m 56.71473,-1.3278 c 2.02675,-0.30648 5.02675,-0.29828 6.66667,0.0181 1.63992,0.31648 -0.0184,0.56722 -3.685,0.55722 -3.66667,-0.0107 -5.00841,-0.26896 -2.98167,-0.57542 z m 41.99721,-1.31957 c 1.65855,-0.31892 4.05855,-0.30681 5.33334,0.0269 1.27478,0.33372 -0.0823,0.59467 -3.01555,0.57987 -2.93333,-0.0148 -3.97633,-0.28785 -2.31779,-0.60677 z m 33.98446,-1.30943 c 1.28333,-0.33536 3.38333,-0.33536 4.66666,0 1.28334,0.33538 0.23334,0.60978 -2.33333,0.60978 -2.56667,0 -3.61667,-0.2744 -2.33333,-0.60978 z m 27.33333,-1.29726 c 0.91667,-0.36988 2.41667,-0.36988 3.33333,0 0.91667,0.36988 0.16667,0.67252 -1.66666,0.67252 -1.83334,0 -2.58334,-0.30264 -1.66667,-0.67252 z m 22.66667,-1.33334 c 0.91666,-0.36988 2.41666,-0.36988 3.33333,0 0.91667,0.36988 0.16667,0.67252 -1.66667,0.67252 -1.83333,0 -2.58333,-0.30264 -1.66666,-0.67252 z m 18.75,-1.3611 c 0.96249,-0.38516 2.1125,-0.3378 2.55556,0.1052 0.44305,0.44305 -0.34446,0.75818 -1.75,0.70029 -1.55327,-0.064 -1.8692,-0.37992 -0.80556,-0.80555 z m 162.91666,-82.25927 c 0,-0.27687 1.05,-1.32687 2.33333,-2.33333 2.11475,-1.6585 2.16191,-1.61134 0.50342,0.50341 -1.74183,2.221 -2.83675,2.92731 -2.83675,1.82992 z m 706.49648,-11.16325 c -1.6584,-2.11475 -1.6113,-2.16191 0.5035,-0.50342 2.2209,1.74183 2.9273,2.83675 1.8299,2.83675 -0.2768,0 -1.3268,-1.05 -2.3334,-2.33333 z M 255.99999,300.82992 c 0,-0.27687 1.05,-1.32687 2.33334,-2.33333 2.11474,-1.6585 2.1619,-1.61134 0.50341,0.50341 -1.74183,2.221 -2.83675,2.92731 -2.83675,1.82992 z M 1410.621,283 l -7.2877,-7.66667 7.6667,7.28779 c 7.1225,6.77059 8.2774,8.04555 7.2877,8.04555 -0.2083,0 -3.6583,-3.45 -7.6667,-7.66667 z M 228,280.82992 c 0,-0.27687 1.05,-1.32687 2.33333,-2.33333 2.11475,-1.6585 2.16191,-1.61134 0.50341,0.50341 C 229.09492,281.221 228,281.92731 228,280.82992 Z m 691.74998,-0.4074 c 0.9625,-0.38516 2.11251,-0.3378 2.55556,0.1052 0.44306,0.44305 -0.34445,0.75819 -1.75,0.70029 -1.55326,-0.064 -1.8692,-0.37992 -0.80556,-0.80554 z m -73.41666,-1.30556 c 0.91666,-0.36988 2.41666,-0.36988 3.33333,0 0.91667,0.36988 0.16667,0.67252 -1.66667,0.67252 -1.83333,0 -2.58333,-0.30264 -1.66666,-0.67252 z m 52.69204,-0.0409 c 1.29729,-0.33806 3.09729,-0.31583 4,0.0495 0.9027,0.36524 -0.15871,0.64183 -2.35871,0.61466 -2.2,-0.0272 -2.93859,-0.326 -1.64129,-0.66406 z m 496.25784,-11.40936 -6.6166,-7 7,6.61654 c 3.85,3.6391 7,6.7891 7,7 0,0.99492 -1.2352,-0.112 -7.3834,-6.61654 z m 48.6158,0.66666 -3.2324,-3.66666 3.6667,3.23241 c 2.0167,1.77784 3.6667,3.42784 3.6667,3.66667 0,1.0457 -1.0798,0.19464 -4.101,-3.23242 z m -1187.89901,-17 c 4.7243,-4.76666 8.88963,-8.66666 9.2563,-8.66666 0.36666,0 -3.19867,3.9 -7.92296,8.66666 C 252.60904,256.1 248.4437,260 248.07704,260 c -0.36667,0 3.19866,-3.9 7.92295,-8.66667 z m 47.33334,2 c 1.32732,-1.46666 2.7133,-2.66666 3.07997,-2.66666 0.36667,0 -0.41932,1.2 -1.74664,2.66666 C 303.33934,254.8 301.95335,256 301.58669,256 c -0.36667,0 0.41932,-1.2 1.74664,-2.66667 z m 607.08332,-4.91081 c 0.96249,-0.38516 2.11251,-0.3378 2.55556,0.1052 0.44305,0.44305 -0.34445,0.75819 -1.75,0.70029 -1.55327,-0.064 -1.8692,-0.37992 -0.80556,-0.80554 z M 1373.1632,247 c -1.6584,-2.11475 -1.6114,-2.16191 0.5034,-0.50341 2.221,1.74182 2.9274,2.83674 1.8299,2.83674 -0.2768,0 -1.3268,-1.05 -2.3333,-2.33333 z m -553.41322,0.0892 c 0.9625,-0.38516 2.11251,-0.3378 2.55556,0.1052 0.44306,0.44305 -0.34445,0.75819 -1.75,0.70029 -1.55326,-0.064 -1.8692,-0.37992 -0.80556,-0.80554 z m 71.91667,0.0277 c 0.91667,-0.36988 2.41667,-0.36988 3.33333,0 0.91667,0.36988 0.16667,0.67252 -1.66666,0.67252 -1.83334,0 -2.58334,-0.30264 -1.66667,-0.67252 z m -41.36307,-1.4126 c 2.36698,-0.29454 6.56698,-0.29938 9.33334,-0.0107 2.76634,0.28864 0.82973,0.52962 -4.3036,0.53554 -5.13334,0.005 -7.39672,-0.23024 -5.02974,-0.52478 z m 560.26212,-10.70436 -3.2324,-3.66666 3.6667,3.23241 c 2.0166,1.77784 3.6666,3.42784 3.6666,3.66667 0,1.0457 -1.0797,0.19464 -4.1009,-3.23242 z M 282.66666,226.16325 c 0,-0.27686 1.05,-1.32686 2.33333,-2.33333 2.11475,-1.65849 2.16191,-1.61133 0.50342,0.50341 -1.74183,2.221 -2.83675,2.92731 -2.83675,1.82992 z m 12,-10.66666 c 0,-0.27687 1.05,-1.32687 2.33333,-2.33334 2.11475,-1.65849 2.16191,-1.61133 0.50342,0.50342 -1.74183,2.221 -2.83675,2.9273 -2.83675,1.82992 z M 773.08332,45.755848 c 0.96249,-0.385161 2.1125,-0.337792 2.55556,0.105267 0.44305,0.443056 -0.34446,0.758188 -1.75,0.700293 -1.55327,-0.06397 -1.8692,-0.379921 -0.80556,-0.805556 z m 136,0 c 0.96249,-0.385161 2.1125,-0.337792 2.55556,0.105267 0.44305,0.443056 -0.34446,0.758188 -1.75,0.700293 -1.55327,-0.06397 -1.8692,-0.379921 -0.80556,-0.805556 z M 791.66665,44.450292 c 0.91667,-0.369883 2.41667,-0.369883 3.33333,0 0.91667,0.369884 0.16667,0.672515 -1.66666,0.672515 -1.83334,0 -2.58334,-0.302631 -1.66667,-0.672515 z m 98.66667,0 c 0.91666,-0.369883 2.41666,-0.369883 3.33333,0 0.91667,0.369884 0.16667,0.672515 -1.66667,0.672515 -1.83333,0 -2.58333,-0.302631 -1.66666,-0.672515 z m -68,-1.41482 c 2.38333,-0.295768 6.28333,-0.295768 8.66666,0 2.38334,0.295769 0.43334,0.537763 -4.33333,0.537763 -4.76667,0 -6.71667,-0.241994 -4.33333,-0.537763 z m 32,0 c 2.38333,-0.295768 6.28333,-0.295768 8.66666,0 2.38334,0.295769 0.43334,0.537763 -4.33333,0.537763 -4.76667,0 -6.71667,-0.241994 -4.33333,-0.537763 z M 763.74998,12.422515 c 0.9625,-0.385161 2.11251,-0.337793 2.55556,0.105262 0.44306,0.443056 -0.34445,0.758188 -1.75,0.700293 -1.55326,-0.06398 -1.8692,-0.379921 -0.80556,-0.805555 z m 154.66667,0 c 0.96249,-0.385161 2.11251,-0.337793 2.55556,0.105262 0.44305,0.443056 -0.34445,0.758188 -1.75,0.700293 -1.55327,-0.06398 -1.8692,-0.379921 -0.80556,-0.805555 z m -138.75,-1.305556 c 0.91667,-0.369883 2.41667,-0.369883 3.33333,0 0.91667,0.369883 0.16667,0.672515 -1.66666,0.672515 -1.83334,0 -2.58334,-0.302632 -1.66667,-0.672515 z m 122.75,-0.02778 c 0.96249,-0.385161 2.11251,-0.337793 2.55556,0.105262 0.44305,0.443056 -0.34445,0.758188 -1.75,0.700293 -1.55327,-0.06398 -1.8692,-0.379921 -0.80556,-0.805555 z m -100.75,-1.341616 c 1.28333,-0.3353701 3.38333,-0.3353701 4.66667,0 1.28333,0.33537 0.23333,0.609764 -2.33334,0.609764 -2.56666,0 -3.61666,-0.274394 -2.33333,-0.609764 z m 77.35871,-0.00489 c 1.29729,-0.3380579 3.09729,-0.3158255 4,0.049405 0.9027,0.365231 -0.15871,0.641824 -2.35871,0.614651 -2.2,-0.02717 -2.93859,-0.325998 -1.64129,-0.664056 z"
         id="path1354" />
      <path
         style="fill:#999aa9;stroke-width:1.33333"
         d="m 831.72996,1665.6736 c 6.08482,-0.2476 15.68482,-0.2461 21.33333,0 5.64852,0.2493 0.67003,0.452 -11.06331,0.4503 -11.73333,0 -16.35484,-0.2056 -10.27002,-0.4534 z m -40.06331,-1.2233 c 0.91667,-0.3699 2.41667,-0.3699 3.33333,0 0.91667,0.3698 0.16667,0.6725 -1.66666,0.6725 -1.83334,0 -2.58334,-0.3027 -1.66667,-0.6725 z m 98.02537,-0.041 c 1.2973,-0.338 3.0973,-0.3158 4,0.049 0.90271,0.3652 -0.1587,0.6417 -2.3587,0.6146 -2.2,-0.027 -2.93859,-0.326 -1.6413,-0.6641 z m -116.6087,-1.3201 c 0.96249,-0.3852 2.1125,-0.3379 2.55556,0.1053 0.44305,0.4431 -0.34446,0.7583 -1.75,0.7004 -1.55327,-0.064 -1.8692,-0.38 -0.80556,-0.8056 z m 59.31094,-30.748 c 5.71684,-0.2505 14.71684,-0.2491 20,0 5.28315,0.2524 0.60572,0.4575 -10.39428,0.4556 -11,0 -15.32257,-0.2084 -9.60572,-0.4589 z m -39.39428,-1.2239 c 0.91667,-0.3698 2.41667,-0.3698 3.33334,0 0.91666,0.3699 0.16666,0.6726 -1.66667,0.6726 -1.83333,0 -2.58333,-0.3027 -1.66667,-0.6726 z m -17.25,-1.361 c 0.9625,-0.3852 2.11251,-0.3379 2.55556,0.1053 0.44306,0.4431 -0.34445,0.7583 -1.75,0.7004 -1.55326,-0.064 -1.8692,-0.38 -0.80556,-0.8056 z m -55.53947,-60.4226 c 0,-1.8333 0.30264,-2.5833 0.67252,-1.6666 0.36988,0.9166 0.36988,2.4166 0,3.3333 -0.36988,0.9167 -0.67252,0.1667 -0.67252,-1.6667 z m 111.89474,-59.4444 c 0.064,-1.5533 0.37992,-1.8692 0.80555,-0.8056 0.38516,0.9626 0.3378,2.1126 -0.1052,2.5556 -0.44306,0.4431 -0.75819,-0.3445 -0.7003,-1.75 z m -1.33333,-14.6666 c 0.064,-1.5534 0.37992,-1.8692 0.80554,-0.8056 0.38516,0.9625 0.3378,2.1125 -0.1052,2.5556 -0.44305,0.443 -0.75818,-0.3446 -0.70029,-1.75 z m -79.74656,-44.1463 c 1.29729,-0.338 3.09729,-0.3159 4,0.049 0.90271,0.3652 -0.15871,0.6418 -2.35871,0.6147 -2.2,-0.027 -2.93858,-0.326 -1.64129,-0.6641 z m 650.30794,-2.2461 c 0,-0.2768 1.05,-1.3268 2.3333,-2.3334 2.1148,-1.6584 2.1619,-1.6113 0.5035,0.5035 -1.7419,2.2209 -2.8368,2.9273 -2.8368,1.8299 z m -1128.79332,-9.1632 -2.53999,-3 3,2.54 c 2.81926,2.3869 3.60699,3.46 2.53999,3.46 -0.25301,0 -1.60301,-1.35 -3,-3 z m 400.12667,-1 c 1.32732,-1.4667 2.71331,-2.6667 3.07998,-2.6667 0.36666,0 -0.41932,1.2 -1.74664,2.6667 -1.32732,1.4666 -2.71331,2.6666 -3.07998,2.6666 -0.36666,0 0.41932,-1.2 1.74664,-2.6666 z m 700.66665,-9.8368 c 0,-0.2768 1.05,-1.3268 2.3333,-2.3334 2.1148,-1.6584 2.1619,-1.6113 0.5035,0.5035 -1.7419,2.2209 -2.8368,2.9273 -2.8368,1.8299 z m -719.99998,-4 c 0,-0.2768 1.05,-1.3268 2.33333,-2.3334 2.11475,-1.6584 2.16191,-1.6113 0.50342,0.5035 -1.74183,2.2209 -2.83675,2.9273 -2.83675,1.8299 z m -352.17007,-4.4966 c -1.6585,-2.1148 -1.61134,-2.1618 0.50341,-0.5034 2.221,1.7418 2.92731,2.8368 1.82992,2.8368 -0.27687,0 -1.32687,-1.05 -2.33333,-2.3334 z M 1403.3333,1400 c 5.8323,-5.8667 10.9041,-10.6667 11.2708,-10.6667 0.3667,0 -4.1052,4.8 -9.9375,10.6667 -5.8322,5.8667 -10.9041,10.6667 -11.2708,10.6667 -0.3666,0 4.1052,-4.8 9.9375,-10.6667 z m -1164.12665,6.3333 -2.53999,-3 3,2.54 c 1.65,1.397 3,2.747 3,3 0,1.067 -1.07305,0.2792 -3.46001,-2.54 z m 524.54333,-21.9108 c 0.9625,-0.3852 2.11251,-0.3378 2.55556,0.1054 0.44306,0.443 -0.34445,0.7582 -1.75,0.7004 -1.55326,-0.064 -1.8692,-0.38 -0.80556,-0.8056 z m -505.2534,-6.7558 c -1.65849,-2.1148 -1.61133,-2.1619 0.50341,-0.5035 2.221,1.7419 2.92731,2.8368 1.82992,2.8368 -0.27686,0 -1.32686,-1.05 -2.33333,-2.3333 z m 1170.83672,-4.8368 c 0,-0.2768 1.05,-1.3268 2.3333,-2.3334 2.1148,-1.6584 2.1619,-1.6113 0.5035,0.5035 -1.7419,2.2209 -2.8368,2.9273 -2.8368,1.8299 z M 731.33332,1364 c 1.32732,-1.4667 2.71331,-2.6667 3.07997,-2.6667 0.36667,0 -0.41932,1.2 -1.74664,2.6667 -1.32732,1.4667 -2.7133,2.6667 -3.07997,2.6667 -0.36667,0 0.41932,-1.2 1.74664,-2.6667 z m 70.62493,-111 -7.95827,-8.3333 8.33334,7.9582 c 7.74096,7.3926 8.94346,8.7084 7.95826,8.7084 -0.20629,0 -3.95629,-3.75 -8.33333,-8.3333 z M 1276,1126.1633 c 0,-0.2769 1.05,-1.3269 2.3333,-2.3334 2.1148,-1.6585 2.1619,-1.6113 0.5034,0.5034 -1.7418,2.221 -2.8367,2.9273 -2.8367,1.83 z m 32,-32 c 0,-0.2769 1.05,-1.3269 2.3333,-2.3334 2.1148,-1.6585 2.1619,-1.6113 0.5034,0.5034 -1.7418,2.221 -2.8367,2.9273 -2.8367,1.83 z M 17.438596,920.55556 c 0.06397,-1.55327 0.379921,-1.8692 0.805556,-0.80556 0.385161,0.96249 0.337792,2.11251 -0.105267,2.55556 -0.443056,0.44305 -0.758188,-0.34445 -0.700293,-1.75 z m 33.333332,-2.66667 c 0.06397,-1.55326 0.379922,-1.8692 0.805556,-0.80556 0.385162,0.9625 0.337792,2.11251 -0.105266,2.55556 -0.443056,0.44306 -0.758188,-0.34445 -0.700294,-1.75 z m -34.666666,-12 c 0.06397,-1.55326 0.379922,-1.8692 0.805556,-0.80556 0.385162,0.9625 0.337792,2.11251 -0.105266,2.55556 -0.443056,0.44306 -0.758188,-0.34445 -0.700294,-1.75 z m 33.333333,-2.66666 c 0.06397,-1.55327 0.379921,-1.8692 0.805556,-0.80556 0.385161,0.96249 0.337792,2.1125 -0.105267,2.55556 -0.443056,0.44305 -0.758188,-0.34446 -0.700293,-1.75 z M 1668.2105,894.66667 c 0,-1.83334 0.3027,-2.58334 0.6725,-1.66667 0.3699,0.91667 0.3699,2.41667 0,3.33333 -0.3698,0.91667 -0.6725,0.16667 -0.6725,-1.66666 z M 1634.8772,892 c 0,-1.83333 0.3026,-2.58333 0.6725,-1.66667 0.3699,0.91667 0.3699,2.41667 0,3.33334 -0.3699,0.91666 -0.6725,0.16666 -0.6725,-1.66667 z M 14.877193,886.66667 c 0,-1.83334 0.302631,-2.58334 0.672515,-1.66667 0.369882,0.91667 0.369882,2.41667 0,3.33333 -0.369884,0.91667 -0.672515,0.16667 -0.672515,-1.66666 z m 1573.481407,1.74268 c 1.2974,-0.33806 3.0974,-0.31583 4,0.0495 0.9028,0.36524 -0.1586,0.64183 -2.3586,0.61466 -2.2,-0.0272 -2.9386,-0.326 -1.6414,-0.66406 z m -23.2753,-1.32016 c 0.9625,-0.38516 2.1125,-0.3378 2.5556,0.1052 0.4431,0.44305 -0.3445,0.75818 -1.75,0.70029 -1.5533,-0.064 -1.8692,-0.37992 -0.8056,-0.80555 z M 48.210526,884 c 0,-1.83333 0.30263,-2.58333 0.672514,-1.66667 0.369883,0.91667 0.369883,2.41667 0,3.33334 -0.369884,0.91666 -0.672514,0.16666 -0.672514,-1.66667 z M 1547.75,885.75585 c 0.9625,-0.38516 2.1125,-0.3378 2.5556,0.1052 0.443,0.44306 -0.3446,0.75819 -1.75,0.7003 -1.5534,-0.064 -1.8692,-0.37992 -0.8056,-0.80555 z m -14.6667,-1.33333 c 0.9625,-0.38516 2.1125,-0.3378 2.5556,0.1052 0.4431,0.44305 -0.3445,0.75819 -1.75,0.70029 -1.5533,-0.064 -1.8692,-0.37992 -0.8056,-0.80554 z m 136.5593,-15.08919 c 0,-2.56666 0.2744,-3.61666 0.6098,-2.33333 0.3354,1.28333 0.3354,3.38333 0,4.66667 -0.3354,1.28333 -0.6098,0.23333 -0.6098,-2.33334 z M 13.866588,838 c 0.0019,-11 0.208382,-15.32257 0.45892,-9.60572 0.250538,5.71684 0.24901,14.71684 -0.0033,20 C 14.069706,853.67743 13.86472,849 13.866588,838 Z m 33.326154,0 c 0.0021,-10.26667 0.21138,-14.29041 0.46511,-8.94167 0.25373,5.34875 0.252028,13.74875 -0.0037,18.66667 -0.25586,4.91792 -0.463457,0.54167 -0.461377,-9.725 z m 1031.140558,7.78363 c 0.9167,-0.36988 2.4167,-0.36988 3.3333,0 0.9167,0.36988 0.1667,0.67252 -1.6666,0.67252 -1.8334,0 -2.5834,-0.30264 -1.6667,-0.67252 z m 34.0254,-0.0409 c 1.2973,-0.33805 3.0973,-0.31582 4,0.0495 0.9027,0.36524 -0.1587,0.64183 -2.3587,0.61465 -2.2,-0.0272 -2.9386,-0.326 -1.6413,-0.66405 z M 1045.2324,837.66667 1042,834 l 3.6666,3.23241 c 2.0167,1.77784 3.6667,3.42784 3.6667,3.66667 0,1.04571 -1.0797,0.19464 -4.1009,-3.23241 z M 1577,840.45029 c 0.9166,-0.36988 2.4166,-0.36988 3.3333,0 0.9167,0.36988 0.1667,0.67252 -1.6667,0.67252 -1.8333,0 -2.5833,-0.30264 -1.6666,-0.67252 z m -352.8948,-2.5614 c 0.064,-1.55326 0.38,-1.8692 0.8056,-0.80556 0.3851,0.9625 0.3378,2.11251 -0.1052,2.55556 -0.4431,0.44306 -0.7582,-0.34445 -0.7003,-1.75 z m 372.9781,1.2003 c 0.9625,-0.38516 2.1125,-0.3378 2.5556,0.1052 0.4431,0.44305 -0.3445,0.75818 -1.75,0.70029 -1.5533,-0.064 -1.8692,-0.37992 -0.8056,-0.80555 z M 437.16324,829.66667 c -1.65849,-2.11475 -1.61133,-2.16191 0.50342,-0.50342 2.221,1.74183 2.9273,2.83675 1.82992,2.83675 -0.27687,0 -1.32687,-1.05 -2.33334,-2.33333 z M 1306.6109,821 c 3.2694,-3.48333 6.1194,-6.33333 6.3334,-6.33333 1.0011,0 -0.057,1.1971 -5.9443,6.72238 l -6.3334,5.94428 z m -81.0177,-1.66667 c 0.027,-2.2 0.326,-2.93858 0.6641,-1.64129 0.338,1.29729 0.3158,3.09729 -0.05,4 -0.3652,0.90271 -0.6418,-0.15871 -0.6146,-2.35871 z m 320.8234,-0.24414 c 0.9626,-0.38516 2.1126,-0.3378 2.5556,0.1052 0.4431,0.44305 -0.3445,0.75818 -1.75,0.70029 -1.5533,-0.064 -1.8692,-0.37992 -0.8056,-0.80555 z m -16,-1.33334 c 0.9626,-0.38516 2.1126,-0.3378 2.5556,0.1052 0.4431,0.44306 -0.3445,0.75819 -1.75,0.7003 -1.5533,-0.064 -1.8692,-0.37992 -0.8056,-0.80555 z m -18.6666,-1.33333 c 0.9625,-0.38516 2.1125,-0.3378 2.5556,0.1052 0.443,0.44305 -0.3446,0.75819 -1.75,0.70029 -1.5534,-0.064 -1.8692,-0.37992 -0.8056,-0.80554 z m -20.0834,-1.30556 c 0.9167,-0.36988 2.4167,-0.36988 3.3334,0 0.9166,0.36988 0.1666,0.67252 -1.6667,0.67252 -1.8333,0 -2.5833,-0.30264 -1.6667,-0.67252 z M 1147.75,813.75585 c 0.9625,-0.38516 2.1125,-0.3378 2.5555,0.1052 0.4431,0.44306 -0.3444,0.75819 -1.75,0.7003 -1.5532,-0.064 -1.8692,-0.37992 -0.8055,-0.80555 z m 325.3333,0 c 0.9625,-0.38516 2.1125,-0.3378 2.5556,0.1052 0.4431,0.44306 -0.3445,0.75819 -1.75,0.7003 -1.5533,-0.064 -1.8692,-0.37992 -0.8056,-0.80555 z M 1636.3093,808 c 0,-2.56667 0.2744,-3.61667 0.6097,-2.33333 0.3355,1.28333 0.3355,3.38333 0,4.66666 -0.3353,1.28334 -0.6097,0.23334 -0.6097,-2.33333 z m 33.3333,-1.33333 c 0,-2.56667 0.2744,-3.61667 0.6098,-2.33334 0.3354,1.28334 0.3354,3.38334 0,4.66667 -0.3354,1.28333 -0.6098,0.23333 -0.6098,-2.33333 z m -1334.37201,-12.33334 -5.2706,-5.66666 5.66667,5.2706 c 3.11667,2.89882 5.66667,5.44882 5.66667,5.66666 0,1.00878 -1.16114,-6.5e-4 -6.06274,-5.2706 z M 48.210526,790.66667 c 0,-1.83334 0.30263,-2.58334 0.672514,-1.66667 0.369883,0.91667 0.369883,2.41667 0,3.33333 -0.369884,0.91667 -0.672514,0.16667 -0.672514,-1.66666 z m -33.333333,-1.33334 c 0,-1.83333 0.302631,-2.58333 0.672515,-1.66666 0.369882,0.91666 0.369882,2.41666 0,3.33333 -0.369884,0.91667 -0.672515,0.16667 -0.672515,-1.66667 z M 1634.8772,782.66667 c 0,-1.83334 0.3026,-2.58334 0.6725,-1.66667 0.3699,0.91667 0.3699,2.41667 0,3.33333 -0.3699,0.91667 -0.6725,0.16667 -0.6725,-1.66666 z m 33.228,-2.11111 c 0.064,-1.55327 0.38,-1.8692 0.8056,-0.80556 0.3852,0.96249 0.3378,2.11251 -0.1054,2.55556 -0.443,0.44305 -0.7582,-0.34445 -0.7004,-1.75 z m -1618.666605,-8 c 0.06397,-1.55327 0.379921,-1.8692 0.805556,-0.80556 0.385161,0.96249 0.337792,2.11251 -0.105267,2.55556 -0.443056,0.44305 -0.758188,-0.34445 -0.700293,-1.75 z M 1367.8298,772.33333 c -1.6584,-2.11474 -1.6113,-2.1619 0.5035,-0.50341 1.2833,1.00647 2.3333,2.05647 2.3333,2.33333 0,1.09739 -1.0949,0.39108 -2.8368,-1.82992 z M 16.105262,769.88889 c 0.06397,-1.55326 0.379922,-1.8692 0.805556,-0.80556 0.385162,0.9625 0.337792,2.11251 -0.105266,2.55556 -0.443056,0.44306 -0.758188,-0.34445 -0.700294,-1.75 z m 1617.333238,-4 c 0.064,-1.55326 0.38,-1.8692 0.8056,-0.80556 0.3852,0.9625 0.3379,2.11251 -0.1053,2.55556 -0.4431,0.44306 -0.7583,-0.34445 -0.7004,-1.75 z m 33.3333,-2.66666 c 0.064,-1.55327 0.38,-1.8692 0.8056,-0.80556 0.3852,0.96249 0.3379,2.1125 -0.1053,2.55556 -0.4431,0.44305 -0.7583,-0.34446 -0.7004,-1.75 z M 1370.6666,754 c 1.7223,-1.83333 3.4315,-3.33333 3.7982,-3.33333 0.3666,0 -0.7426,1.5 -2.4648,3.33333 -1.7223,1.83333 -3.4315,3.33333 -3.7982,3.33333 -0.3666,0 0.7426,-1.5 2.4648,-3.33333 z M 339.82991,745.66667 c -1.65849,-2.11475 -1.61133,-2.16191 0.50342,-0.50342 1.28333,1.00647 2.33333,2.05647 2.33333,2.33334 0,1.09738 -1.09492,0.39108 -2.83675,-1.82992 z M 1397.3333,726 c 1.7223,-1.83333 3.4315,-3.33333 3.7981,-3.33333 0.3667,0 -0.7425,1.5 -2.4648,3.33333 -1.7222,1.83333 -3.4314,3.33333 -3.7981,3.33333 -0.3667,0 0.7425,-1.5 2.4648,-3.33333 z m 24,-25.33333 c 1.7223,-1.83334 3.4315,-3.33334 3.7981,-3.33334 0.3667,0 -0.7425,1.5 -2.4648,3.33334 -1.7222,1.83333 -3.4314,3.33333 -3.7981,3.33333 -0.3667,0 0.7425,-1.5 2.4648,-3.33333 z M 970.77191,685.88889 c 0.064,-1.55326 0.37992,-1.8692 0.80555,-0.80556 0.38516,0.9625 0.3378,2.11251 -0.1052,2.55556 -0.44305,0.44306 -0.75819,-0.34445 -0.70029,-1.75 z m 1.33334,-16 c 0.064,-1.55326 0.37992,-1.8692 0.80554,-0.80556 0.38516,0.9625 0.3378,2.11251 -0.1052,2.55556 -0.44305,0.44306 -0.75818,-0.34445 -0.70029,-1.75 z m 29.33335,0 c 0.064,-1.55326 0.3799,-1.8692 0.8055,-0.80556 0.3852,0.9625 0.3378,2.11251 -0.1052,2.55556 -0.443,0.44306 -0.7582,-0.34445 -0.7003,-1.75 z m -761.33334,-60 c 0.064,-1.55326 0.37992,-1.8692 0.80555,-0.80556 0.38516,0.9625 0.3378,2.11251 -0.1052,2.55556 -0.44307,0.44306 -0.75819,-0.34445 -0.70029,-1.75 z m -2.66666,-30.66666 c 0.064,-1.55327 0.37992,-1.8692 0.80554,-0.80556 0.38516,0.96249 0.3378,2.1125 -0.1052,2.55556 -0.44306,0.44305 -0.75818,-0.34446 -0.70029,-1.75 z m 778.6666,-4 c 0.064,-1.55327 0.38,-1.8692 0.8056,-0.80556 0.3852,0.96249 0.3378,2.1125 -0.1052,2.55556 -0.4431,0.44305 -0.7582,-0.34446 -0.7003,-1.75 z m -747.99994,-2.66667 c 0.064,-1.55327 0.37992,-1.8692 0.80555,-0.80556 0.38516,0.96249 0.3378,2.11251 -0.1052,2.55556 -0.44307,0.44305 -0.75819,-0.34445 -0.7003,-1.75 z m -1.22808,-17.88889 c 0,-1.83334 0.30264,-2.58334 0.67252,-1.66667 0.36988,0.91667 0.36988,2.41667 0,3.33333 -0.36988,0.91667 -0.67252,0.16667 -0.67252,-1.66666 z m 746.56142,-7.44444 c 0.064,-1.55327 0.3799,-1.8692 0.8055,-0.80556 0.3852,0.96249 0.3378,2.1125 -0.1052,2.55556 -0.443,0.44305 -0.7582,-0.34446 -0.7003,-1.75 z m -1.3334,-14.66667 c 0.064,-1.55327 0.38,-1.8692 0.8056,-0.80556 0.3852,0.96249 0.3378,2.11251 -0.1052,2.55556 -0.4431,0.44305 -0.7582,-0.34445 -0.7003,-1.75 z m -287.08967,-5.49857 c 1.65855,-0.31892 4.05855,-0.30682 5.33334,0.0269 1.27478,0.33372 -0.0823,0.59467 -3.01555,0.57987 -2.93333,-0.0148 -3.97633,-0.28786 -2.31779,-0.60678 z m 285.75637,-9.1681 c 0.064,-1.55326 0.3799,-1.8692 0.8056,-0.80556 0.3851,0.9625 0.3378,2.11251 -0.1052,2.55556 -0.4431,0.44306 -0.7582,-0.34445 -0.7003,-1.75 z m -312.35525,-5.46637 c 0.9625,-0.38516 2.11251,-0.3378 2.55556,0.1052 0.44306,0.44305 -0.34445,0.75819 -1.75,0.70029 -1.55326,-0.064 -1.8692,-0.37992 -0.80556,-0.80554 z m 724.78995,-12.75585 -2.54,-3 3,2.53998 c 2.8192,2.38696 3.607,3.46002 2.54,3.46002 -0.253,0 -1.603,-1.35 -3,-3 z M 1408.54,485 l -2.54,-3 3,2.53999 c 2.8192,2.38696 3.6069,3.46001 2.54,3.46001 -0.2531,0 -1.6031,-1.35 -3,-3 z m -729.76808,-5.77777 c 0.064,-1.55327 0.37992,-1.8692 0.80555,-0.80556 0.38516,0.96249 0.3378,2.1125 -0.1052,2.55556 -0.44306,0.44305 -0.75819,-0.34446 -0.7003,-1.75 z m -410.66666,-1.33334 c 0.064,-1.55326 0.37992,-1.8692 0.80555,-0.80556 0.38516,0.9625 0.3378,2.11251 -0.1052,2.55556 -0.44307,0.44306 -0.75819,-0.34445 -0.7003,-1.75 z m 410.66666,-9.33333 c 0.064,-1.55327 0.37992,-1.8692 0.80555,-0.80556 0.38516,0.96249 0.3378,2.11251 -0.1052,2.55556 -0.44306,0.44305 -0.75819,-0.34445 -0.7003,-1.75 z M 489.69203,439.07601 c 1.29729,-0.33805 3.09729,-0.31582 4,0.0495 0.90271,0.36524 -0.15871,0.64183 -2.35871,0.61465 -2.2,-0.0272 -2.93858,-0.326 -1.64129,-0.66405 z m 38.66667,0 c 1.29729,-0.33805 3.09729,-0.31582 4,0.0495 0.9027,0.36524 -0.15871,0.64183 -2.35871,0.61465 -2.2,-0.0272 -2.93859,-0.326 -1.64129,-0.66405 z m -60.60871,-1.32016 c 0.96249,-0.38516 2.11251,-0.3378 2.55556,0.1052 0.44305,0.44306 -0.34445,0.75819 -1.75,0.7003 -1.55327,-0.064 -1.8692,-0.37992 -0.80556,-0.80555 z m 81.33333,0 c 0.9625,-0.38516 2.11251,-0.3378 2.55556,0.1052 0.44306,0.44306 -0.34445,0.75819 -1.75,0.7003 -1.55326,-0.064 -1.8692,-0.37992 -0.80556,-0.80555 z m -98.66666,-1.33333 c 0.96249,-0.38516 2.1125,-0.3378 2.55556,0.1052 0.44305,0.44305 -0.34446,0.75819 -1.75,0.70029 -1.55327,-0.064 -1.8692,-0.37992 -0.80556,-0.80554 z m -133.25341,-4.08919 c -1.6585,-2.11474 -1.61134,-2.1619 0.50341,-0.50341 2.221,1.74183 2.92731,2.83675 1.82992,2.83675 -0.27687,0 -1.32687,-1.05 -2.33333,-2.33334 z m 61.19396,-25.29964 c 2.39646,-0.29674 5.99646,-0.29062 8,0.0136 2.00353,0.30424 0.0428,0.54703 -4.35722,0.53955 -4.4,-0.008 -6.03925,-0.2564 -3.64278,-0.55315 z m 50.64278,-1.308 c 1.65,-0.31781 4.35,-0.31781 6,0 1.65,0.3178 0.3,0.57783 -3,0.57783 -3.3,0 -4.65,-0.26003 -3,-0.57783 z m 40.01555,-1.33537 c 1.65854,-0.31892 4.05854,-0.30681 5.33333,0.0269 1.27479,0.33372 -0.0823,0.59467 -3.01555,0.57987 -2.93333,-0.0148 -3.97633,-0.28785 -2.31778,-0.60677 z m 32.67649,-1.31431 c 1.29729,-0.33805 3.09729,-0.31582 4,0.0495 0.90271,0.36524 -0.15871,0.64183 -2.35871,0.61465 -2.2,-0.0272 -2.93858,-0.326 -1.64129,-0.66405 z m 25.33333,-1.33333 c 1.2973,-0.33805 3.0973,-0.31583 4,0.0495 0.90271,0.36524 -0.1587,0.64182 -2.3587,0.61465 -2.2,-0.0272 -2.93859,-0.326 -1.6413,-0.66405 z m 22.05796,-1.32016 c 0.9625,-0.38516 2.11251,-0.3378 2.55556,0.1052 0.44306,0.44305 -0.34445,0.75819 -1.75,0.70029 -1.55326,-0.064 -1.8692,-0.37992 -0.80556,-0.80554 z M 252,304.82992 c 0,-0.27687 1.04999,-1.32687 2.33333,-2.33333 2.11474,-1.6585 2.1619,-1.61134 0.50341,0.50341 C 253.09491,305.221 252,305.92731 252,304.82992 Z M 1420.54,293 l -2.54,-3 3,2.53999 c 2.8192,2.38696 3.6069,3.46001 2.54,3.46001 -0.2531,0 -1.6031,-1.35 -3,-3 z M 279.99999,275.33333 c 4.7243,-4.76666 8.88963,-8.66666 9.2563,-8.66666 0.36666,0 -3.19867,3.9 -7.92296,8.66666 C 276.60903,280.1 272.4437,284 272.07703,284 c -0.36666,0 3.19867,-3.9 7.92296,-8.66667 z m 1175.82981,6.33334 c -1.6584,-2.11475 -1.6113,-2.16191 0.5035,-0.50342 1.2833,1.00647 2.3333,2.05647 2.3333,2.33334 0,1.09738 -1.0949,0.39108 -2.8368,-1.82992 z m -613.41315,-2.57748 c 0.96249,-0.38516 2.11251,-0.3378 2.55556,0.1052 0.44305,0.44305 -0.34445,0.75818 -1.75,0.70029 -1.55327,-0.064 -1.8692,-0.37992 -0.80556,-0.80555 z m 62.58333,0.0277 c 0.91667,-0.36988 2.41667,-0.36988 3.33334,0 0.91666,0.36988 0.16666,0.67252 -1.66667,0.67252 -1.83333,0 -2.58333,-0.30264 -1.66667,-0.67252 z M 232,276.82992 c 0,-0.27687 1.05,-1.32687 2.33333,-2.33333 2.11475,-1.6585 2.16191,-1.61134 0.50341,0.50341 C 233.09492,277.221 232,277.92731 232,276.82992 Z M 1427.3082,251.66667 1414,238 l 13.6666,13.30832 c 12.6936,12.36083 14.2728,14.02501 13.3083,14.02501 -0.1971,0 -6.3471,-6.15 -13.6667,-13.66666 z m -41.4349,6.66666 -2.54,-3 3,2.53999 c 2.8192,2.38696 3.6069,3.46001 2.54,3.46001 -0.2531,0 -1.6031,-1.35 -3,-3 z m -464.78998,-8.57748 c 0.96249,-0.38516 2.1125,-0.3378 2.55556,0.1052 0.44305,0.44306 -0.34446,0.75819 -1.75,0.7003 -1.55327,-0.064 -1.8692,-0.37992 -0.80556,-0.80555 z m -14.66667,-1.33333 c 0.96249,-0.38516 2.11251,-0.3378 2.55556,0.1052 0.44305,0.44305 -0.34445,0.75819 -1.75,0.70029 -1.55327,-0.064 -1.8692,-0.37992 -0.80556,-0.80554 z m -82.75,-1.30556 c 0.91667,-0.36988 2.41667,-0.36988 3.33333,0 0.91667,0.36988 0.16667,0.67252 -1.66666,0.67252 -1.83334,0 -2.58334,-0.30264 -1.66667,-0.67252 z m 62.66667,0 c 0.91666,-0.36988 2.41666,-0.36988 3.33333,0 0.91667,0.36988 0.16667,0.67252 -1.66667,0.67252 -1.83333,0 -2.58333,-0.30264 -1.66666,-0.67252 z M 278.66666,230.16325 c 0,-0.27686 1.05,-1.32686 2.33333,-2.33333 2.11475,-1.65849 2.16191,-1.61133 0.50342,0.50341 -1.74183,2.221 -2.83675,2.92731 -2.83675,1.82992 z M 1397.1632,223 c -1.6584,-2.11475 -1.6114,-2.16191 0.5034,-0.50341 2.221,1.74182 2.9274,2.83674 1.8299,2.83674 -0.2768,0 -1.3268,-1.05 -2.3333,-2.33333 z M 913.08332,45.755848 c 0.96249,-0.385161 2.1125,-0.337792 2.55556,0.105267 0.44305,0.443056 -0.34446,0.758188 -1.75,0.700293 -1.55327,-0.06397 -1.8692,-0.379921 -0.80556,-0.805556 z m -126.75,-1.305556 c 0.91666,-0.369883 2.41666,-0.369883 3.33333,0 0.91667,0.369884 0.16667,0.672515 -1.66667,0.672515 -1.83333,0 -2.58333,-0.302631 -1.66666,-0.672515 z m 109.41666,-0.02777 c 0.9625,-0.385162 2.11251,-0.337792 2.55556,0.105266 0.44306,0.443056 -0.34445,0.758188 -1.75,0.700294 -1.55326,-0.06397 -1.8692,-0.379922 -0.80556,-0.805556 z m -84.06778,-1.36553 c 1.65854,-0.318924 4.05854,-0.306816 5.33333,0.02691 1.27479,0.333723 -0.0823,0.594661 -3.01555,0.579863 -2.93333,-0.0148 -3.97633,-0.287847 -2.31778,-0.60677 z m 57.33333,0 c 1.65855,-0.318924 4.05855,-0.306816 5.33333,0.02691 1.27479,0.333723 -0.0823,0.594661 -3.01554,0.579863 -2.93334,-0.0148 -3.97634,-0.287847 -2.31779,-0.60677 z m 60.06778,-29.301141 c 0.9625,-0.385161 2.11251,-0.337792 2.55556,0.105267 0.44306,0.443056 -0.34445,0.758188 -1.75,0.700293 -1.55326,-0.06397 -1.8692,-0.379921 -0.80556,-0.805556 z M 767.74998,12.422515 c 0.9625,-0.385161 2.11251,-0.337793 2.55556,0.105262 0.44306,0.443056 -0.34445,0.758188 -1.75,0.700293 -1.55326,-0.06398 -1.8692,-0.379921 -0.80556,-0.805555 z m 17.33334,-1.333334 c 0.96249,-0.38516 2.1125,-0.337792 2.55556,0.105263 0.44305,0.443056 -0.34446,0.758187 -1.75,0.700292 -1.55327,-0.06398 -1.8692,-0.37992 -0.80556,-0.805555 z m 111.91666,0.02778 c 0.91667,-0.369883 2.41667,-0.369883 3.33334,0 0.91666,0.369883 0.16666,0.672514 -1.66667,0.672514 -1.83333,0 -2.58333,-0.302631 -1.66667,-0.672514 z M 809.66665,9.7475656 c 1.28333,-0.3353701 3.38333,-0.3353701 4.66667,0 1.28333,0.3353704 0.23333,0.6097634 -2.33334,0.6097634 -2.56666,0 -3.61666,-0.274393 -2.33333,-0.6097634 z m 60.68221,-0.023913 c 1.65855,-0.3189243 4.05855,-0.3068159 5.33334,0.026908 1.27478,0.3337224 -0.0822,0.5946604 -3.01555,0.5798614 -2.93333,-0.0148 -3.97633,-0.287845 -2.31779,-0.6067694 z"
         id="path1352" />
      <path
         style="fill:#6e6f84;stroke-width:1.33333"
         d="m 636.53997,1555.6667 -2.53998,-3 3,2.54 c 1.65,1.3969 3,2.7469 3,3 0,1.0669 -1.07306,0.2792 -3.46002,-2.54 z m 768.79333,-110.8368 c 0,-0.2768 1.05,-1.3268 2.3333,-2.3334 2.1148,-1.6584 2.1619,-1.6113 0.5035,0.5035 -1.7419,2.2209 -2.8368,2.9273 -2.8368,1.8299 z M 255.97617,1423 242,1408.6667 l 14.33333,13.9761 c 7.88333,7.6869 14.33333,14.1369 14.33333,14.3333 0,0.963 -1.70912,-0.663 -14.69049,-13.9761 z m 49.18708,1.3333 c -1.6585,-2.1148 -1.61134,-2.1618 0.50341,-0.5034 2.221,1.7418 2.92731,2.8368 1.82992,2.8368 -0.27687,0 -1.32687,-1.05 -2.33333,-2.3334 z M 1389.3333,1414 c 1.7223,-1.8333 3.4315,-3.3333 3.7981,-3.3333 0.3667,0 -0.7425,1.5 -2.4648,3.3333 -1.7222,1.8333 -3.4314,3.3333 -3.7981,3.3333 -0.3667,0 0.7425,-1.5 2.4648,-3.3333 z m 58,-11.3333 c 1.3273,-1.4667 2.7133,-2.6667 3.08,-2.6667 0.3667,0 -0.4193,1.2 -1.7467,2.6667 -1.3273,1.4666 -2.7133,2.6666 -3.08,2.6666 -0.3666,0 0.4194,-1.2 1.7467,-2.6666 z m -30,-16.6667 c 1.7223,-1.8333 3.4315,-3.3333 3.7981,-3.3333 0.3667,0 -0.7425,1.5 -2.4648,3.3333 -1.7222,1.8333 -3.4314,3.3333 -3.7981,3.3333 -0.3667,0 0.7425,-1.5 2.4648,-3.3333 z M 254.49658,1373.6667 c -1.65849,-2.1148 -1.61133,-2.1619 0.50341,-0.5035 1.28334,1.0065 2.33334,2.0565 2.33334,2.3333 0,1.0975 -1.09492,0.3911 -2.83675,-1.8298 z m 580.61451,-88.9414 c 0,-1.0677 0.50979,-1.6263 1.13287,-1.2412 0.62306,0.3851 0.78766,1.2587 0.36574,1.9414 -1.07816,1.7445 -1.49861,1.548 -1.49861,-0.7002 z M 1304,1098.1633 c 0,-0.2769 1.05,-1.3269 2.3333,-2.3334 2.1148,-1.6585 2.1619,-1.6113 0.5034,0.5034 -1.7418,2.221 -2.8367,2.9273 -2.8367,1.83 z m -97.3334,-29.2472 c 0,-0.2294 1.95,-2.1794 4.3334,-4.3333 l 4.3333,-3.9161 -3.9161,4.3333 c -3.6504,4.0393 -4.7506,4.9462 -4.7506,3.9161 z m 58.6667,-206.66665 c 0,-0.22946 1.95,-2.17946 4.3333,-4.33333 L 1274,854 l -3.9161,4.33333 c -3.6504,4.03928 -4.7506,4.9462 -4.7506,3.91612 z M 1292,835.33333 c 4.7243,-4.76666 8.8896,-8.66666 9.2563,-8.66666 0.3666,0 -3.1987,3.9 -7.923,8.66666 C 1288.609,840.1 1284.4437,844 1284.077,844 c -0.3667,0 3.1987,-3.9 7.923,-8.66667 z m -850.83676,-1.66666 c -1.65849,-2.11475 -1.61133,-2.16191 0.50342,-0.50342 1.28333,1.00647 2.33333,2.05647 2.33333,2.33334 0,1.09738 -1.09492,0.39108 -2.83675,-1.82992 z m 892.47166,-41.10496 c 1.2659,-1.32164 2.5885,-2.11598 2.9393,-1.7652 0.3508,0.35077 -0.6849,1.4321 -2.3016,2.40297 -2.8083,1.68656 -2.8368,1.65815 -0.6377,-0.63777 z M 1067.8299,787 c -1.6585,-2.11475 -1.6113,-2.16191 0.5034,-0.50341 2.221,1.74182 2.9273,2.83674 1.8299,2.83674 -0.2768,0 -1.3268,-1.05 -2.3333,-2.33333 z M 1364,760.66667 c 1.7222,-1.83334 3.4314,-3.33334 3.7981,-3.33334 0.3667,0 -0.7425,1.5 -2.4648,3.33334 C 1363.611,762.5 1361.9018,764 1361.5352,764 c -0.3667,0 0.7425,-1.5 2.4648,-3.33333 z m 26.6666,-28 c 1.7223,-1.83334 3.4315,-3.33334 3.7982,-3.33334 0.3666,0 -0.7426,1.5 -2.4648,3.33334 -1.7223,1.83333 -3.4315,3.33333 -3.7982,3.33333 -0.3666,0 0.7426,-1.5 2.4648,-3.33333 z m 24.6667,-26 c 1.3273,-1.46667 2.7133,-2.66667 3.08,-2.66667 0.3667,0 -0.4193,1.2 -1.7467,2.66667 -1.3273,1.46666 -2.7133,2.66666 -3.08,2.66666 -0.3666,0 0.4194,-1.2 1.7467,-2.66666 z M 745.33332,507.49659 c 0,-0.27687 1.05,-1.32687 2.33333,-2.33334 2.11475,-1.65849 2.16191,-1.61133 0.50342,0.50342 -1.74183,2.221 -2.83675,2.9273 -2.83675,1.82992 z m 658.49648,-27.16326 c -1.6584,-2.11474 -1.6113,-2.1619 0.5035,-0.50341 2.2209,1.74183 2.9273,2.83675 1.8299,2.83675 -0.2768,0 -1.3268,-1.05 -2.3334,-2.33334 z M 677.33332,403.58279 c 0,-0.22947 1.95,-2.17947 4.33333,-4.33334 l 4.33334,-3.91612 -3.91612,4.33334 c -3.65038,4.03928 -4.75055,4.9462 -4.75055,3.91612 z M 1425.1632,297.66667 c -1.6584,-2.11475 -1.6114,-2.16191 0.5034,-0.50342 1.2834,1.00647 2.3334,2.05647 2.3334,2.33334 0,1.09738 -1.095,0.39108 -2.8368,-1.82992 z M 263.99999,291.58279 c 0,-0.22947 1.95,-2.17947 4.33334,-4.33334 l 4.33333,-3.91612 -3.91612,4.33334 c -3.65037,4.03928 -4.75055,4.9462 -4.75055,3.91612 z m 448,-4 c 0,-0.22947 1.95,-2.17947 4.33333,-4.33334 l 4.33333,-3.91612 -3.91612,4.33334 c -3.65037,4.03928 -4.75054,4.9462 -4.75054,3.91612 z M 236,272.82992 c 0,-0.27687 1.05,-1.32687 2.33333,-2.33333 2.11475,-1.6585 2.16191,-1.61134 0.50341,0.50341 C 237.09492,273.221 236,273.92731 236,272.82992 Z m 55.99999,-9.49659 C 293.72233,261.5 295.4315,260 295.79817,260 c 0.36666,0 -0.74251,1.5 -2.46484,3.33333 -1.72234,1.83334 -3.43151,3.33334 -3.79818,3.33334 -0.36666,0 0.74251,-1.5 2.46484,-3.33334 z m 1089.16321,-9.66666 c -1.6584,-2.11475 -1.6114,-2.16191 0.5034,-0.50342 2.221,1.74183 2.9274,2.83675 1.8299,2.83675 -0.2768,0 -1.3268,-1.05 -2.3333,-2.33333 z M 275.33333,233.33333 c 1.32732,-1.46666 2.7133,-2.66666 3.07997,-2.66666 0.36667,0 -0.41932,1.2 -1.74664,2.66666 C 275.33934,234.8 273.95335,236 273.58669,236 c -0.36667,0 0.41932,-1.2 1.74664,-2.66667 z"
         id="path1350" />
      <path
         style="fill:#4f516b;stroke-width:1.33333"
         d="m 797.69202,1664.4093 c 1.2973,-0.338 3.0973,-0.3158 4,0.049 0.90271,0.3652 -0.1587,0.6417 -2.3587,0.6146 -2.2,-0.027 -2.93859,-0.326 -1.6413,-0.6641 z m 85.97463,0.041 c 0.91667,-0.3699 2.41667,-0.3699 3.33333,0 0.91667,0.3698 0.16667,0.6725 -1.66666,0.6725 -1.83334,0 -2.58334,-0.3027 -1.66667,-0.6725 z m -106.58333,-1.3611 c 0.96249,-0.3852 2.1125,-0.3379 2.55556,0.1053 0.44305,0.4431 -0.34446,0.7583 -1.75,0.7004 -1.55327,-0.064 -1.8692,-0.38 -0.80556,-0.8056 z m 128,0 c 0.96249,-0.3852 2.1125,-0.3379 2.55556,0.1053 0.44305,0.4431 -0.34446,0.7583 -1.75,0.7004 -1.55327,-0.064 -1.8692,-0.38 -0.80556,-0.8056 z m -90.75,-30.6972 c 1.65,-0.3179 4.35,-0.3179 6,0 1.65,0.3177 0.3,0.5777 -3,0.5777 -3.3,0 -4.65,-0.26 -3,-0.5777 z m 50,0.021 c 1.28333,-0.3354 3.38333,-0.3354 4.66666,0 1.28334,0.3354 0.23334,0.6098 -2.33333,0.6098 -2.56667,0 -3.61667,-0.2744 -2.33333,-0.6098 z m -75.25,-1.325 c 0.96249,-0.3852 2.1125,-0.3379 2.55556,0.1053 0.44305,0.4431 -0.34446,0.7583 -1.75,0.7004 -1.55327,-0.064 -1.8692,-0.38 -0.80556,-0.8056 z M 642.87717,1521.3333 c 0,-1.8333 0.30264,-2.5833 0.67252,-1.6666 0.36988,0.9166 0.36988,2.4166 0,3.3333 -0.36988,0.9167 -0.67252,0.1667 -0.67252,-1.6667 z m 111.45615,-136.9409 c 1.65,-0.3179 4.35,-0.3179 6,0 1.65,0.3177 0.3,0.5777 -3,0.5777 -3.3,0 -4.65,-0.26 -3,-0.5777 z m -26.024,-49.7257 c 0,-2.5667 0.2744,-3.6167 0.60977,-2.3334 0.33536,1.2834 0.33536,3.3834 0,4.6667 -0.33537,1.2833 -0.60977,0.2333 -0.60977,-2.3333 z M 701.59325,1138 c 0.0272,-2.2 0.326,-2.9386 0.66406,-1.6413 0.33805,1.2973 0.31582,3.0973 -0.0495,4 -0.36524,0.9027 -0.64183,-0.1587 -0.61465,-2.3587 z M 634.77192,963.22223 c 0.064,-1.55327 0.37992,-1.8692 0.80555,-0.80556 0.38516,0.96249 0.3378,2.1125 -0.1052,2.55556 -0.44306,0.44305 -0.75819,-0.34446 -0.7003,-1.75 z m -585.333325,-56 c 0.06397,-1.55327 0.379921,-1.8692 0.805556,-0.80556 0.385161,0.96249 0.337792,2.1125 -0.105267,2.55556 -0.443056,0.44305 -0.758188,-0.34446 -0.700293,-1.75 z m -33.333333,-6.66667 c 0.06397,-1.55327 0.379922,-1.8692 0.805556,-0.80556 0.385162,0.96249 0.337792,2.11251 -0.105266,2.55556 -0.443056,0.44305 -0.758188,-0.34445 -0.700294,-1.75 z M 1634.7718,897.88889 c 0.064,-1.55326 0.38,-1.8692 0.8056,-0.80556 0.3852,0.9625 0.3379,2.11251 -0.1053,2.55556 -0.4431,0.44306 -0.7583,-0.34445 -0.7004,-1.75 z m -1586.666538,-8 c 0.06397,-1.55326 0.379921,-1.8692 0.805556,-0.80556 0.385161,0.9625 0.337792,2.11251 -0.105267,2.55556 -0.443056,0.44306 -0.758188,-0.34445 -0.700293,-1.75 z M 1668.2105,889.33333 c 0,-1.83333 0.3027,-2.58333 0.6725,-1.66666 0.3699,0.91666 0.3699,2.41666 0,3.33333 -0.3698,0.91667 -0.6725,0.16667 -0.6725,-1.66667 z m -71.8772,-0.9191 c 1.2833,-0.33536 3.3833,-0.33536 4.6667,0 1.2833,0.33537 0.2333,0.60977 -2.3334,0.60977 -2.5666,0 -3.6166,-0.2744 -2.3333,-0.60977 z m -25.9167,-1.32504 c 0.9626,-0.38516 2.1126,-0.3378 2.5556,0.1052 0.4431,0.44305 -0.3445,0.75818 -1.75,0.70029 -1.5533,-0.064 -1.8692,-0.37992 -0.8056,-0.80555 z m -18.6666,-1.33334 c 0.9625,-0.38516 2.1125,-0.3378 2.5556,0.1052 0.443,0.44306 -0.3446,0.75819 -1.75,0.7003 -1.5534,-0.064 -1.8692,-0.37992 -0.8056,-0.80555 z M 14.877193,880 c 0,-1.83333 0.302631,-2.58333 0.672515,-1.66667 0.369882,0.91667 0.369882,2.41667 0,3.33334 -0.369884,0.91666 -0.672515,0.16666 -0.672515,-1.66667 z m 32.152625,-18.66667 c 0,-3.3 0.260021,-4.65 0.577825,-3 0.317804,1.65 0.317804,4.35 0,6 -0.317804,1.65 -0.577825,0.3 -0.577825,-3 z M 1259.75,864.42252 c 0.9625,-0.38516 2.1125,-0.3378 2.5555,0.1052 0.4431,0.44305 -0.3444,0.75819 -1.75,0.70029 -1.5532,-0.064 -1.8692,-0.37992 -0.8055,-0.80554 z m 409.9965,-7.75585 c 0.013,-4.4 0.2564,-6.03926 0.5531,-3.64279 0.2968,2.39647 0.2906,5.99647 -0.013,8 -0.3041,2.00353 -0.5469,0.0428 -0.5394,-4.35721 z m -595.3299,-10.91082 c 0.9625,-0.38516 2.1126,-0.3378 2.5556,0.1052 0.4431,0.44306 -0.3444,0.75819 -1.75,0.7003 -1.5533,-0.064 -1.8692,-0.37992 -0.8056,-0.80555 z m 44,0 c 0.9625,-0.38516 2.1126,-0.3378 2.5556,0.1052 0.4431,0.44306 -0.3444,0.75819 -1.75,0.7003 -1.5533,-0.064 -1.8692,-0.37992 -0.8056,-0.80555 z m 465.3334,-5.33333 c 0.9625,-0.38516 2.1125,-0.3378 2.5556,0.1052 0.443,0.44305 -0.3446,0.75819 -1.75,0.70029 -1.5534,-0.064 -1.8692,-0.37992 -0.8056,-0.80554 z m -359.6448,-6.53363 c 0.064,-1.55326 0.38,-1.8692 0.8056,-0.80556 0.3851,0.9625 0.3378,2.11251 -0.1052,2.55556 -0.4431,0.44306 -0.7582,-0.34445 -0.7003,-1.75 z m 445.6277,-15.22222 c 0,-4.03334 0.2499,-5.68334 0.5555,-3.66667 0.3054,2.01667 0.3054,5.31667 0,7.33333 -0.3056,2.01667 -0.5555,0.36667 -0.5555,-3.66666 z m -1622.703082,-4 c 0,-3.3 0.260021,-4.65 0.577825,-3 0.317804,1.65 0.317804,4.35 0,6 -0.317804,1.65 -0.577825,0.3 -0.577825,-3 z m 1479.386782,3.08918 c 0.9626,-0.38516 2.1126,-0.3378 2.5556,0.1052 0.4431,0.44306 -0.3445,0.75819 -1.75,0.7003 -1.5533,-0.064 -1.8692,-0.37992 -0.8056,-0.80555 z m -20.0833,-1.30556 c 0.9167,-0.36988 2.4167,-0.36988 3.3333,0 0.9167,0.36988 0.1667,0.67252 -1.6666,0.67252 -1.8334,0 -2.5834,-0.30264 -1.6667,-0.67252 z M 1225.6426,812 c 0,-2.56667 0.2744,-3.61667 0.6098,-2.33333 0.3354,1.28333 0.3354,3.38333 0,4.66666 -0.3354,1.28334 -0.6098,0.23334 -0.6098,-2.33333 z m 260.6907,3.11696 c 0.9167,-0.36988 2.4167,-0.36988 3.3333,0 0.9167,0.36988 0.1667,0.67252 -1.6666,0.67252 -1.8334,0 -2.5834,-0.30264 -1.6667,-0.67252 z m -17.25,-1.36111 c 0.9625,-0.38516 2.1125,-0.3378 2.5556,0.1052 0.4431,0.44306 -0.3445,0.75819 -1.75,0.7003 -1.5533,-0.064 -1.8692,-0.37992 -0.8056,-0.80555 z M 1636.2105,800 c 0,-1.83333 0.3027,-2.58333 0.6725,-1.66667 0.3699,0.91667 0.3699,2.41667 0,3.33334 -0.3698,0.91666 -0.6725,0.16666 -0.6725,-1.66667 z M 14.877193,796 c 0,-1.83333 0.302631,-2.58333 0.672515,-1.66667 0.369882,0.91667 0.369882,2.41667 0,3.33334 -0.369884,0.91666 -0.672515,0.16666 -0.672515,-1.66667 z m 33.228069,-10.11111 c 0.06397,-1.55326 0.379921,-1.8692 0.805556,-0.80556 0.385161,0.9625 0.337792,2.11251 -0.105267,2.55556 -0.443056,0.44306 -0.758188,-0.34445 -0.700293,-1.75 z m 1619.999938,0 c 0.064,-1.55326 0.38,-1.8692 0.8056,-0.80556 0.3852,0.9625 0.3378,2.11251 -0.1054,2.55556 -0.443,0.44306 -0.7582,-0.34445 -0.7004,-1.75 z m -33.3334,-8 c 0.064,-1.55326 0.38,-1.8692 0.8056,-0.80556 0.3852,0.9625 0.3379,2.11251 -0.1053,2.55556 -0.4431,0.44306 -0.7583,-0.34445 -0.7004,-1.75 z m -1618.666538,-4 c 0.06397,-1.55326 0.379922,-1.8692 0.805556,-0.80556 0.385162,0.9625 0.337792,2.11251 -0.105266,2.55556 -0.443056,0.44306 -0.758188,-0.34445 -0.700294,-1.75 z M 1666.7718,767.22223 c 0.064,-1.55327 0.38,-1.8692 0.8056,-0.80556 0.3852,0.96249 0.3379,2.1125 -0.1053,2.55556 -0.4431,0.44305 -0.7583,-0.34446 -0.7004,-1.75 z M 970.77191,689.88889 c 0.064,-1.55326 0.37992,-1.8692 0.80555,-0.80556 0.38516,0.9625 0.3378,2.11251 -0.1052,2.55556 -0.44305,0.44306 -0.75819,-0.34445 -0.70029,-1.75 z m 30.66669,-24 c 0.064,-1.55326 0.3799,-1.8692 0.8055,-0.80556 0.3852,0.9625 0.3378,2.11251 -0.1052,2.55556 -0.443,0.44306 -0.7582,-0.34445 -0.7003,-1.75 z M 237.54385,574.66667 c 0,-1.83334 0.30264,-2.58334 0.67252,-1.66667 0.36988,0.91667 0.36988,2.41667 0,3.33333 -0.36988,0.91667 -0.67252,0.16667 -0.67252,-1.66666 z m 29.22808,-14.11111 c 0.064,-1.55327 0.37992,-1.8692 0.80554,-0.80556 0.38516,0.96249 0.3378,2.11251 -0.1052,2.55556 -0.44306,0.44305 -0.75818,-0.34445 -0.70029,-1.75 z m 746.66667,-9.33333 c 0.064,-1.55327 0.3799,-1.8692 0.8055,-0.80556 0.3852,0.96249 0.3378,2.1125 -0.1052,2.55556 -0.443,0.44305 -0.7582,-0.34446 -0.7003,-1.75 z m -776,-13.33334 c 0.064,-1.55326 0.37992,-1.8692 0.80554,-0.80556 0.38516,0.9625 0.3378,2.11251 -0.1052,2.55556 -0.44306,0.44306 -0.75818,-0.34445 -0.70029,-1.75 z m 774.6666,-1.33333 c 0.064,-1.55327 0.38,-1.8692 0.8056,-0.80556 0.3852,0.96249 0.3378,2.11251 -0.1052,2.55556 -0.4431,0.44305 -0.7582,-0.34445 -0.7003,-1.75 z m -1.3333,-14.66667 c 0.064,-1.55326 0.3799,-1.8692 0.8056,-0.80556 0.3851,0.9625 0.3378,2.11251 -0.1052,2.55556 -0.4431,0.44306 -0.7582,-0.34445 -0.7003,-1.75 z m -322.42025,-9.51233 c 2.02675,-0.30648 5.02675,-0.29828 6.66667,0.0181 1.63992,0.31648 -0.0183,0.56723 -3.685,0.55723 -3.66667,-0.0107 -5.00841,-0.26896 -2.98167,-0.57543 z m 8.73167,-13.28737 c 0.96249,-0.38516 2.11251,-0.3378 2.55556,0.1052 0.44305,0.44305 -0.34445,0.75818 -1.75,0.70029 -1.55327,-0.064 -1.8692,-0.37992 -0.80556,-0.80555 z M 678.92659,474 c 0.0272,-2.2 0.326,-2.93859 0.66405,-1.64129 0.33805,1.29729 0.31583,3.09729 -0.0495,4 C 679.17593,477.26141 678.89935,476.2 678.92652,474 Z M 306.77193,447.22223 c 0.064,-1.55327 0.37992,-1.8692 0.80554,-0.80556 0.38516,0.96249 0.3378,2.1125 -0.1052,2.55556 -0.44306,0.44305 -0.75818,-0.34446 -0.70029,-1.75 z m 196.94698,-8.21078 c 4.61207,-0.2611 11.81207,-0.25896 16,0.005 4.18792,0.26374 0.41441,0.47737 -8.38559,0.47474 -8.8,-0.003 -12.22649,-0.21842 -7.61441,-0.47953 z m -30.63559,-1.2556 c 0.9625,-0.38516 2.11251,-0.3378 2.55556,0.1052 0.44306,0.44306 -0.34445,0.75819 -1.75,0.7003 -1.55326,-0.064 -1.8692,-0.37992 -0.80556,-0.80555 z m 72,0 c 0.9625,-0.38516 2.11251,-0.3378 2.55556,0.1052 0.44306,0.44306 -0.34445,0.75819 -1.75,0.7003 -1.55326,-0.064 -1.8692,-0.37992 -0.80556,-0.80555 z m 14.66667,-1.33333 c 0.96249,-0.38516 2.11251,-0.3378 2.55556,0.1052 0.44305,0.44305 -0.34445,0.75819 -1.75,0.70029 -1.55327,-0.064 -1.8692,-0.37992 -0.80556,-0.80554 z m 150.66666,-5.33333 c 0.9625,-0.38516 2.11251,-0.3378 2.55556,0.1052 0.44306,0.44305 -0.34445,0.75818 -1.75,0.70029 -1.55326,-0.064 -1.8692,-0.37992 -0.80556,-0.80555 z M 392.33333,407.045 c 2.01666,-0.30551 5.31666,-0.30551 7.33333,0 2.01667,0.30549 0.36667,0.55545 -3.66667,0.55545 -4.03333,0 -5.68333,-0.24996 -3.66666,-0.55545 z m 47.33333,-1.31931 c 1.65,-0.31781 4.35,-0.31781 6,0 1.65,0.3178 0.3,0.57783 -3,0.57783 -3.3,0 -4.65,-0.26003 -3,-0.57783 z m 38,-1.31146 c 1.28333,-0.33536 3.38333,-0.33536 4.66666,0 1.28334,0.33537 0.23334,0.60977 -2.33333,0.60977 -2.56667,0 -3.61667,-0.2744 -2.33333,-0.60977 z m 30.69204,-1.33822 c 1.29729,-0.33805 3.09729,-0.31582 4,0.0495 0.9027,0.36524 -0.15871,0.64183 -2.35871,0.61465 -2.2,-0.0272 -2.93859,-0.326 -1.64129,-0.66405 z m 24.64129,-1.29238 c 0.91667,-0.36988 2.41667,-0.36988 3.33333,0 0.91667,0.36988 0.16667,0.67252 -1.66666,0.67252 -1.83334,0 -2.58334,-0.30264 -1.66667,-0.67252 z m 20.08333,-1.36111 c 0.9625,-0.38516 2.11251,-0.3378 2.55556,0.1052 0.44306,0.44305 -0.34445,0.75819 -1.75,0.70029 -1.55326,-0.064 -1.8692,-0.37992 -0.80556,-0.80554 z M 910.41665,279.08919 c 0.96249,-0.38516 2.11251,-0.3378 2.55556,0.1052 0.44305,0.44305 -0.34445,0.75818 -1.75,0.70029 -1.55327,-0.064 -1.8692,-0.37992 -0.80556,-0.80555 z m -45.41667,-1.40972 c 4.58334,-0.26036 12.08334,-0.26036 16.66667,0 4.58333,0.26036 0.83333,0.47338 -8.33333,0.47338 -9.16667,0 -12.91667,-0.21302 -8.33334,-0.47338 z m 37.41667,-29.25695 c 0.96249,-0.38516 2.11251,-0.3378 2.55556,0.1052 0.44305,0.44305 -0.34445,0.75819 -1.75,0.70029 -1.55327,-0.064 -1.8692,-0.37992 -0.80556,-0.80554 z m -72.72463,-1.34651 c 1.2973,-0.33805 3.0973,-0.31582 4,0.0495 0.90271,0.36524 -0.1587,0.64183 -2.3587,0.61465 -2.2,-0.0272 -2.93859,-0.326 -1.6413,-0.66405 z m 49.33334,0 c 1.29729,-0.33805 3.09729,-0.31582 4,0.0495 0.9027,0.36524 -0.15871,0.64183 -2.35871,0.61465 -2.2,-0.0272 -2.93859,-0.326 -1.64129,-0.66405 z M 782.41665,44.422515 c 0.96249,-0.385162 2.11251,-0.337792 2.55556,0.105266 0.44305,0.443056 -0.34445,0.758188 -1.75,0.700294 -1.55327,-0.06397 -1.8692,-0.379922 -0.80556,-0.805556 z m 118.66667,0 c 0.96249,-0.385162 2.1125,-0.337792 2.55556,0.105266 0.44305,0.443056 -0.34446,0.758188 -1.75,0.700294 -1.55327,-0.06397 -1.8692,-0.379922 -0.80556,-0.805556 z m -98.05796,-1.346503 c 1.29729,-0.338057 3.09729,-0.315825 4,0.0494 0.9027,0.365231 -0.15871,0.641824 -2.35871,0.614651 -2.2,-0.02717 -2.93859,-0.325998 -1.64129,-0.664056 z m 74.66666,0 c 1.2973,-0.338057 3.0973,-0.315825 4,0.0494 0.90271,0.365231 -0.1587,0.641824 -2.3587,0.614651 -2.2,-0.02717 -2.93859,-0.325998 -1.6413,-0.664056 z M 771.74998,12.422515 c 0.9625,-0.385161 2.11251,-0.337793 2.55556,0.105262 0.44306,0.443056 -0.34445,0.758188 -1.75,0.700293 -1.55326,-0.06398 -1.8692,-0.379921 -0.80556,-0.805555 z m 18.66667,-1.333334 c 0.96249,-0.38516 2.11251,-0.337792 2.55556,0.105263 0.44305,0.443056 -0.34445,0.758187 -1.75,0.700292 -1.55327,-0.06398 -1.8692,-0.37992 -0.80556,-0.805555 z m 101.25,0.02778 c 0.91667,-0.369883 2.41667,-0.369883 3.33333,0 0.91667,0.369883 0.16667,0.672514 -1.66666,0.672514 -1.83334,0 -2.58334,-0.302631 -1.66667,-0.672514 z M 820.99998,9.7021388 c 2.38334,-0.2957689 6.28334,-0.2957689 8.66667,0 2.38333,0.2957691 0.43333,0.5377622 -4.33333,0.5377622 -4.76667,0 -6.71667,-0.2419931 -4.33334,-0.5377622 z m 33.3036,0.00221 c 2.36698,-0.2945492 6.56698,-0.2993888 9.33334,-0.01076 2.76634,0.288634 0.82973,0.5296292 -4.3036,0.5355442 -5.13334,0.0059 -7.39672,-0.2302403 -5.02974,-0.5247894 z"
         id="path1348" />
      <path
         style="fill:#343553;stroke-width:1.33333"
         d="m 282.49658,1448.3333 c -1.65849,-2.1148 -1.61133,-2.1618 0.50341,-0.5034 1.28334,1.0065 2.33334,2.0565 2.33334,2.3333 0,1.0975 -1.09492,0.3911 -2.83675,-1.8299 z m 1130.83672,-11.6666 c 1.7223,-1.8334 3.4315,-3.3334 3.7981,-3.3334 0.3667,0 -0.7425,1.5 -2.4648,3.3334 -1.7222,1.8333 -3.4314,3.3333 -3.7981,3.3333 -0.3667,0 0.7425,-1.5 2.4648,-3.3333 z m -1104.17005,-8.3334 c -1.6585,-2.1148 -1.61134,-2.1618 0.50341,-0.5034 1.28333,1.0065 2.33333,2.0565 2.33333,2.3333 0,1.0975 -1.09492,0.3911 -2.83674,-1.8299 z M 1383.3333,1420 c 1.3273,-1.4667 2.7133,-2.6667 3.08,-2.6667 0.3667,0 -0.4193,1.2 -1.7467,2.6667 -1.3273,1.4667 -2.7133,2.6667 -3.08,2.6667 -0.3666,0 0.4194,-1.2 1.7467,-2.6667 z M 279.30831,1399.6667 265.99999,1386 l 13.66667,13.3083 c 7.51667,7.3196 13.66667,13.4696 13.66667,13.6666 0,0.9646 -1.66419,-0.6146 -14.02502,-13.3082 z m 1162.02499,9 c 1.7223,-1.8334 3.4315,-3.3334 3.7981,-3.3334 0.3667,0 -0.7425,1.5 -2.4648,3.3334 -1.7222,1.8333 -3.4314,3.3333 -3.7981,3.3333 -0.3667,0 0.7425,-1.5 2.4648,-3.3333 z M 230.49658,1396.3333 c -1.65849,-2.1148 -1.61133,-2.1618 0.50342,-0.5034 1.28333,1.0065 2.33333,2.0565 2.33333,2.3333 0,1.0975 -1.09492,0.3911 -2.83675,-1.8299 z M 1423.3333,1380 c 1.3273,-1.4667 2.7133,-2.6667 3.08,-2.6667 0.3667,0 -0.4193,1.2 -1.7467,2.6667 -1.3273,1.4667 -2.7133,2.6667 -3.08,2.6667 -0.3666,0 0.4194,-1.2 1.7467,-2.6667 z M 250.49658,1369.6667 c -1.65849,-2.1148 -1.61133,-2.1619 0.50342,-0.5035 2.22099,1.7419 2.9273,2.8368 1.82991,2.8368 -0.27686,0 -1.32686,-1.05 -2.33333,-2.3333 z m 569.33332,-100 c -1.65849,-2.1148 -1.61133,-2.1619 0.50342,-0.5034 1.28333,1.0064 2.33333,2.0564 2.33333,2.3333 0,1.0974 -1.09492,0.3911 -2.83675,-1.8299 z M 1284,1118.3 c 0,-0.2017 4.65,-4.8517 10.3333,-10.3334 l 10.3333,-9.9666 -9.9666,10.3333 c -9.2568,9.5974 -10.7,10.9417 -10.7,9.9667 z m -82.6667,-44.3 c 1.7223,-1.8333 3.4315,-3.3333 3.7982,-3.3333 0.3666,0 -0.7425,1.5 -2.4649,3.3333 -1.7223,1.8333 -3.4315,3.3333 -3.7981,3.3333 -0.3667,0 0.7425,-1.5 2.4648,-3.3333 z m 13.3333,-13.0839 c 0,-0.2294 1.95,-2.1794 4.3334,-4.3333 l 4.3333,-3.9161 -3.9161,4.3333 c -3.6504,4.0393 -4.7506,4.9462 -4.7506,3.9161 z m -8.17,-191.24943 c -1.6585,-2.11475 -1.6114,-2.16191 0.5034,-0.50342 2.221,1.74183 2.9273,2.83675 1.8299,2.83675 -0.2769,0 -1.3269,-1.05 -2.3333,-2.33333 z m 72.17,-21 C 1281.1543,846.1 1283.4897,844 1283.8564,844 c 0.3667,0 -1.3687,2.1 -3.8564,4.66667 -2.4877,2.56666 -4.8231,4.66666 -5.1898,4.66666 -0.3667,0 1.3687,-2.1 3.8564,-4.66666 z m -828.71673,-6.33334 -6.61655,-7 7,6.61655 c 6.50452,6.14821 7.61147,7.38345 6.61655,7.38345 -0.21091,0 -3.36091,-3.15 -7,-7 z M 1357.8733,833 l -2.54,-3 3,2.53999 c 2.8192,2.38696 3.6069,3.46001 2.54,3.46001 -0.2531,0 -1.6031,-1.35 -3,-3 z m -35.2067,-29.41721 c 0,-0.22947 1.95,-2.17947 4.3334,-4.33334 l 4.3333,-3.91612 -3.9161,4.33334 c -3.6504,4.03928 -4.7506,4.9462 -4.7506,3.91612 z m 88,-14.75287 c 0,-0.27687 1.05,-1.32687 2.3334,-2.33333 2.1148,-1.6585 2.1618,-1.61134 0.5034,0.50341 -1.7418,2.221 -2.8368,2.92731 -2.8368,1.82992 z M 1384,739.33333 C 1385.7222,737.5 1387.4314,736 1387.7981,736 c 0.3667,0 -0.7425,1.5 -2.4648,3.33333 -1.7223,1.83334 -3.4315,3.33334 -3.7981,3.33334 -0.3667,0 0.7425,-1.5 2.4648,-3.33334 z m 25.3333,-26.66666 c 1.7223,-1.83334 3.4315,-3.33334 3.7981,-3.33334 0.3667,0 -0.7425,1.5 -2.4648,3.33334 -1.7222,1.83333 -3.4314,3.33333 -3.7981,3.33333 -0.3667,0 0.7425,-1.5 2.4648,-3.33333 z M 295.33333,481.33333 c 1.32732,-1.46666 2.7133,-2.66666 3.07997,-2.66666 0.36667,0 -0.41932,1.2 -1.74664,2.66666 C 295.33934,482.8 293.95335,484 293.58669,484 c -0.36667,0 0.41932,-1.2 1.74664,-2.66667 z M 691.33332,442.66667 C 692.66064,441.2 694.04663,440 694.41329,440 c 0.36667,0 -0.41932,1.2 -1.74664,2.66667 -1.32732,1.46666 -2.7133,2.66666 -3.07997,2.66666 -0.36667,0 0.41932,-1.2 1.74664,-2.66666 z m 647.16318,-34.33334 c -1.6584,-2.11474 -1.6113,-2.1619 0.5035,-0.50341 2.2209,1.74183 2.9273,2.83675 1.8298,2.83675 -0.2768,0 -1.3268,-1.05 -2.3333,-2.33334 z M 657.33332,370.16325 c 0,-0.27686 1.05,-1.32686 2.33333,-2.33333 2.11475,-1.65849 2.16191,-1.61133 0.50342,0.50341 -1.74183,2.221 -2.83675,2.92731 -2.83675,1.82992 z m 771.82988,-68.49658 c -1.6584,-2.11475 -1.6114,-2.16191 0.5034,-0.50342 1.2834,1.00647 2.3334,2.05647 2.3334,2.33334 0,1.09738 -1.095,0.39108 -2.8368,-1.82992 z m -1168.49654,-7 C 261.99398,293.2 263.37997,292 263.74663,292 c 0.36667,0 -0.41932,1.2 -1.74664,2.66667 -1.32732,1.46666 -2.7133,2.66666 -3.07997,2.66666 -0.36667,0 0.41932,-1.2 1.74664,-2.66666 z m 1187.16314,-21 c -1.6584,-2.11475 -1.6113,-2.16191 0.5035,-0.50342 2.2209,1.74183 2.9273,2.83675 1.8299,2.83675 -0.2768,0 -1.3268,-1.05 -2.3334,-2.33333 z m -1203.8298,-9 c 1.72233,-1.83334 3.4315,-3.33334 3.79817,-3.33334 0.36667,0 -0.74251,1.5 -2.46484,3.33334 C 243.611,266.5 241.90182,268 241.53516,268 c -0.36667,0 0.7425,-1.5 2.46484,-3.33333 z m 53.33333,-6.50342 c 0,-0.27686 1.05,-1.32686 2.33333,-2.33333 2.11475,-1.65849 2.16191,-1.61133 0.50341,0.50341 -1.74182,2.221 -2.83674,2.92731 -2.83674,1.82992 z m 1079.82987,-8.49658 c -1.6584,-2.11475 -1.6114,-2.16191 0.5034,-0.50342 2.221,1.74183 2.9274,2.83675 1.8299,2.83675 -0.2768,0 -1.3268,-1.05 -2.3333,-2.33333 z M 265.33333,243.58279 c 0,-0.22947 1.95,-2.17947 4.33333,-4.33334 l 4.33333,-3.91612 -3.91612,4.33334 c -3.65037,4.03928 -4.75054,4.9462 -4.75054,3.91612 z M 1405.1632,231 c -1.6584,-2.11475 -1.6114,-2.16191 0.5034,-0.50341 2.221,1.74182 2.9274,2.83674 1.8299,2.83674 -0.2768,0 -1.3268,-1.05 -2.3333,-2.33333 z"
         id="path1346" />
      <path
         style="fill:#1e2041;stroke-width:1.33333"
         d="m 278.49658,1444.3333 c -1.65849,-2.1148 -1.61133,-2.1618 0.50341,-0.5034 1.28334,1.0065 2.33334,2.0565 2.33334,2.3333 0,1.0975 -1.09492,0.3911 -2.83675,-1.8299 z m 1148.83672,-21.6666 c 5.8323,-5.8667 10.9041,-10.6667 11.2708,-10.6667 0.3667,0 -4.1052,4.8 -9.9375,10.6667 -5.8322,5.8666 -10.9041,10.6666 -11.2708,10.6666 -0.3666,0 4.1052,-4.8 9.9375,-10.6666 z m -1131.43423,-6.3334 -3.23241,-3.6666 3.66667,3.2324 c 3.42705,3.0212 4.27812,4.1009 3.23241,4.1009 -0.23883,0 -1.88883,-1.65 -3.66667,-3.6667 z m -61.40249,-16 c -1.65849,-2.1148 -1.61133,-2.1618 0.50342,-0.5034 2.221,1.7418 2.9273,2.8368 1.82992,2.8368 -0.27687,0 -1.32687,-1.05 -2.33334,-2.3334 z m 1218.83672,-4.8368 c 0,-0.2768 1.05,-1.3268 2.3333,-2.3333 2.1148,-1.6584 2.1619,-1.6113 0.5035,0.5035 -1.7419,2.2209 -2.8368,2.9273 -2.8368,1.8298 z M 262.56574,1383 l -3.23241,-3.6667 3.66666,3.2324 c 3.42706,3.0212 4.27812,4.101 3.23242,4.101 -0.23883,0 -1.88883,-1.65 -3.66667,-3.6667 z m 1164.10086,-6.1701 c 0,-0.2768 1.05,-1.3268 2.3334,-2.3334 2.1148,-1.6584 2.1618,-1.6113 0.5034,0.5035 -1.7418,2.2209 -2.8368,2.9273 -2.8368,1.8299 z m -612.10087,-112.4966 -3.23241,-3.6666 3.66666,3.2324 c 2.01667,1.7778 3.66667,3.4278 3.66667,3.6666 0,1.0458 -1.07973,0.1947 -4.10092,-3.2324 z m -24.64963,-24.6666 -3.91612,-4.3334 4.33334,3.9162 c 4.03928,3.6503 4.9462,4.7505 3.91612,4.7505 -0.22947,0 -2.17947,-1.95 -4.33334,-4.3333 z m 520.7505,-149.5034 c 0,-0.2769 1.05,-1.3269 2.3334,-2.3334 2.1147,-1.6585 2.1619,-1.6113 0.5034,0.5034 -1.7418,2.221 -2.8368,2.9273 -2.8368,1.83 z m -116,-9.3334 c 0,-0.2768 1.05,-1.3268 2.3334,-2.3333 2.1147,-1.6585 2.1619,-1.6113 0.5034,0.5034 -1.7418,2.221 -2.8368,2.9273 -2.8368,1.8299 z m 28,-28 c 0,-0.2768 1.05,-1.3268 2.3334,-2.3333 2.1147,-1.6585 2.1619,-1.6113 0.5034,0.5034 -1.7418,2.221 -2.8368,2.9273 -2.8368,1.8299 z m 94,-243.49657 C 1319.531,806.4 1322.1745,804 1322.5412,804 c 0.3666,0 -1.6769,2.4 -4.5412,5.33333 -2.8643,2.93334 -5.5079,5.33334 -5.8746,5.33334 -0.3666,0 1.6769,-2.4 4.5412,-5.33334 z m -972.83669,-7.66666 c -1.65849,-2.11475 -1.61133,-2.16191 0.50342,-0.50342 2.221,1.74183 2.9273,2.83675 1.82992,2.83675 -0.27687,0 -1.32687,-1.05 -2.33334,-2.33333 z M 1212.6666,796 c 1.3274,-1.46667 2.7133,-2.66667 3.08,-2.66667 0.3667,0 -0.4193,1.2 -1.7466,2.66667 -1.3273,1.46667 -2.7133,2.66667 -3.08,2.66667 -0.3667,0 0.4193,-1.2 1.7466,-2.66667 z m -884.12662,-9.66667 -2.53999,-3 3,2.53999 c 2.81926,2.38696 3.60699,3.46001 2.53999,3.46001 -0.25301,0 -1.60301,-1.35 -3,-3 z m 20.75483,-30 -8.62815,-9 9,8.62815 c 4.95,4.74548 9,8.79548 9,9 0,0.98136 -1.35765,-0.26856 -9.37185,-8.62815 z M 1377.3333,746 c 1.7223,-1.83333 3.4315,-3.33333 3.7981,-3.33333 0.3667,0 -0.7425,1.5 -2.4648,3.33333 -1.7222,1.83333 -3.4314,3.33333 -3.7981,3.33333 -0.3667,0 0.7425,-1.5 2.4648,-3.33333 z m 25.3333,-26.66667 C 1404.3889,717.5 1406.0981,716 1406.4648,716 c 0.3666,0 -0.7426,1.5 -2.4648,3.33333 -1.7223,1.83334 -3.4315,3.33334 -3.7982,3.33334 -0.3666,0 0.7426,-1.5 2.4648,-3.33334 z m 24,-25.33333 c 1.7223,-1.83333 3.4315,-3.33333 3.7982,-3.33333 0.3666,0 -0.7426,1.5 -2.4648,3.33333 -1.7223,1.83333 -3.4315,3.33333 -3.7982,3.33333 -0.3666,0 0.7426,-1.5 2.4648,-3.33333 z m -10.7384,-200.33333 -4.5949,-5 5,4.59489 c 4.6539,4.27681 5.6131,5.40511 4.5949,5.40511 -0.2228,0 -2.4728,-2.25 -5,-5 z m -72.0292,-80 -3.2324,-3.66667 3.6667,3.23241 c 2.0167,1.77784 3.6667,3.42784 3.6667,3.66667 0,1.04571 -1.0798,0.19464 -4.101,-3.23241 z M 725.33332,315.49659 c 0,-0.27687 1.05,-1.32687 2.33333,-2.33334 2.11475,-1.65849 2.16191,-1.61133 0.50342,0.50342 -1.74183,2.221 -2.83675,2.9273 -2.83675,1.82992 z M 254.66666,300.82992 c 0,-0.27687 1.05,-1.32687 2.33333,-2.33333 2.11475,-1.6585 2.16191,-1.61134 0.50342,0.50341 -1.74183,2.221 -2.83675,2.92731 -2.83675,1.82992 z m 1156.61654,-18.49659 -6.6166,-7 7,6.61655 c 3.85,3.63909 7,6.78909 7,7 0,0.99492 -1.2352,-0.112 -7.3834,-6.61655 z M 228,282.16325 c 0,-0.27686 1.05,-1.32686 2.33333,-2.33333 2.11475,-1.65849 2.16191,-1.61133 0.50341,0.50341 -1.74182,2.221 -2.83674,2.92731 -2.83674,1.82992 z m 1168.6165,-14.49658 -6.6165,-7 7,6.61654 c 3.85,3.6391 7,6.7891 7,7 0,0.99492 -1.2352,-0.112 -7.3835,-6.61654 z m 46.5901,1.33333 -2.54,-3 3,2.53999 c 2.8192,2.38696 3.607,3.46001 2.54,3.46001 -0.253,0 -1.603,-1.35 -3,-3 z M 255.99999,252.66667 C 260.72429,247.9 264.88962,244 265.25629,244 c 0.36666,0 -3.19867,3.9 -7.92296,8.66667 -4.72429,4.76666 -8.88963,8.66666 -9.25629,8.66666 -0.36667,0 3.19866,-3.9 7.92295,-8.66666 z m 45.33334,1.49658 c 0,-0.27686 1.05,-1.32686 2.33333,-2.33333 2.11475,-1.65849 2.16191,-1.61133 0.50341,0.50341 -1.74182,2.221 -2.83674,2.92731 -2.83674,1.82992 z m 1108.53997,-18.49658 -2.54,-3 3,2.53998 c 2.8192,2.38696 3.6069,3.46002 2.54,3.46002 -0.2531,0 -1.6031,-1.35 -3,-3 z m -16.7101,-15.33334 c -1.6584,-2.11474 -1.6114,-2.1619 0.5034,-0.50341 2.221,1.74183 2.9274,2.83675 1.8299,2.83675 -0.2768,0 -1.3268,-1.05 -2.3333,-2.33334 z"
         id="path1344" />
      <path
         style="fill:#0f1235;stroke-width:1.33333"
         d="m 798.66665,1664.4605 c -85.80636,-5.8186 -151.06464,-18.4794 -224.66666,-43.588 -154.80332,-52.8093 -293.13488,-153.1904 -392.50843,-284.826 -32.00034,-42.3894 -56.80294,-82.67 -80.89666,-131.3798 C 81.660198,1166.3867 70.510415,1139.5465 57.945735,1102 40.486814,1049.8282 28.937509,1000.6137 22.119062,949.33333 16.24876,905.18381 15.330952,889.83595 15.381553,836.66667 c 0.05031,-52.85315 1.442445,-74.63496 7.413925,-116 C 59.330876,467.58235 209.15464,247.06256 431.42418,119.22193 507.21322,75.631079 593.04616,43.476029 679.99999,26.099552 773.04448,7.5059424 871.42125,5.1616281 966.01617,19.283799 1212.0816,56.019155 1431.2032,204.7774 1557.2549,420.66667 1717.1794,694.56983 1706.0965,1037.2989 1528.8197,1300 c -66.5847,98.6696 -156.6297,184.554 -257.4864,245.5885 -115.463,69.8739 -241.3089,109.3112 -377.77272,118.3856 -18.31197,1.2178 -79.48577,1.5314 -94.89393,0.4864 z M 871.37921,1631 c -3.51372,-9.0485 -12.55263,-51.5005 -17.47256,-82.0613 -1.27455,-7.9171 -2.74281,-13.9171 -3.26281,-13.3334 -0.52,0.5838 -2.36599,6.3114 -4.10222,12.728 C 844.8054,1554.75 843.0215,1560 842.5774,1560 c -0.92526,0 -4.43654,-14.2007 -6.42879,-26 -0.74292,-4.4 -2.61459,-20.8083 -4.15927,-36.4629 -3.94105,-39.9408 -6.9751,-50.9647 -21.34021,-77.5371 -2.18043,-4.0333 -6.76848,-14.5333 -10.19567,-23.3333 -3.4272,-8.8 -6.34736,-16.1662 -6.48926,-16.3691 -0.14191,-0.2031 -5.89191,0.5445 -12.77778,1.6612 -6.88588,1.1168 -16.82154,2.0329 -22.07928,2.0359 h -9.55951 l -2.27576,7 c -2.72258,8.3742 -10.66668,24.7322 -13.60195,28.0081 -1.15392,1.2879 -1.85171,2.556 -1.55065,2.8181 0.30106,0.262 7.44738,2.7331 15.88072,5.4912 8.43333,2.7582 15.79495,5.4316 16.35915,5.9411 1.31838,1.1907 -2.43142,11.8747 -5.26758,15.0087 -3.23667,3.5764 -9.43813,2.9641 -24.03719,-2.3731 C 705.16469,1434.9667 695.51399,1432 689.85611,1432 c -13.14798,0 -20.55964,6.7604 -26.45827,24.1336 -2.12664,6.2636 -3.53195,12.2459 -3.12288,13.294 0.43535,1.1155 17.89607,7.5981 42.10988,15.6341 l 41.36613,13.7283 -1.35593,4.9384 c -2.18045,7.9413 -4.88281,12.1759 -8.32083,13.0388 -2.15782,0.5416 -15.90333,-3.4243 -41.91909,-12.0944 -21.28967,-7.0951 -39.32089,-12.5217 -40.06939,-12.0591 -0.7485,0.4626 -3.2458,6.787 -5.54954,14.0542 -4.8235,15.2158 -4.60043,19.4157 1.47681,27.8052 5.15915,7.122 9.32504,9.107 37.98699,18.1018 28.59197,8.9727 33.18249,11.0288 33.76348,15.123 0.57713,4.0668 -3.57843,16.3021 -5.53683,16.3021 -0.85747,0 -17.15856,-5.1997 -36.22464,-11.5549 l -34.6656,-11.5548 -6.86344,-7.03 c -8.88817,-9.1039 -13.92359,-19.4044 -14.75664,-30.1864 -0.59797,-7.7396 0.24291,-11.0784 11.67076,-46.3406 6.77335,-20.9 13.38353,-40.1308 14.68932,-42.735 5.64669,-11.262 20.21959,-21.265 34.94512,-23.9866 5.54604,-1.025 8.88895,-0.7989 16.28591,1.102 l 9.30745,2.392 2.29284,-9.0286 c 2.91277,-11.4698 10.26024,-26.2299 17.97511,-36.1098 l 6.01218,-7.6994 -2.2278,-6.3006 c -1.22529,-3.4653 -2.55216,-11.4149 -2.94858,-17.6657 -1.01975,-16.0787 0.4841,-17.6896 23.5556,-25.2317 9.56583,-3.1271 17.39242,-5.8686 17.39242,-6.0923 0,-0.2236 -1.49119,-6.0101 -3.31375,-12.8588 -1.82256,-6.8487 -4.48992,-17.9571 -5.92746,-24.6853 -4.78932,-22.4159 -44.14717,-117.3882 -55.02692,-132.7825 -5.68121,-8.0387 -6.07729,-1.8377 -1.58643,24.8367 1.0946,6.5016 1.73407,12.0772 1.42104,12.3903 -0.80936,0.8093 -19.97405,-50.8533 -28.2712,-76.2113 -3.83916,-11.7334 -12.99853,-36.0334 -20.35417,-54 -7.35564,-17.9667 -14.34361,-35.9667 -15.52884,-40 -3.02989,-10.31075 -5.81179,-28.38311 -6.83045,-44.37354 l -0.86808,-13.62649 13.94789,28 c 30.55151,61.33133 89.65519,163.98173 112.57353,195.51603 24.60155,33.8504 60.4042,81.9511 72.02113,96.7602 l 13.81378,17.6096 13.50601,-4.7012 c 90.28425,-31.4259 191.03787,-87.2231 288.22447,-159.6184 39.1318,-29.1497 57.6542,-45.8205 84.2291,-75.8092 36.2839,-40.9449 63.7136,-79.20749 115.9427,-161.73229 l 23.6123,-37.30857 -3.1256,-1.94493 c -11.5596,-7.19287 -24.7263,-26.68746 -30.4296,-45.05406 l -2.158,-6.94948 -36.3738,37.28282 c -37.8467,38.79249 -42.7012,42.61997 -40.945,32.28281 3.8883,-22.88743 19.1777,-52.98651 64.5123,-127 31.4566,-51.35635 45.348,-75.57367 57.0214,-99.40751 19.7892,-40.40421 25.8563,-67.86402 19.2792,-87.25916 -8.6677,-25.56026 -33.0357,-63.22708 -74.8649,-115.72204 l -14.5287,-18.23336 -21.6527,-12.52028 c -64.823,-37.48285 -91.1597,-50.94542 -128.9859,-65.9338 -96.5183,-38.24474 -250.41076,-62.91957 -329.33335,-52.8047 -14.17595,1.81681 -21.38888,3.46933 -37.33333,8.55322 -7.7,2.45515 -20.6,6 -28.66667,7.87744 -23.48988,5.46706 -36.42449,13.33767 -45.47152,27.6691 -1.95949,3.10402 -7.07112,15.20673 -11.35918,26.8949 -17.83016,48.60044 -31.43635,60.92227 -81.1693,73.50731 -40.34797,10.21016 -72.05371,14.04555 -116.10929,14.04555 -39.1622,0 -107.20735,-6.34227 -159.69419,-14.88458 -20.18951,-3.28586 -20.119,-3.07853 -3.86416,-11.36321 l 8.33432,-4.24777 59.33333,-1.45655 c 91.77337,-2.25291 156.5031,-5.89305 178.02918,-10.01168 12.24648,-2.34313 32.0116,-9.6442 51.0618,-18.86179 13.14096,-6.35836 15.52183,-8.02589 18.42524,-12.90482 1.83384,-3.08162 8.96677,-15.0994 15.85095,-26.70619 16.29172,-27.46797 25.67362,-40.54105 38.10349,-53.09472 8.68299,-8.76948 12.32325,-11.30944 25.37413,-17.70455 29.27599,-14.34562 61.19488,-19.90248 114.48853,-19.93165 47.52323,-0.026 96.09528,5.0028 146.84412,15.20317 51.9196,10.43571 78.2185,18.33504 120.0193,36.04996 14.1918,6.01438 37.2032,14.9807 51.1366,19.92515 13.9333,4.94445 29.9075,10.82847 35.4983,13.07559 52.2677,21.00816 97.93,48.3427 130.1086,77.88605 5.9555,5.46783 12.6715,10.705 14.9243,11.63815 2.6621,1.1027 6.9749,5.72701 12.3197,13.2097 25.5475,35.76642 55.7993,68.17662 79.3872,85.05115 11.7357,8.39565 14.4907,14.42028 14.234,31.12859 -0.1213,7.88018 -1.2075,16.46728 -2.8749,22.72437 -8.2728,31.04196 -29.4879,75.4044 -57.2427,119.69861 -4.7408,7.56598 -8.3521,14.02391 -8.0251,14.35096 0.3271,0.32706 6.5368,-2.16562 13.7994,-5.53928 7.2624,-3.37366 15.1834,-6.96309 17.6022,-7.97652 l 4.3979,-1.84258 -2.3979,3.03732 c -1.3188,1.67053 -16.1977,17.55737 -33.0644,35.30408 -16.8666,17.74672 -30.8426,33.06825 -31.0578,34.04786 -0.6162,2.8049 16.096,17.5646 27.4285,24.22416 14.5257,8.53603 15.1377,8.59416 21.0921,2.00323 6.8519,-7.58412 11.6128,-9.8542 18.3928,-8.77001 10.7067,1.71205 25.1878,13.88864 30.3228,25.4971 3.0576,6.91238 -1.0582,6.14623 53.2104,9.90474 37.3391,2.58601 54.8202,4.48369 57.7004,6.26374 0.7062,0.43647 -4.35,2.80347 -11.2358,5.26 -12.6398,4.50915 -18.9158,8.03279 -18.664,10.47888 0.083,0.80255 7.9676,1.49075 19.8073,1.72876 19.1168,0.38431 37.7673,-0.7547 64.8745,-3.96197 l 13.2046,-1.56233 -0.8687,-28.10223 C 1630.0717,587.37509 1528.9466,378.72691 1358,232.04428 1237.8955,128.98729 1085.2452,63.413296 926.66665,46.756371 885.60146,42.442925 829.24744,41.333924 789.10605,44.049292 581.18308,58.114256 387.99455,152.39979 249.24666,307.52731 91.507386,483.8882 21.238913,718.34367 55.377898,954.3834 c 11.560238,79.9285 35.267791,156.6094 71.245222,230.4393 17.75793,36.4414 31.50852,60.5988 52.65792,92.5106 30.50457,46.0277 60.37206,82.4448 100.65647,122.7292 40.28967,40.2896 76.71507,70.1632 122.72915,100.6538 97.9241,64.8881 207.13217,106.8422 322.28658,123.8118 41.64365,6.1368 71.16977,8.2994 117.52273,8.6072 27.89096,0.1852 29.75101,0.048 28.90324,-2.1353 z M 487.12583,900.04325 c -5.91947,-3.64286 -12.19439,-8.25056 -13.94425,-10.23932 -8.776,-9.97406 -14.00126,-13.9711 -26.68774,-20.41472 -7.60496,-3.86264 -17.42718,-9.27472 -21.82718,-12.02682 -4.4,-2.75211 -15.2,-9.21643 -24,-14.36516 C 366.79385,823.1788 340.56819,800.81519 315.06335,770 c -5.04889,-6.10012 -19.08173,-26.09515 -37.43024,-53.33333 -8.85421,-13.14402 -22.93241,-41.70127 -27.59674,-55.9793 -6.70623,-20.52849 -11.7798,-64.96894 -11.87557,-104.0207 -0.0612,-24.95228 1.83522,-38.10886 9.89784,-68.66667 6.01462,-22.79587 15.30059,-41.33333 20.70509,-41.33333 2.27924,0 2.3378,2.1097 0.56298,20.28104 -0.73696,7.54542 -1.6164,16.634 -1.95429,20.19682 l -0.61436,6.47788 6.28764,-0.88636 c 8.40297,-1.18454 19.36791,-6.59141 23.62348,-11.64888 6.45589,-7.67238 8.70591,-13.99206 10.49431,-29.4757 1.67956,-14.54135 3.58021,-20.9448 6.21674,-20.9448 4.94595,0 13.84026,17.55552 15.99124,31.56338 4.47858,29.16574 -12.18376,51.66643 -46.63562,62.97639 C 278.05557,526.74289 272.43529,528 270.24633,528 h -3.97992 l 0.80548,23.66667 c 2.39902,70.48874 21.79696,129.7388 57.78442,176.49977 19.01674,24.70973 35.96202,40.70804 80.67586,76.16731 30.97917,24.56732 50.66345,43.1417 66.05757,62.33292 9.32708,11.62768 23.63258,31.49614 27.60041,38.33333 1.71315,2.95201 -1.07336,1.80716 -12.06432,-4.95675 z m 721.45697,-29.46629 c -7.9014,-8.25159 -30.1376,-16.24048 -59.9162,-21.52627 -13.4976,-2.39588 -21.8679,-2.87748 -53.5199,-3.07929 -36.4452,-0.23239 -37.6599,-0.32573 -42.4063,-3.25915 -22.4511,-13.87552 -41.0874,-75.59294 -49.2776,-163.19164 -1.0874,-11.63032 -2.2334,-21.40226 -2.5465,-21.71544 -0.3132,-0.31316 -7.05111,7.85256 -14.97316,18.14606 -7.92205,10.29349 -14.46596,18.71544 -14.54201,18.71544 -0.22395,0 0.39858,-7.27114 5.30824,-62 9.94238,-110.82951 18.9161,-177.2085 24.19453,-178.96798 3.0505,-1.01681 5.0104,13.13508 11.7393,84.7658 5.6012,59.62564 8.9889,89.40952 13.5205,118.86884 11.096,72.13387 25.5953,115.66514 43.8891,131.7679 14.6974,12.93722 58.5369,25.59629 88.4552,25.54229 30.7829,-0.0556 52.3349,-10.42603 64.0217,-30.80615 l 4.1119,-7.1707 0.01,11.33333 c 0.022,31.60833 -4.4159,72.89027 -8.8369,82.20683 -2.6165,5.51388 -4.2419,5.57906 -9.2297,0.37013 z M 709.81276,524.11416 c -5.23631,-1.42239 -14.76799,-3.62829 -21.18149,-4.90201 -10.55179,-2.09556 -11.42174,-2.49399 -9.14611,-4.1889 2.05929,-1.53378 7.10367,-1.70653 27.84816,-0.95372 22.05764,0.80048 26.02295,0.63078 30.66667,-1.31248 6.96118,-2.91305 12.17242,-7.96802 16.05265,-15.57128 2.98841,-5.85576 3.04807,-6.4859 1.25693,-13.27578 -2.5175,-9.54342 -11.62962,-28.13918 -22.1697,-45.24332 -4.74498,-7.7 -9.08575,-14.76258 -9.64618,-15.69462 -1.15833,-1.9264 7.65859,-6.24932 10.5124,-5.15421 2.08215,0.799 13.90148,18.6402 23.20314,35.02496 11.96337,21.07335 25.52222,54.48295 23.46323,57.81445 -0.4767,0.77134 -4.37585,3.17382 -8.66477,5.33886 -18.85772,9.51934 -44.64521,12.88528 -62.19493,8.11805 z m -15.643,-25.5166 c -4.30663,-0.66505 -8.60391,-1.85129 -9.54952,-2.63608 -5.78449,-4.80071 -5.96573,-30.94003 -0.29095,-41.96148 5.5738,-10.82528 19.39844,-22 27.217,-22 3.77455,0 4.81038,0.905 9.07951,7.93275 11.74325,19.33148 19.2408,40.93076 16.22657,46.74622 -0.83548,1.61191 -5.04164,5.10306 -9.34701,7.75808 -6.70199,4.13298 -9.09932,4.86635 -16.66667,5.09851 -4.86129,0.14915 -12.3623,-0.27296 -16.66893,-0.938 z M 940.03979,1627.2887 c 153.45091,-18.8704 292.99861,-79.8379 415.29351,-181.4392 22.3809,-18.5939 74.6575,-70.7631 94.0424,-93.8495 108.6777,-129.4289 172.2389,-283.7008 185.974,-451.38555 l 0.878,-10.71888 -37.7805,-1.62249 c -54.6595,-2.34737 -101.1086,-7.39419 -138.0946,-15.00436 -6.9554,-1.43113 -13.3844,-2.60205 -14.2866,-2.60205 -0.9023,0 -4.2219,6.15 -7.3771,13.66666 -16.772,39.95651 -45.3228,93.12864 -69.9825,130.33337 -38.8012,58.54 -73.8754,97.1618 -122.5849,134.9835 -119.6393,92.897 -253.04455,167.321 -372.33593,207.7186 -12.67855,4.2935 -27.71699,9.1084 -33.41875,10.6996 -5.70176,1.5913 -10.77197,3.1345 -11.26714,3.4295 -0.7757,0.462 3.56272,10.2181 18.30733,41.1688 1.74676,3.6666 10.36833,16.2238 19.15907,27.905 22.77353,30.2614 23.26909,31.3524 29.58457,65.129 6.98091,37.3354 16.55219,94.3637 18.56789,110.6326 1.88874,15.244 -0.64361,14.1483 25.32125,10.9554 z M 821.33332,1290.9744 c 8.43333,-2.6269 15.59254,-4.98 15.90934,-5.2291 0.31682,-0.2491 -5.08318,-5.6311 -12,-11.96 -6.9168,-6.329 -18.42869,-17.5171 -25.58197,-24.8625 -7.15327,-7.3454 -13.35005,-13.0112 -13.77063,-12.5907 -0.42057,0.4206 0.72304,6.9679 2.54136,14.5496 1.81831,7.5818 4.64754,19.785 6.28716,27.1183 4.161,18.6103 4.64531,19.6998 8.28244,18.6315 1.64943,-0.4844 9.89896,-3.0301 18.3323,-5.6571 z"
         id="path1342" />
    </g>
  </g>
</svg>
