<?xml version="1.0" encoding="UTF-8" standalone="no"?>
<!-- Created with Inkscape (http://www.inkscape.org/) -->

<svg
   xmlns:dc="http://purl.org/dc/elements/1.1/"
   xmlns:cc="http://creativecommons.org/ns#"
   xmlns:rdf="http://www.w3.org/1999/02/22-rdf-syntax-ns#"
   xmlns:svg="http://www.w3.org/2000/svg"
   xmlns="http://www.w3.org/2000/svg"
   xmlns:sodipodi="http://sodipodi.sourceforge.net/DTD/sodipodi-0.dtd"
   xmlns:inkscape="http://www.inkscape.org/namespaces/inkscape"
   version="1.1"
   id="svg2"
   xml:space="preserve"
   viewBox="0 0 589.58002 200.50667"
   sodipodi:docname="ercole.svg"
   inkscape:version="0.92.4 (5da689c313, 2019-01-14)"><metadata
     id="metadata8"><rdf:RDF><cc:Work
         rdf:about=""><dc:format>image/svg+xml</dc:format><dc:type
           rdf:resource="http://purl.org/dc/dcmitype/StillImage" /><dc:title></dc:title></cc:Work></rdf:RDF></metadata><defs
     id="defs6"><clipPath
       clipPathUnits="userSpaceOnUse"
       id="clipPath18"><path
         d="M 0,150.38 H 442.185 V 0 H 0 Z"
         id="path16"
         inkscape:connector-curvature="0" /></clipPath></defs><sodipodi:namedview
     pagecolor="#ffffff"
     bordercolor="#666666"
     borderopacity="1"
     objecttolerance="10"
     gridtolerance="10"
     guidetolerance="10"
     inkscape:pageopacity="0"
     inkscape:pageshadow="2"
     inkscape:window-width="1920"
     inkscape:window-height="1001"
     id="namedview4"
     showgrid="false"
     inkscape:zoom="0.77343191"
     inkscape:cx="294.79001"
     inkscape:cy="100.25333"
     inkscape:window-x="-9"
     inkscape:window-y="-9"
     inkscape:window-maximized="1"
     inkscape:current-layer="g10" /><g
     id="g10"
     inkscape:groupmode="layer"
     inkscape:label="ercole-svg"
     transform="matrix(1.3333333,0,0,-1.3333333,0,200.50667)"><g
       id="g12"><g
         id="g14"
         clip-path="url(#clipPath18)"><g
           id="g20"
           transform="translate(44.702,131.4785)"><path
             d="m 0,0 c -22.755,0 -41.268,-18.512 -41.268,-41.268 0,-22.754 18.513,-41.267 41.268,-41.267 22.755,0 41.268,18.513 41.268,41.267 C 41.268,-18.512 22.755,0 0,0"
             style="fill:#f37731;fill-opacity:1;fill-rule:nonzero;stroke:none"
             id="path22"
             inkscape:connector-curvature="0" /></g><g
           id="g24"
           transform="translate(6.2001,104.9624)"><path
             d="m 0,0 c -4,0 -6.2,2 -6.2,5.6 0,3.5 2.3,5.8 6.2,5.6 2.6,-0.1 3.7,0.4 4,3.4 0.5,5.2 1.7,10.3 3.8,15.2 3.2,7.1 8.5,11.6 15.9,13.6 9.2,2.6 18.6,2.6 27.9,0.5 12.3,-2.7 18.1,-11.4 20.3,-23 0.5,-2.5 1,-5.1 1.2,-7.6 0.2,-1.6 0.8,-2.2 2.3,-2 0.6,0.1 1.2,0 1.9,0 3.8,-0.1 5.9,-2 5.9,-5.6 C 83.3,2.1 81.3,0 77.5,0 72.3,-0.1 12.7,0 0,0"
             style="fill:#000000;fill-opacity:1;fill-rule:nonzero;stroke:none"
             id="path26"
             inkscape:connector-curvature="0" /></g><g
           id="g28"
           transform="translate(19.1,122.0625)"><path
             d="m 0,0 c 1.2,1.4 1.6,3 1.8,4.5 0.7,4.8 3.3,8 7.8,9.9 0.7,0.3 1.3,0.6 1.9,1.1 1.7,1.4 4.4,2.7 2.9,5.3 -1.4,2.4 -4,0.8 -5.8,-0.1 C 1.7,17.3 -2,8.5 0,0"
             style="fill:#ffffff;fill-opacity:1;fill-rule:nonzero;stroke:none"
             id="path30"
             inkscape:connector-curvature="0" /></g><g
           id="g32"
           transform="translate(10.0936,102.4937)"><path
             d="m 0,0 c 0.369,-0.187 0.709,-0.211 1.035,-0.153 0.488,0.086 0.934,0.416 1.188,0.881 2.909,5.888 10.12,8.335 16.007,5.426 0.834,-0.441 1.783,-0.106 2.224,0.728 0.441,0.833 0.105,1.782 -0.728,2.223 C 12.185,12.814 3.063,9.778 -0.728,2.223 -1.169,1.39 -0.819,0.359 0,0"
             style="fill:#9c4d1e;fill-opacity:1;fill-rule:nonzero;stroke:none"
             id="path34"
             inkscape:connector-curvature="0" /></g><g
           id="g36"
           transform="translate(79.31,102.4937)"><path
             d="m 0,0 c -0.369,-0.187 -0.709,-0.211 -1.035,-0.153 -0.488,0.086 -0.934,0.416 -1.188,0.881 -2.909,5.888 -10.12,8.335 -16.007,5.426 -0.834,-0.441 -1.783,-0.106 -2.224,0.728 -0.441,0.833 -0.105,1.782 0.728,2.223 7.541,3.709 16.663,0.673 20.454,-6.882 C 1.169,1.39 0.819,0.359 0,0"
             style="fill:#9c4d1e;fill-opacity:1;fill-rule:nonzero;stroke:none"
             id="path38"
             inkscape:connector-curvature="0" /></g><g
           id="g40"
           transform="translate(82.6854,65.8447)"><path
             d="M 0,0 C 5.694,-7.018 -1.052,-12.844 -6.324,-11.105 -18.091,-6.986 -18.016,6.331 -28.46,6.331 h -0.107 C -31.592,6.283 -34.27,4.834 -35.983,2.615 v 5.396 c 7.442,0.11 13.498,6.223 13.498,13.691 v 1.423 c 0,2.567 -2.08,4.648 -4.648,4.648 h -21.701 c -2.568,0 -4.648,-2.081 -4.648,-4.648 v -1.423 c 0,-7.468 6.055,-13.58 13.499,-13.692 V 2.691 c -1.723,2.176 -4.379,3.59 -7.374,3.633 h -0.076 c -10.476,0 -10.368,-13.316 -22.135,-17.435 -5.273,-1.733 -12.026,4.093 -6.331,11.111 -10.192,-6.293 -8.957,-22.016 12.655,-22.016 5.564,0 9.932,0.628 13.363,1.557 v -3.082 c 0,-6.561 5.337,-11.897 11.898,-11.897 6.56,0 11.897,5.336 11.897,11.897 v 3.051 c 3.392,-0.912 7.713,-1.526 13.217,-1.526 C 8.743,-22.016 10.199,-6.293 0,0"
             style="fill:#000000;fill-opacity:1;fill-rule:nonzero;stroke:none"
             id="path42"
             inkscape:connector-curvature="0" /></g><g
           id="g44"
           transform="translate(22.9516,109.918)"><path
             d="m 0,0 c -6.5,0 -11.7,-5.2 -11.7,-11.7 0,-6.5 5.2,-11.7 11.7,-11.7 6.5,0 11.7,5.2 11.7,11.7 C 11.7,-5.2 6.4,0 0,0"
             style="fill:#000000;fill-opacity:1;fill-rule:nonzero;stroke:none"
             id="path46"
             inkscape:connector-curvature="0" /></g><g
           id="g48"
           transform="translate(57.4516,95.8369)"><path
             d="M 0,0 1.9,0.9 10.2,4.8 18.5,0.9 20.4,0 c 0.1,-0.1 0.3,-0.1 0.4,-0.1 0.4,0 0.7,0.2 0.9,0.6 0.2,0.5 0,1.1 -0.5,1.3 L 10.1,7 -1,1.8 C -1.5,1.6 -1.7,1 -1.5,0.5 -1.1,-0.1 -0.6,-0.3 0,0"
             style="fill:#000000;fill-opacity:1;fill-rule:nonzero;stroke:none"
             id="path50"
             inkscape:connector-curvature="0" /></g><g
           id="g52"
           transform="translate(22.9516,88.5181)"><path
             d="m 0,0 c -5.3,0 -9.7,4.4 -9.7,9.7 0,5.3 4.4,9.7 9.7,9.7 C 5.3,19.4 9.7,15 9.7,9.7 9.7,4.4 5.3,0 0,0"
             style="fill:#9c4d1e;fill-opacity:1;fill-rule:nonzero;stroke:none"
             id="path54"
             inkscape:connector-curvature="0" /></g><g
           id="g56"
           transform="translate(22.9516,102.8184)"><path
             d="m 0,0 c -2.5,0 -4.6,-2.1 -4.6,-4.6 0,-2.5 2.1,-4.6 4.6,-4.6 2.5,0 4.6,2.1 4.6,4.6 C 4.6,-2.1 2.5,0 0,0"
             style="fill:#000000;fill-opacity:1;fill-rule:nonzero;stroke:none"
             id="path58"
             inkscape:connector-curvature="0" /></g><g
           id="g60"
           transform="translate(21.5517,99.2183)"><path
             d="M 0,0 C -0.3,0 -0.6,0.3 -0.6,0.6 -0.6,0.9 -0.3,1.2 0,1.2 0.3,1.2 0.6,0.9 0.6,0.6 0.6,0.3 0.3,0 0,0"
             style="fill:#182033;fill-opacity:1;fill-rule:nonzero;stroke:none"
             id="path62"
             inkscape:connector-curvature="0" /></g><g
           id="g64"
           transform="translate(23.3519,96.3184)"><path
             d="M 0,0 C -0.7,0 -1.3,0.6 -1.3,1.3 -1.3,2 -0.7,2.6 0,2.6 0.7,2.6 1.3,2 1.3,1.3 1.3,0.6 0.8,0 0,0"
             style="fill:#182033;fill-opacity:1;fill-rule:nonzero;stroke:none"
             id="path66"
             inkscape:connector-curvature="0" /></g><g
           id="g68"
           transform="translate(52.599,42.3027)"><path
             d="m 0,0 c 0,-4.354 -3.543,-7.896 -7.897,-7.896 -4.354,0 -7.897,3.542 -7.897,7.896 v 6.476 c 2.302,1.284 4.302,3.034 5.897,5.114 V 0.304 c 0,-1.105 0.896,-2 2,-2 1.104,0 2,0.895 2,2 v 11.269 c 0.324,-0.423 0.666,-0.832 1.024,-1.226 0.039,-0.044 0.081,-0.085 0.12,-0.128 0.436,-0.472 0.892,-0.922 1.373,-1.349 0.015,-0.013 0.031,-0.025 0.046,-0.039 1,-0.878 2.094,-1.65 3.267,-2.305 C -0.044,6.514 -0.023,6.497 0,6.484 Z"
             style="fill:#f37731;fill-opacity:1;fill-rule:nonzero;stroke:none"
             id="path70"
             inkscape:connector-curvature="0" /></g><g
           id="g72"
           transform="translate(113.9423,44.9297)"><path
             d="M 0,0 H 39.802 V 7.1 H 7.4 v 15.901 h 27.802 v 6.4 H 7.4 v 33.402 h 32.402 v 7.101 H 0 Z"
             style="fill:#000000;fill-opacity:1;fill-rule:nonzero;stroke:none"
             id="path74"
             inkscape:connector-curvature="0" /></g><g
           id="g76"
           transform="translate(187.4423,71.0313)"><path
             d="M 0,0 H -15.701 V 36.701 H 1 c 10.101,-1.299 14.4,-9 14.4,-18.1 C 15.4,9.4 9.9,0.6 0,0 M 22.602,17.9 C 22.602,33.102 14.2,43.402 1,43.803 v 0.099 h -14.102 -1.599 -8.101 v -70.004 h 7.101 v 18.901 h 13.4 2.401 l 13.3,-18.602 h 8.801 L 7.9,-5.801 c 1.201,0.5 1.701,0.7 1.701,0.7 C 18.001,-1 22.602,7.6 22.602,17.9"
             style="fill:#000000;fill-opacity:1;fill-rule:nonzero;stroke:none"
             id="path78"
             inkscape:connector-curvature="0" /></g><g
           id="g80"
           transform="translate(359.1483,114.834)"><path
             d="m 0,0 h -7.301 v -69.904 h 3 6.501 30.102 v 7.599 l -32.302,0 z"
             style="fill:#000000;fill-opacity:1;fill-rule:nonzero;stroke:none"
             id="path82"
             inkscape:connector-curvature="0" /></g><g
           id="g84"
           transform="translate(441.8495,107.7324)"><path
             d="M 0,0 V 7.102 H -39.803 V -62.803 H 0 v 7.1 h -32.402 v 15.901 h 27.801 v 6.401 H -32.402 V 0 Z"
             style="fill:#000000;fill-opacity:1;fill-rule:nonzero;stroke:none"
             id="path86"
             inkscape:connector-curvature="0" /></g><path
           d="m 294.839,45.139 h 39.685 v 7.303 h -39.685 z"
           style="fill:#000000;fill-opacity:1;fill-rule:nonzero;stroke:none"
           id="path88"
           inkscape:connector-curvature="0" /><g
           id="g90"
           transform="translate(314.6815,66.7432)"><path
             d="m 0,0 c -11.604,0 -21.045,9.44 -21.045,21.044 0,11.604 9.441,21.044 21.045,21.044 11.604,0 21.044,-9.44 21.044,-21.044 C 21.044,9.44 11.604,0 0,0 m 0,49.391 c -15.656,0 -28.347,-12.692 -28.347,-28.347 0,-15.655 12.691,-28.347 28.347,-28.347 15.655,0 28.346,12.692 28.346,28.347 0,15.655 -12.691,28.347 -28.346,28.347"
             style="fill:#000000;fill-opacity:1;fill-rule:nonzero;stroke:none"
             id="path92"
             inkscape:connector-curvature="0" /></g><g
           id="g94"
           transform="translate(251.2411,50.8301)"><path
             d="m 0,0 c -12.5,0 -26.001,12.2 -26.001,29.201 0,13.401 10.5,29.201 26.001,29.201 8.9,0 17.901,-4.699 22.802,-11.7 l 6.301,3.401 C 22.502,59.203 12.101,65.304 0,65.304 -19.601,65.304 -33.502,49.103 -33.502,29.201 -33.502,9.3 -19.601,-7.001 0,-7.001 c 12.801,0 23.901,6.7 30.302,16.802 l -7.8,2.899 C 18.102,5.9 10.401,0 0,0"
             style="fill:#000000;fill-opacity:1;fill-rule:nonzero;stroke:none"
             id="path96"
             inkscape:connector-curvature="0" /></g><g
           id="g98"
           transform="translate(39.6874,9.3643)"><path
             d="M 0,0 C 0,0.505 -0.056,0.986 -0.168,1.443 -0.279,1.9 -0.452,2.305 -0.686,2.652 -0.919,3.002 -1.215,3.277 -1.573,3.482 -1.932,3.688 -2.36,3.789 -2.858,3.789 -3.429,3.789 -3.906,3.656 -4.293,3.392 -4.681,3.126 -4.989,2.785 -5.219,2.369 v -4.998 c 0.23,-0.41 0.537,-0.744 0.921,-1.003 0.384,-0.259 0.869,-0.389 1.458,-0.389 0.492,0 0.918,0.105 1.277,0.312 0.358,0.208 0.652,0.488 0.882,0.84 0.231,0.351 0.402,0.758 0.513,1.219 C -0.056,-1.189 0,-0.707 0,-0.201 Z M 1.775,-0.201 C 1.775,-0.943 1.686,-1.637 1.507,-2.279 1.327,-2.922 1.065,-3.48 0.72,-3.953 0.375,-4.427 -0.053,-4.798 -0.561,-5.066 -1.069,-5.335 -1.65,-5.469 -2.303,-5.469 c -0.633,0 -1.191,0.102 -1.674,0.307 -0.483,0.205 -0.897,0.499 -1.242,0.883 v -4.99 H -6.994 V 5.104 h 1.621 l 0.087,-1.131 c 0.346,0.427 0.763,0.756 1.252,0.982 0.489,0.228 1.056,0.341 1.703,0.341 0.665,0 1.254,-0.131 1.766,-0.394 C -0.054,4.641 0.375,4.275 0.72,3.809 1.065,3.342 1.327,2.783 1.507,2.135 1.686,1.485 1.775,0.773 1.775,0 Z"
             style="fill:#f37731;fill-opacity:1;fill-rule:nonzero;stroke:none"
             id="path100"
             inkscape:connector-curvature="0" /></g><g
           id="g102"
           transform="translate(51.2977,14.6602)"><path
             d="m 0,0 c 0.166,0 0.339,-0.005 0.518,-0.015 0.179,-0.009 0.35,-0.025 0.513,-0.047 0.163,-0.023 0.314,-0.05 0.451,-0.082 0.137,-0.032 0.251,-0.067 0.34,-0.105 L 1.583,-1.985 c -0.346,0.076 -0.674,0.131 -0.983,0.168 -0.311,0.034 -0.635,0.052 -0.974,0.052 -0.832,0 -1.505,-0.189 -2.021,-0.566 -0.514,-0.378 -0.893,-0.906 -1.136,-1.584 v -6.658 h -1.784 v 10.381 h 1.688 l 0.086,-1.65 c 0.423,0.57 0.93,1.019 1.521,1.348 C -1.429,-0.165 -0.755,0 0,0"
             style="fill:#f37731;fill-opacity:1;fill-rule:nonzero;stroke:none"
             id="path104"
             inkscape:connector-curvature="0" /></g><g
           id="g106"
           transform="translate(57.5634,9.1631)"><path
             d="m 0,0 c 0,-0.512 0.061,-1 0.182,-1.464 0.122,-0.464 0.305,-0.872 0.551,-1.224 0.246,-0.351 0.555,-0.629 0.926,-0.833 0.371,-0.206 0.803,-0.308 1.296,-0.308 0.485,0 0.913,0.102 1.28,0.308 0.369,0.204 0.675,0.482 0.921,0.833 0.247,0.352 0.431,0.76 0.552,1.224 C 5.83,-1 5.891,-0.512 5.891,0 V 0.211 C 5.891,0.716 5.828,1.2 5.703,1.664 5.579,2.128 5.394,2.535 5.147,2.888 4.9,3.239 4.594,3.52 4.226,3.727 3.858,3.935 3.428,4.039 2.936,4.039 2.443,4.039 2.015,3.935 1.649,3.727 1.285,3.52 0.979,3.239 0.733,2.888 0.487,2.535 0.304,2.128 0.182,1.664 0.061,1.2 0,0.716 0,0.211 Z m -1.775,0.211 c 0,0.748 0.108,1.443 0.326,2.086 0.218,0.643 0.529,1.201 0.935,1.675 0.407,0.473 0.901,0.845 1.483,1.118 0.582,0.271 1.237,0.407 1.967,0.407 0.735,0 1.396,-0.136 1.981,-0.407 C 5.502,4.817 5.998,4.445 6.404,3.972 6.811,3.498 7.122,2.94 7.34,2.297 7.557,1.654 7.666,0.959 7.666,0.211 V 0 C 7.666,-0.749 7.557,-1.443 7.34,-2.082 7.122,-2.723 6.811,-3.279 6.404,-3.752 5.998,-4.226 5.504,-4.597 4.922,-4.865 4.34,-5.134 3.684,-5.268 2.955,-5.268 c -0.736,0 -1.396,0.134 -1.981,0.403 -0.586,0.268 -1.081,0.639 -1.488,1.113 -0.406,0.473 -0.717,1.029 -0.935,1.67 -0.218,0.639 -0.326,1.333 -0.326,2.082 z"
             style="fill:#f37731;fill-opacity:1;fill-rule:nonzero;stroke:none"
             id="path108"
             inkscape:connector-curvature="0" /></g><g
           id="g110"
           transform="translate(71.7626,5.4404)"><path
             d="m 0,0 c 0.346,0 0.668,0.044 0.969,0.134 0.301,0.089 0.574,0.208 0.82,0.354 0.247,0.148 0.459,0.316 0.639,0.504 0.178,0.19 0.319,0.385 0.422,0.59 V 3.684 H 1.199 C 0.163,3.684 -0.643,3.53 -1.219,3.223 -1.794,2.916 -2.082,2.434 -2.082,1.774 c 0,-0.255 0.043,-0.493 0.13,-0.71 C -1.866,0.847 -1.736,0.66 -1.563,0.503 -1.392,0.346 -1.174,0.223 -0.911,0.134 -0.649,0.044 -0.346,0 0,0 M 3.138,-1.354 C 3.067,-1.219 3.011,-1.051 2.97,-0.85 2.928,-0.648 2.897,-0.439 2.879,-0.221 2.699,-0.4 2.5,-0.57 2.279,-0.73 2.059,-0.89 1.815,-1.031 1.55,-1.152 1.284,-1.273 1.001,-1.369 0.7,-1.439 0.399,-1.51 0.08,-1.545 -0.259,-1.545 c -0.551,0 -1.048,0.08 -1.492,0.239 -0.444,0.16 -0.822,0.376 -1.132,0.648 -0.31,0.271 -0.551,0.596 -0.72,0.969 -0.169,0.375 -0.254,0.779 -0.254,1.214 0,0.569 0.114,1.069 0.34,1.496 0.228,0.429 0.549,0.786 0.965,1.071 0.415,0.284 0.916,0.497 1.501,0.637 C -0.465,4.87 0.188,4.94 0.911,4.94 H 2.85 V 5.756 C 2.85,6.069 2.792,6.352 2.677,6.601 2.562,6.85 2.398,7.062 2.188,7.238 1.977,7.414 1.719,7.551 1.415,7.646 1.111,7.742 0.771,7.79 0.394,7.79 0.042,7.79 -0.273,7.746 -0.552,7.656 -0.83,7.566 -1.064,7.447 -1.257,7.301 -1.448,7.154 -1.598,6.979 -1.703,6.777 -1.809,6.576 -1.861,6.367 -1.861,6.149 h -1.785 c 0.006,0.378 0.104,0.749 0.292,1.114 0.189,0.364 0.461,0.692 0.816,0.983 0.355,0.291 0.787,0.525 1.296,0.705 0.508,0.18 1.086,0.269 1.731,0.269 C 1.078,9.22 1.625,9.148 2.13,9.004 2.636,8.859 3.072,8.643 3.439,8.352 3.808,8.061 4.097,7.697 4.309,7.263 4.52,6.828 4.625,6.318 4.625,5.736 V 0.91 c 0,-0.345 0.031,-0.711 0.096,-1.097 0.063,-0.387 0.153,-0.725 0.268,-1.013 v -0.154 z"
             style="fill:#f37731;fill-opacity:1;fill-rule:nonzero;stroke:none"
             id="path112"
             inkscape:connector-curvature="0" /></g><g
           id="g114"
           transform="translate(84.2938,5.334)"><path
             d="m 0,0 c 0.319,0 0.631,0.052 0.936,0.153 0.303,0.103 0.573,0.245 0.81,0.428 0.236,0.182 0.427,0.397 0.57,0.643 0.145,0.246 0.22,0.513 0.226,0.8 h 1.68 C 4.215,1.563 4.095,1.124 3.861,0.706 3.628,0.286 3.316,-0.081 2.926,-0.397 2.536,-0.714 2.088,-0.968 1.583,-1.155 1.077,-1.345 0.55,-1.438 0,-1.438 c -0.787,0 -1.475,0.14 -2.063,0.421 -0.588,0.282 -1.08,0.661 -1.473,1.137 -0.394,0.477 -0.69,1.027 -0.888,1.651 -0.198,0.623 -0.297,1.281 -0.297,1.971 v 0.404 c 0,0.683 0.099,1.339 0.297,1.966 0.198,0.627 0.494,1.178 0.888,1.655 0.393,0.476 0.885,0.855 1.473,1.137 C -1.475,9.186 -0.787,9.326 0,9.326 0.613,9.326 1.178,9.229 1.693,9.034 2.208,8.839 2.652,8.573 3.026,8.237 3.401,7.901 3.693,7.503 3.904,7.043 4.116,6.582 4.222,6.089 4.222,5.565 H 2.542 C 2.536,5.878 2.467,6.175 2.336,6.452 2.205,6.731 2.027,6.976 1.804,7.187 1.579,7.397 1.312,7.563 1.002,7.686 0.692,7.808 0.357,7.868 0,7.868 -0.551,7.868 -1.013,7.758 -1.387,7.537 -1.761,7.316 -2.063,7.028 -2.294,6.673 -2.523,6.318 -2.688,5.921 -2.788,5.479 -2.887,5.038 -2.937,4.593 -2.937,4.146 V 3.742 c 0,-0.454 0.05,-0.903 0.149,-1.348 0.1,-0.444 0.263,-0.844 0.49,-1.2 C -2.071,0.84 -1.771,0.552 -1.396,0.331 -1.022,0.11 -0.557,0 0,0"
             style="fill:#f37731;fill-opacity:1;fill-rule:nonzero;stroke:none"
             id="path116"
             inkscape:connector-curvature="0" /></g><g
           id="g118"
           transform="translate(95.8651,16.9824)"><path
             d="M 0,0 V -2.515 H 3.953 V -3.886 H 0 v -5.642 c 0,-0.403 0.051,-0.735 0.153,-0.997 0.103,-0.263 0.243,-0.472 0.422,-0.629 0.179,-0.158 0.386,-0.267 0.619,-0.331 0.234,-0.065 0.482,-0.096 0.743,-0.096 0.193,0 0.391,0.012 0.595,0.033 0.205,0.024 0.406,0.05 0.601,0.082 0.194,0.031 0.377,0.066 0.547,0.101 0.169,0.035 0.307,0.065 0.417,0.091 l 0.249,-1.256 c -0.147,-0.09 -0.326,-0.168 -0.537,-0.237 -0.211,-0.066 -0.442,-0.124 -0.691,-0.171 -0.25,-0.049 -0.514,-0.085 -0.792,-0.111 -0.278,-0.026 -0.555,-0.038 -0.83,-0.038 -0.46,0 -0.891,0.065 -1.29,0.196 -0.4,0.131 -0.747,0.339 -1.041,0.624 -0.294,0.285 -0.526,0.653 -0.695,1.104 -0.17,0.45 -0.255,0.996 -0.255,1.635 v 5.642 H -4.51 v 1.371 h 2.725 V 0 Z"
             style="fill:#f37731;fill-opacity:1;fill-rule:nonzero;stroke:none"
             id="path120"
             inkscape:connector-curvature="0" /></g><g
           id="g122"
           transform="translate(107.0331,17.1934)"><path
             d="M 0,0 C 0,0.294 0.088,0.542 0.264,0.743 0.439,0.944 0.707,1.046 1.065,1.046 1.417,1.046 1.683,0.944 1.861,0.743 2.04,0.542 2.13,0.294 2.13,0 2.13,-0.288 2.04,-0.528 1.861,-0.72 1.683,-0.911 1.417,-1.007 1.065,-1.007 0.707,-1.007 0.439,-0.911 0.264,-0.72 0.088,-0.528 0,-0.288 0,0 m -3.301,-2.726 h 5.306 v -8.845 h 3.388 v -1.535 h -8.694 v 1.535 H 0.23 v 7.301 h -3.531 z"
             style="fill:#f37731;fill-opacity:1;fill-rule:nonzero;stroke:none"
             id="path124"
             inkscape:connector-curvature="0" /></g><g
           id="g126"
           transform="translate(119.3143,6.6396)"><path
             d="M 0,0 0.163,-0.644 0.336,0 3.243,7.828 H 5.057 L 0.825,-2.553 h -1.352 l -4.27,10.381 h 1.822 z"
             style="fill:#f37731;fill-opacity:1;fill-rule:nonzero;stroke:none"
             id="path128"
             inkscape:connector-curvature="0" /></g><g
           id="g130"
           transform="translate(131.3944,13.2021)"><path
             d="M 0,0 C -0.358,0 -0.697,-0.066 -1.018,-0.197 -1.337,-0.328 -1.625,-0.52 -1.881,-0.772 -2.137,-1.025 -2.353,-1.336 -2.528,-1.703 -2.704,-2.071 -2.827,-2.495 -2.897,-2.975 H 2.687 V -2.84 C 2.667,-2.495 2.602,-2.152 2.489,-1.813 2.378,-1.475 2.213,-1.171 1.995,-0.902 1.778,-0.633 1.505,-0.416 1.175,-0.25 0.846,-0.084 0.454,0 0,0 m 0.23,-9.307 c -0.729,0 -1.399,0.124 -2.01,0.373 -0.611,0.25 -1.134,0.599 -1.569,1.047 -0.435,0.448 -0.774,0.979 -1.017,1.592 -0.243,0.615 -0.364,1.283 -0.364,2.006 v 0.402 c 0,0.838 0.134,1.588 0.403,2.25 0.268,0.662 0.625,1.223 1.069,1.68 0.445,0.457 0.95,0.808 1.517,1.051 0.565,0.242 1.146,0.364 1.741,0.364 0.748,0 1.402,-0.13 1.962,-0.389 C 2.521,0.811 2.987,0.452 3.358,-0.005 3.729,-0.463 4.006,-1.002 4.187,-1.621 4.37,-2.242 4.461,-2.914 4.461,-3.637 v -0.797 h -7.416 c 0.018,-0.472 0.11,-0.918 0.273,-1.333 0.163,-0.416 0.387,-0.778 0.672,-1.088 0.284,-0.311 0.625,-0.555 1.022,-0.735 0.396,-0.18 0.835,-0.268 1.314,-0.268 0.633,0 1.196,0.128 1.689,0.383 0.492,0.256 0.902,0.595 1.228,1.018 L 4.327,-7.302 C 4.154,-7.564 3.938,-7.814 3.68,-8.055 3.42,-8.295 3.121,-8.508 2.782,-8.693 2.443,-8.879 2.06,-9.027 1.631,-9.139 1.202,-9.251 0.735,-9.307 0.23,-9.307"
             style="fill:#f37731;fill-opacity:1;fill-rule:nonzero;stroke:none"
             id="path132"
             inkscape:connector-curvature="0" /></g><g
           id="g134"
           transform="translate(157.5204,6.8408)"><path
             d="m 0,0 c 0,0.211 -0.042,0.4 -0.125,0.57 -0.083,0.17 -0.224,0.325 -0.422,0.466 -0.198,0.141 -0.461,0.271 -0.787,0.389 -0.326,0.118 -0.732,0.225 -1.218,0.321 -0.595,0.121 -1.137,0.269 -1.627,0.442 -0.489,0.171 -0.908,0.378 -1.257,0.619 -0.348,0.239 -0.619,0.521 -0.81,0.843 -0.192,0.324 -0.288,0.7 -0.288,1.127 0,0.423 0.099,0.819 0.298,1.186 0.198,0.367 0.476,0.689 0.834,0.965 0.358,0.274 0.785,0.492 1.281,0.652 0.496,0.159 1.041,0.239 1.636,0.239 0.639,0 1.215,-0.083 1.727,-0.249 C -0.246,7.404 0.188,7.174 0.547,6.879 0.905,6.585 1.182,6.241 1.377,5.848 1.572,5.455 1.67,5.031 1.67,4.576 h -1.775 c 0,0.225 -0.058,0.444 -0.173,0.658 -0.116,0.213 -0.276,0.405 -0.48,0.571 -0.205,0.166 -0.453,0.3 -0.744,0.402 C -1.793,6.31 -2.12,6.361 -2.485,6.361 -2.862,6.361 -3.193,6.319 -3.479,6.236 -3.763,6.153 -4,6.041 -4.188,5.9 -4.377,5.76 -4.52,5.597 -4.615,5.411 -4.711,5.226 -4.759,5.033 -4.759,4.836 c 0,-0.205 0.038,-0.388 0.115,-0.547 0.077,-0.16 0.209,-0.305 0.398,-0.432 C -4.057,3.729 -3.805,3.613 -3.487,3.512 -3.171,3.409 -2.77,3.311 -2.283,3.214 -1.644,3.08 -1.071,2.924 -0.566,2.748 -0.061,2.572 0.364,2.361 0.71,2.115 1.056,1.869 1.319,1.583 1.502,1.257 1.684,0.931 1.775,0.553 1.775,0.125 1.775,-0.336 1.671,-0.755 1.463,-1.133 1.255,-1.51 0.966,-1.833 0.595,-2.102 0.224,-2.37 -0.221,-2.578 -0.739,-2.725 c -0.518,-0.147 -1.084,-0.22 -1.699,-0.22 -0.703,0 -1.33,0.093 -1.879,0.283 -0.551,0.187 -1.016,0.437 -1.397,0.748 -0.381,0.31 -0.672,0.67 -0.873,1.079 C -6.788,-0.426 -6.889,0 -6.889,0.441 h 1.775 c 0.025,-0.365 0.123,-0.671 0.293,-0.921 0.169,-0.249 0.381,-0.451 0.633,-0.604 0.252,-0.154 0.533,-0.263 0.839,-0.326 0.307,-0.065 0.611,-0.097 0.911,-0.097 0.75,0 1.341,0.138 1.776,0.413 C -0.228,-0.818 -0.007,-0.455 0,0"
             style="fill:#f37731;fill-opacity:1;fill-rule:nonzero;stroke:none"
             id="path136"
             inkscape:connector-curvature="0" /></g><g
           id="g138"
           transform="translate(163.6903,9.1631)"><path
             d="m 0,0 c 0,-0.512 0.061,-1 0.182,-1.464 0.122,-0.464 0.305,-0.872 0.551,-1.224 0.246,-0.351 0.555,-0.629 0.926,-0.833 0.371,-0.206 0.803,-0.308 1.296,-0.308 0.485,0 0.913,0.102 1.28,0.308 0.369,0.204 0.675,0.482 0.921,0.833 0.247,0.352 0.431,0.76 0.552,1.224 C 5.83,-1 5.891,-0.512 5.891,0 V 0.211 C 5.891,0.716 5.828,1.2 5.703,1.664 5.579,2.128 5.394,2.535 5.147,2.888 4.9,3.239 4.594,3.52 4.226,3.727 3.858,3.935 3.428,4.039 2.936,4.039 2.443,4.039 2.015,3.935 1.649,3.727 1.285,3.52 0.979,3.239 0.733,2.888 0.487,2.535 0.304,2.128 0.182,1.664 0.061,1.2 0,0.716 0,0.211 Z m -1.775,0.211 c 0,0.748 0.108,1.443 0.326,2.086 0.218,0.643 0.529,1.201 0.935,1.675 0.407,0.473 0.901,0.845 1.483,1.118 0.582,0.271 1.237,0.407 1.967,0.407 0.735,0 1.396,-0.136 1.981,-0.407 C 5.502,4.817 5.998,4.445 6.404,3.972 6.811,3.498 7.122,2.94 7.34,2.297 7.557,1.654 7.666,0.959 7.666,0.211 V 0 C 7.666,-0.749 7.557,-1.443 7.34,-2.082 7.122,-2.723 6.811,-3.279 6.404,-3.752 5.998,-4.226 5.504,-4.597 4.922,-4.865 4.34,-5.134 3.684,-5.268 2.955,-5.268 c -0.736,0 -1.396,0.134 -1.981,0.403 -0.586,0.268 -1.081,0.639 -1.488,1.113 -0.406,0.473 -0.717,1.029 -0.935,1.67 -0.218,0.639 -0.326,1.333 -0.326,2.082 z"
             style="fill:#f37731;fill-opacity:1;fill-rule:nonzero;stroke:none"
             id="path140"
             inkscape:connector-curvature="0" /></g><g
           id="g142"
           transform="translate(176.8534,4.0869)"><path
             d="m 0,0 v 9.01 h -2.858 v 1.371 H 0 v 0.73 c 0,0.664 0.098,1.248 0.293,1.75 0.195,0.502 0.471,0.923 0.825,1.262 0.356,0.34 0.782,0.596 1.281,0.768 0.499,0.172 1.055,0.259 1.669,0.259 0.423,0 0.833,-0.035 1.234,-0.105 0.399,-0.07 0.81,-0.16 1.232,-0.27 L 6.323,13.309 C 6.062,13.397 5.756,13.476 5.407,13.543 5.059,13.61 4.686,13.644 4.289,13.644 3.458,13.637 2.832,13.426 2.413,13.01 1.994,12.595 1.785,11.961 1.785,11.111 v -0.73 H 5.786 V 9.01 H 1.785 l 0,-9.01 z"
             style="fill:#f37731;fill-opacity:1;fill-rule:nonzero;stroke:none"
             id="path144"
             inkscape:connector-curvature="0" /></g><g
           id="g146"
           transform="translate(190.2099,16.9824)"><path
             d="M 0,0 V -2.515 H 3.953 V -3.886 H 0 v -5.642 c 0,-0.403 0.051,-0.735 0.153,-0.997 0.103,-0.263 0.243,-0.472 0.422,-0.629 0.179,-0.158 0.386,-0.267 0.619,-0.331 0.234,-0.065 0.482,-0.096 0.743,-0.096 0.193,0 0.391,0.012 0.595,0.033 0.205,0.024 0.406,0.05 0.601,0.082 0.194,0.031 0.377,0.066 0.547,0.101 0.169,0.035 0.307,0.065 0.417,0.091 l 0.249,-1.256 c -0.147,-0.09 -0.326,-0.168 -0.537,-0.237 -0.211,-0.066 -0.442,-0.124 -0.691,-0.171 -0.25,-0.049 -0.514,-0.085 -0.792,-0.111 -0.278,-0.026 -0.555,-0.038 -0.83,-0.038 -0.46,0 -0.891,0.065 -1.29,0.196 -0.4,0.131 -0.747,0.339 -1.041,0.624 -0.294,0.285 -0.526,0.653 -0.695,1.104 -0.17,0.45 -0.255,0.996 -0.255,1.635 v 5.642 H -4.51 v 1.371 h 2.725 V 0 Z"
             style="fill:#f37731;fill-opacity:1;fill-rule:nonzero;stroke:none"
             id="path148"
             inkscape:connector-curvature="0" /></g><g
           id="g150"
           transform="translate(199.3729,7.8486)"><path
             d="M 0,0 0.211,-1.488 0.47,0 2.13,6.619 H 3.271 L 4.922,0 5.2,-1.632 5.459,0 6.61,6.619 H 8.184 L 5.978,-3.762 H 4.576 L 2.955,2.6 2.687,4.211 2.427,2.6 0.825,-3.762 H -0.576 L -2.783,6.619 h 1.574 z"
             style="fill:#f37731;fill-opacity:1;fill-rule:nonzero;stroke:none"
             id="path152"
             inkscape:connector-curvature="0" /></g><g
           id="g154"
           transform="translate(213.2753,5.4404)"><path
             d="m 0,0 c 0.346,0 0.668,0.044 0.969,0.134 0.301,0.089 0.574,0.208 0.82,0.354 0.247,0.148 0.459,0.316 0.639,0.504 0.178,0.19 0.319,0.385 0.422,0.59 V 3.684 H 1.199 C 0.163,3.684 -0.643,3.53 -1.219,3.223 -1.794,2.916 -2.082,2.434 -2.082,1.774 c 0,-0.255 0.043,-0.493 0.13,-0.71 C -1.866,0.847 -1.736,0.66 -1.563,0.503 -1.392,0.346 -1.174,0.223 -0.911,0.134 -0.649,0.044 -0.346,0 0,0 M 3.138,-1.354 C 3.067,-1.219 3.011,-1.051 2.97,-0.85 2.928,-0.648 2.897,-0.439 2.879,-0.221 2.699,-0.4 2.5,-0.57 2.279,-0.73 2.059,-0.89 1.815,-1.031 1.55,-1.152 1.284,-1.273 1.001,-1.369 0.7,-1.439 0.399,-1.51 0.08,-1.545 -0.259,-1.545 c -0.551,0 -1.048,0.08 -1.492,0.239 -0.444,0.16 -0.822,0.376 -1.132,0.648 -0.31,0.271 -0.551,0.596 -0.72,0.969 -0.169,0.375 -0.254,0.779 -0.254,1.214 0,0.569 0.114,1.069 0.34,1.496 0.228,0.429 0.549,0.786 0.965,1.071 0.415,0.284 0.916,0.497 1.501,0.637 C -0.465,4.87 0.188,4.94 0.911,4.94 H 2.85 V 5.756 C 2.85,6.069 2.792,6.352 2.677,6.601 2.562,6.85 2.398,7.062 2.188,7.238 1.977,7.414 1.719,7.551 1.415,7.646 1.111,7.742 0.771,7.79 0.394,7.79 0.042,7.79 -0.273,7.746 -0.552,7.656 -0.83,7.566 -1.064,7.447 -1.257,7.301 -1.448,7.154 -1.598,6.979 -1.703,6.777 -1.809,6.576 -1.861,6.367 -1.861,6.149 h -1.785 c 0.006,0.378 0.104,0.749 0.292,1.114 0.189,0.364 0.461,0.692 0.816,0.983 0.355,0.291 0.787,0.525 1.296,0.705 0.508,0.18 1.086,0.269 1.731,0.269 C 1.078,9.22 1.625,9.148 2.13,9.004 2.636,8.859 3.072,8.643 3.439,8.352 3.808,8.061 4.097,7.697 4.309,7.263 4.52,6.828 4.625,6.318 4.625,5.736 V 0.91 c 0,-0.345 0.031,-0.711 0.096,-1.097 0.063,-0.387 0.153,-0.725 0.268,-1.013 v -0.154 z"
             style="fill:#f37731;fill-opacity:1;fill-rule:nonzero;stroke:none"
             id="path156"
             inkscape:connector-curvature="0" /></g><g
           id="g158"
           transform="translate(228.1854,14.6602)"><path
             d="M 0,0 C 0.166,0 0.339,-0.005 0.519,-0.015 0.697,-0.024 0.868,-0.04 1.031,-0.062 1.194,-0.085 1.345,-0.112 1.482,-0.144 1.62,-0.176 1.733,-0.211 1.823,-0.249 L 1.583,-1.985 C 1.238,-1.909 0.91,-1.854 0.6,-1.817 c -0.31,0.034 -0.635,0.052 -0.974,0.052 -0.832,0 -1.505,-0.189 -2.02,-0.566 -0.514,-0.378 -0.894,-0.906 -1.136,-1.584 v -6.658 h -1.785 v 10.381 h 1.688 l 0.087,-1.65 c 0.422,0.57 0.929,1.019 1.52,1.348 C -1.428,-0.165 -0.755,0 0,0"
             style="fill:#f37731;fill-opacity:1;fill-rule:nonzero;stroke:none"
             id="path160"
             inkscape:connector-curvature="0" /></g><g
           id="g162"
           transform="translate(237.5302,13.2021)"><path
             d="M 0,0 C -0.358,0 -0.697,-0.066 -1.017,-0.197 -1.337,-0.328 -1.624,-0.52 -1.88,-0.772 -2.136,-1.025 -2.352,-1.336 -2.528,-1.703 -2.704,-2.071 -2.827,-2.495 -2.897,-2.975 H 2.687 V -2.84 C 2.668,-2.495 2.602,-2.152 2.49,-1.813 2.378,-1.475 2.214,-1.171 1.996,-0.902 1.778,-0.633 1.505,-0.416 1.176,-0.25 0.846,-0.084 0.454,0 0,0 m 0.23,-9.307 c -0.729,0 -1.399,0.124 -2.009,0.373 -0.612,0.25 -1.134,0.599 -1.57,1.047 -0.434,0.448 -0.773,0.979 -1.016,1.592 -0.243,0.615 -0.364,1.283 -0.364,2.006 v 0.402 c 0,0.838 0.133,1.588 0.402,2.25 0.268,0.662 0.625,1.223 1.07,1.68 0.444,0.457 0.949,0.808 1.516,1.051 0.566,0.242 1.146,0.364 1.741,0.364 0.749,0 1.402,-0.13 1.963,-0.389 0.559,-0.258 1.024,-0.617 1.395,-1.074 0.371,-0.458 0.648,-0.997 0.83,-1.616 0.183,-0.621 0.274,-1.293 0.274,-2.016 v -0.797 h -7.417 c 0.019,-0.472 0.11,-0.918 0.273,-1.333 0.163,-0.416 0.387,-0.778 0.672,-1.088 0.284,-0.311 0.625,-0.555 1.022,-0.735 0.396,-0.18 0.835,-0.268 1.314,-0.268 0.634,0 1.196,0.128 1.69,0.383 0.492,0.256 0.901,0.595 1.227,1.018 L 4.327,-7.302 C 4.155,-7.564 3.939,-7.814 3.68,-8.055 3.421,-8.295 3.122,-8.508 2.783,-8.693 2.443,-8.879 2.06,-9.027 1.632,-9.139 1.203,-9.251 0.735,-9.307 0.23,-9.307"
             style="fill:#f37731;fill-opacity:1;fill-rule:nonzero;stroke:none"
             id="path164"
             inkscape:connector-curvature="0" /></g><g
           id="g166"
           transform="translate(260.4432,5.4404)"><path
             d="m 0,0 c 0.345,0 0.668,0.044 0.969,0.134 0.301,0.089 0.574,0.208 0.82,0.354 0.246,0.148 0.459,0.316 0.638,0.504 0.179,0.19 0.32,0.385 0.423,0.59 V 3.684 H 1.199 C 0.163,3.684 -0.644,3.53 -1.219,3.223 -1.795,2.916 -2.082,2.434 -2.082,1.774 c 0,-0.255 0.043,-0.493 0.129,-0.71 0.087,-0.217 0.216,-0.404 0.389,-0.561 0.172,-0.157 0.39,-0.28 0.652,-0.369 C -0.649,0.044 -0.346,0 0,0 M 3.137,-1.354 C 3.066,-1.219 3.011,-1.051 2.969,-0.85 2.928,-0.648 2.897,-0.439 2.878,-0.221 2.699,-0.4 2.499,-0.57 2.278,-0.73 2.058,-0.89 1.814,-1.031 1.549,-1.152 1.283,-1.273 1.001,-1.369 0.7,-1.439 0.399,-1.51 0.079,-1.545 -0.26,-1.545 c -0.55,0 -1.047,0.08 -1.491,0.239 -0.445,0.16 -0.822,0.376 -1.133,0.648 -0.31,0.271 -0.55,0.596 -0.72,0.969 -0.168,0.375 -0.253,0.779 -0.253,1.214 0,0.569 0.113,1.069 0.34,1.496 0.227,0.429 0.548,0.786 0.964,1.071 0.416,0.284 0.916,0.497 1.502,0.637 C -0.466,4.87 0.188,4.94 0.911,4.94 H 2.85 V 5.756 C 2.85,6.069 2.792,6.352 2.677,6.601 2.562,6.85 2.398,7.062 2.188,7.238 1.977,7.414 1.719,7.551 1.415,7.646 1.111,7.742 0.771,7.79 0.393,7.79 0.041,7.79 -0.273,7.746 -0.552,7.656 -0.83,7.566 -1.065,7.447 -1.257,7.301 -1.449,7.154 -1.598,6.979 -1.703,6.777 -1.809,6.576 -1.861,6.367 -1.861,6.149 h -1.785 c 0.006,0.378 0.103,0.749 0.292,1.114 0.189,0.364 0.46,0.692 0.816,0.983 0.354,0.291 0.787,0.525 1.295,0.705 0.509,0.18 1.086,0.269 1.732,0.269 C 1.077,9.22 1.624,9.148 2.13,9.004 2.635,8.859 3.071,8.643 3.439,8.352 3.807,8.061 4.097,7.697 4.308,7.263 4.519,6.828 4.624,6.318 4.624,5.736 V 0.91 C 4.624,0.565 4.656,0.199 4.72,-0.187 4.784,-0.574 4.874,-0.912 4.989,-1.2 v -0.154 z"
             style="fill:#f37731;fill-opacity:1;fill-rule:nonzero;stroke:none"
             id="path168"
             inkscape:connector-curvature="0" /></g><g
           id="g170"
           transform="translate(275.4491,6.8408)"><path
             d="m 0,0 c 0,0.211 -0.042,0.4 -0.125,0.57 -0.083,0.17 -0.224,0.325 -0.422,0.466 -0.198,0.141 -0.461,0.271 -0.787,0.389 -0.326,0.118 -0.732,0.225 -1.218,0.321 -0.595,0.121 -1.137,0.269 -1.627,0.442 -0.489,0.171 -0.908,0.378 -1.257,0.619 -0.348,0.239 -0.619,0.521 -0.81,0.843 -0.192,0.324 -0.288,0.7 -0.288,1.127 0,0.423 0.099,0.819 0.298,1.186 0.198,0.367 0.476,0.689 0.834,0.965 0.358,0.274 0.785,0.492 1.281,0.652 0.496,0.159 1.041,0.239 1.636,0.239 0.639,0 1.215,-0.083 1.727,-0.249 C -0.246,7.404 0.188,7.174 0.547,6.879 0.905,6.585 1.182,6.241 1.377,5.848 1.572,5.455 1.67,5.031 1.67,4.576 h -1.775 c 0,0.225 -0.058,0.444 -0.173,0.658 -0.116,0.213 -0.276,0.405 -0.48,0.571 -0.205,0.166 -0.453,0.3 -0.744,0.402 C -1.793,6.31 -2.12,6.361 -2.485,6.361 -2.862,6.361 -3.193,6.319 -3.479,6.236 -3.763,6.153 -4,6.041 -4.188,5.9 -4.377,5.76 -4.52,5.597 -4.615,5.411 -4.711,5.226 -4.759,5.033 -4.759,4.836 c 0,-0.205 0.038,-0.388 0.115,-0.547 0.077,-0.16 0.209,-0.305 0.398,-0.432 C -4.057,3.729 -3.805,3.613 -3.487,3.512 -3.171,3.409 -2.77,3.311 -2.283,3.214 -1.644,3.08 -1.071,2.924 -0.566,2.748 -0.061,2.572 0.364,2.361 0.71,2.115 1.056,1.869 1.319,1.583 1.502,1.257 1.684,0.931 1.775,0.553 1.775,0.125 1.775,-0.336 1.671,-0.755 1.463,-1.133 1.255,-1.51 0.966,-1.833 0.595,-2.102 0.224,-2.37 -0.221,-2.578 -0.739,-2.725 c -0.518,-0.147 -1.084,-0.22 -1.699,-0.22 -0.703,0 -1.33,0.093 -1.879,0.283 -0.551,0.187 -1.016,0.437 -1.397,0.748 -0.381,0.31 -0.672,0.67 -0.873,1.079 C -6.788,-0.426 -6.889,0 -6.889,0.441 h 1.775 c 0.025,-0.365 0.123,-0.671 0.293,-0.921 0.169,-0.249 0.381,-0.451 0.633,-0.604 0.252,-0.154 0.533,-0.263 0.839,-0.326 0.307,-0.065 0.611,-0.097 0.911,-0.097 0.75,0 1.341,0.138 1.776,0.413 C -0.228,-0.818 -0.007,-0.455 0,0"
             style="fill:#f37731;fill-opacity:1;fill-rule:nonzero;stroke:none"
             id="path172"
             inkscape:connector-curvature="0" /></g><g
           id="g174"
           transform="translate(287.2411,6.8408)"><path
             d="m 0,0 c 0,0.211 -0.042,0.4 -0.125,0.57 -0.083,0.17 -0.224,0.325 -0.422,0.466 -0.198,0.141 -0.461,0.271 -0.787,0.389 -0.326,0.118 -0.732,0.225 -1.218,0.321 -0.595,0.121 -1.137,0.269 -1.627,0.442 -0.489,0.171 -0.908,0.378 -1.257,0.619 -0.348,0.239 -0.619,0.521 -0.81,0.843 -0.192,0.324 -0.288,0.7 -0.288,1.127 0,0.423 0.099,0.819 0.298,1.186 0.198,0.367 0.476,0.689 0.834,0.965 0.358,0.274 0.785,0.492 1.281,0.652 0.496,0.159 1.041,0.239 1.636,0.239 0.639,0 1.215,-0.083 1.727,-0.249 C -0.246,7.404 0.188,7.174 0.547,6.879 0.905,6.585 1.182,6.241 1.377,5.848 1.572,5.455 1.67,5.031 1.67,4.576 h -1.775 c 0,0.225 -0.058,0.444 -0.173,0.658 -0.116,0.213 -0.276,0.405 -0.48,0.571 -0.205,0.166 -0.453,0.3 -0.744,0.402 C -1.793,6.31 -2.12,6.361 -2.485,6.361 -2.862,6.361 -3.193,6.319 -3.479,6.236 -3.763,6.153 -4,6.041 -4.188,5.9 -4.377,5.76 -4.52,5.597 -4.615,5.411 -4.711,5.226 -4.759,5.033 -4.759,4.836 c 0,-0.205 0.038,-0.388 0.115,-0.547 0.077,-0.16 0.209,-0.305 0.398,-0.432 C -4.057,3.729 -3.805,3.613 -3.487,3.512 -3.171,3.409 -2.77,3.311 -2.283,3.214 -1.644,3.08 -1.071,2.924 -0.566,2.748 -0.061,2.572 0.364,2.361 0.71,2.115 1.056,1.869 1.319,1.583 1.502,1.257 1.684,0.931 1.775,0.553 1.775,0.125 1.775,-0.336 1.671,-0.755 1.463,-1.133 1.255,-1.51 0.966,-1.833 0.595,-2.102 0.224,-2.37 -0.221,-2.578 -0.739,-2.725 c -0.518,-0.147 -1.084,-0.22 -1.699,-0.22 -0.703,0 -1.33,0.093 -1.879,0.283 -0.551,0.187 -1.016,0.437 -1.397,0.748 -0.381,0.31 -0.672,0.67 -0.873,1.079 C -6.788,-0.426 -6.889,0 -6.889,0.441 h 1.775 c 0.025,-0.365 0.123,-0.671 0.293,-0.921 0.169,-0.249 0.381,-0.451 0.633,-0.604 0.252,-0.154 0.533,-0.263 0.839,-0.326 0.307,-0.065 0.611,-0.097 0.911,-0.097 0.75,0 1.341,0.138 1.776,0.413 C -0.228,-0.818 -0.007,-0.455 0,0"
             style="fill:#f37731;fill-opacity:1;fill-rule:nonzero;stroke:none"
             id="path176"
             inkscape:connector-curvature="0" /></g><g
           id="g178"
           transform="translate(296.4901,13.2021)"><path
             d="M 0,0 C -0.358,0 -0.697,-0.066 -1.018,-0.197 -1.337,-0.328 -1.625,-0.52 -1.881,-0.772 -2.137,-1.025 -2.353,-1.336 -2.528,-1.703 -2.704,-2.071 -2.827,-2.495 -2.897,-2.975 H 2.687 V -2.84 C 2.667,-2.495 2.602,-2.152 2.489,-1.813 2.378,-1.475 2.213,-1.171 1.995,-0.902 1.778,-0.633 1.505,-0.416 1.175,-0.25 0.846,-0.084 0.454,0 0,0 m 0.23,-9.307 c -0.729,0 -1.399,0.124 -2.01,0.373 -0.611,0.25 -1.134,0.599 -1.569,1.047 -0.435,0.448 -0.774,0.979 -1.017,1.592 -0.243,0.615 -0.364,1.283 -0.364,2.006 v 0.402 c 0,0.838 0.134,1.588 0.403,2.25 0.268,0.662 0.625,1.223 1.069,1.68 0.445,0.457 0.95,0.808 1.517,1.051 0.565,0.242 1.146,0.364 1.741,0.364 0.748,0 1.402,-0.13 1.962,-0.389 C 2.521,0.811 2.987,0.452 3.358,-0.005 3.729,-0.463 4.006,-1.002 4.187,-1.621 4.37,-2.242 4.461,-2.914 4.461,-3.637 v -0.797 h -7.416 c 0.018,-0.472 0.11,-0.918 0.273,-1.333 0.163,-0.416 0.387,-0.778 0.672,-1.088 0.284,-0.311 0.625,-0.555 1.022,-0.735 0.396,-0.18 0.835,-0.268 1.314,-0.268 0.633,0 1.196,0.128 1.689,0.383 0.492,0.256 0.902,0.595 1.228,1.018 L 4.327,-7.302 C 4.154,-7.564 3.938,-7.814 3.68,-8.055 3.42,-8.295 3.121,-8.508 2.782,-8.693 2.443,-8.879 2.06,-9.027 1.631,-9.139 1.202,-9.251 0.735,-9.307 0.23,-9.307"
             style="fill:#f37731;fill-opacity:1;fill-rule:nonzero;stroke:none"
             id="path180"
             inkscape:connector-curvature="0" /></g><g
           id="g182"
           transform="translate(308.1288,16.9824)"><path
             d="M 0,0 V -2.515 H 3.953 V -3.886 H 0 v -5.642 c 0,-0.403 0.051,-0.735 0.153,-0.997 0.103,-0.263 0.243,-0.472 0.422,-0.629 0.179,-0.158 0.386,-0.267 0.619,-0.331 0.234,-0.065 0.482,-0.096 0.743,-0.096 0.193,0 0.391,0.012 0.595,0.033 0.205,0.024 0.406,0.05 0.601,0.082 0.194,0.031 0.377,0.066 0.547,0.101 0.169,0.035 0.307,0.065 0.417,0.091 l 0.249,-1.256 c -0.147,-0.09 -0.326,-0.168 -0.537,-0.237 -0.211,-0.066 -0.442,-0.124 -0.691,-0.171 -0.25,-0.049 -0.514,-0.085 -0.792,-0.111 -0.278,-0.026 -0.555,-0.038 -0.83,-0.038 -0.46,0 -0.891,0.065 -1.29,0.196 -0.4,0.131 -0.747,0.339 -1.041,0.624 -0.294,0.285 -0.526,0.653 -0.695,1.104 -0.17,0.45 -0.255,0.996 -0.255,1.635 v 5.642 H -4.51 v 1.371 h 2.725 V 0 Z"
             style="fill:#f37731;fill-opacity:1;fill-rule:nonzero;stroke:none"
             id="path184"
             inkscape:connector-curvature="0" /></g><g
           id="g186"
           transform="translate(328.3251,14.4678)"><path
             d="m 0,0 0.049,-0.979 c 0.211,0.366 0.487,0.65 0.829,0.855 0.343,0.204 0.757,0.31 1.243,0.316 0.953,0 1.589,-0.371 1.909,-1.112 0.204,0.332 0.475,0.6 0.811,0.801 0.336,0.201 0.744,0.305 1.223,0.311 0.761,0 1.347,-0.233 1.756,-0.7 0.409,-0.467 0.615,-1.174 0.615,-2.121 v -7.752 h -1.69 v 7.772 c 0,0.87 -0.399,1.301 -1.199,1.295 C 5.335,-1.314 5.152,-1.343 4.999,-1.4 4.846,-1.458 4.718,-1.536 4.615,-1.635 4.513,-1.734 4.434,-1.85 4.376,-1.98 4.318,-2.111 4.279,-2.248 4.261,-2.389 v -7.992 H 2.572 V -2.6 c 0,0.416 -0.093,0.736 -0.278,0.959 -0.186,0.225 -0.481,0.333 -0.883,0.327 -0.371,0 -0.659,-0.074 -0.864,-0.221 -0.204,-0.147 -0.355,-0.342 -0.45,-0.584 v -8.262 h -1.69 V 0 Z"
             style="fill:#f37731;fill-opacity:1;fill-rule:nonzero;stroke:none"
             id="path188"
             inkscape:connector-curvature="0" /></g><g
           id="g190"
           transform="translate(342.9862,5.4404)"><path
             d="m 0,0 c 0.346,0 0.668,0.044 0.969,0.134 0.301,0.089 0.574,0.208 0.82,0.354 0.247,0.148 0.459,0.316 0.639,0.504 0.178,0.19 0.319,0.385 0.422,0.59 V 3.684 H 1.199 C 0.163,3.684 -0.643,3.53 -1.219,3.223 -1.794,2.916 -2.082,2.434 -2.082,1.774 c 0,-0.255 0.043,-0.493 0.13,-0.71 C -1.866,0.847 -1.736,0.66 -1.563,0.503 -1.392,0.346 -1.174,0.223 -0.911,0.134 -0.649,0.044 -0.346,0 0,0 M 3.138,-1.354 C 3.067,-1.219 3.011,-1.051 2.97,-0.85 2.928,-0.648 2.897,-0.439 2.879,-0.221 2.699,-0.4 2.5,-0.57 2.279,-0.73 2.059,-0.89 1.815,-1.031 1.55,-1.152 1.284,-1.273 1.001,-1.369 0.7,-1.439 0.399,-1.51 0.08,-1.545 -0.259,-1.545 c -0.551,0 -1.048,0.08 -1.492,0.239 -0.444,0.16 -0.822,0.376 -1.132,0.648 -0.31,0.271 -0.551,0.596 -0.72,0.969 -0.169,0.375 -0.254,0.779 -0.254,1.214 0,0.569 0.114,1.069 0.34,1.496 0.228,0.429 0.549,0.786 0.965,1.071 0.415,0.284 0.916,0.497 1.501,0.637 C -0.465,4.87 0.188,4.94 0.911,4.94 H 2.85 V 5.756 C 2.85,6.069 2.792,6.352 2.677,6.601 2.562,6.85 2.398,7.062 2.188,7.238 1.977,7.414 1.719,7.551 1.415,7.646 1.111,7.742 0.771,7.79 0.394,7.79 0.042,7.79 -0.273,7.746 -0.552,7.656 -0.83,7.566 -1.064,7.447 -1.257,7.301 -1.448,7.154 -1.598,6.979 -1.703,6.777 -1.809,6.576 -1.861,6.367 -1.861,6.149 h -1.785 c 0.006,0.378 0.104,0.749 0.292,1.114 0.189,0.364 0.461,0.692 0.816,0.983 0.355,0.291 0.787,0.525 1.296,0.705 0.508,0.18 1.086,0.269 1.731,0.269 C 1.078,9.22 1.625,9.148 2.13,9.004 2.636,8.859 3.072,8.643 3.439,8.352 3.808,8.061 4.097,7.697 4.309,7.263 4.52,6.828 4.625,6.318 4.625,5.736 V 0.91 c 0,-0.345 0.031,-0.711 0.096,-1.097 0.063,-0.387 0.153,-0.725 0.268,-1.013 v -0.154 z"
             style="fill:#f37731;fill-opacity:1;fill-rule:nonzero;stroke:none"
             id="path192"
             inkscape:connector-curvature="0" /></g><g
           id="g194"
           transform="translate(352.6864,14.4678)"><path
             d="m 0,0 0.125,-1.535 c 0.377,0.538 0.841,0.959 1.392,1.262 0.549,0.304 1.164,0.459 1.841,0.465 0.544,0 1.038,-0.077 1.483,-0.229 C 5.285,-0.191 5.664,-0.432 5.978,-0.758 6.291,-1.084 6.532,-1.498 6.702,-2 6.871,-2.502 6.956,-3.099 6.956,-3.789 v -6.592 H 5.182 v 6.553 c 0,0.461 -0.052,0.851 -0.154,1.171 C 4.926,-2.338 4.773,-2.078 4.572,-1.88 4.371,-1.682 4.124,-1.537 3.833,-1.448 3.542,-1.359 3.208,-1.314 2.831,-1.314 2.235,-1.314 1.713,-1.463 1.262,-1.76 0.811,-2.058 0.451,-2.449 0.183,-2.936 v -7.445 H -1.593 V 0 Z"
             style="fill:#f37731;fill-opacity:1;fill-rule:nonzero;stroke:none"
             id="path196"
             inkscape:connector-curvature="0" /></g><g
           id="g198"
           transform="translate(366.5702,5.4404)"><path
             d="m 0,0 c 0.345,0 0.668,0.044 0.969,0.134 0.301,0.089 0.574,0.208 0.82,0.354 0.246,0.148 0.459,0.316 0.638,0.504 0.179,0.19 0.32,0.385 0.423,0.59 V 3.684 H 1.199 C 0.163,3.684 -0.644,3.53 -1.219,3.223 -1.795,2.916 -2.082,2.434 -2.082,1.774 c 0,-0.255 0.043,-0.493 0.129,-0.71 0.087,-0.217 0.216,-0.404 0.389,-0.561 0.172,-0.157 0.39,-0.28 0.652,-0.369 C -0.649,0.044 -0.346,0 0,0 M 3.137,-1.354 C 3.066,-1.219 3.011,-1.051 2.969,-0.85 2.928,-0.648 2.897,-0.439 2.878,-0.221 2.699,-0.4 2.499,-0.57 2.278,-0.73 2.058,-0.89 1.814,-1.031 1.549,-1.152 1.283,-1.273 1.001,-1.369 0.7,-1.439 0.399,-1.51 0.079,-1.545 -0.26,-1.545 c -0.55,0 -1.047,0.08 -1.491,0.239 -0.445,0.16 -0.822,0.376 -1.133,0.648 -0.31,0.271 -0.55,0.596 -0.72,0.969 -0.168,0.375 -0.253,0.779 -0.253,1.214 0,0.569 0.113,1.069 0.34,1.496 0.227,0.429 0.548,0.786 0.964,1.071 0.416,0.284 0.916,0.497 1.502,0.637 C -0.466,4.87 0.188,4.94 0.911,4.94 H 2.85 V 5.756 C 2.85,6.069 2.792,6.352 2.677,6.601 2.562,6.85 2.398,7.062 2.188,7.238 1.977,7.414 1.719,7.551 1.415,7.646 1.111,7.742 0.771,7.79 0.393,7.79 0.041,7.79 -0.273,7.746 -0.552,7.656 -0.83,7.566 -1.065,7.447 -1.257,7.301 -1.449,7.154 -1.598,6.979 -1.703,6.777 -1.809,6.576 -1.861,6.367 -1.861,6.149 h -1.785 c 0.006,0.378 0.103,0.749 0.292,1.114 0.189,0.364 0.46,0.692 0.816,0.983 0.354,0.291 0.787,0.525 1.295,0.705 0.509,0.18 1.086,0.269 1.732,0.269 C 1.077,9.22 1.624,9.148 2.13,9.004 2.635,8.859 3.071,8.643 3.439,8.352 3.807,8.061 4.097,7.697 4.308,7.263 4.519,6.828 4.624,6.318 4.624,5.736 V 0.91 C 4.624,0.565 4.656,0.199 4.72,-0.187 4.784,-0.574 4.874,-0.912 4.989,-1.2 v -0.154 z"
             style="fill:#f37731;fill-opacity:1;fill-rule:nonzero;stroke:none"
             id="path200"
             inkscape:connector-curvature="0" /></g><g
           id="g202"
           transform="translate(376.1259,9.1631)"><path
             d="m 0,0 c 0,-0.506 0.053,-0.986 0.158,-1.439 0.107,-0.456 0.273,-0.855 0.499,-1.2 0.228,-0.345 0.517,-0.619 0.869,-0.82 0.352,-0.202 0.774,-0.303 1.266,-0.303 0.308,0 0.584,0.037 0.83,0.111 0.246,0.073 0.467,0.177 0.662,0.311 0.195,0.135 0.369,0.295 0.524,0.481 0.153,0.185 0.287,0.389 0.402,0.613 v 4.76 C 5.095,2.73 4.961,2.93 4.808,3.107 4.653,3.287 4.478,3.442 4.279,3.573 4.081,3.705 3.86,3.807 3.617,3.881 3.374,3.954 3.105,3.99 2.812,3.99 2.313,3.99 1.886,3.889 1.53,3.684 1.176,3.479 0.885,3.203 0.657,2.854 0.431,2.506 0.265,2.102 0.158,1.645 0.053,1.187 0,0.706 0,0.201 Z m -1.774,0.201 c 0,0.774 0.093,1.486 0.283,2.135 0.188,0.648 0.462,1.207 0.82,1.674 0.358,0.467 0.793,0.832 1.305,1.094 0.512,0.262 1.09,0.393 1.736,0.393 0.64,0 1.201,-0.113 1.684,-0.341 C 4.537,4.93 4.948,4.602 5.287,4.174 L 5.373,5.305 H 6.985 V -4.855 C 6.985,-5.54 6.878,-6.147 6.664,-6.679 6.449,-7.209 6.149,-7.66 5.762,-8.031 5.375,-8.402 4.913,-8.684 4.376,-8.875 3.838,-9.067 3.243,-9.164 2.591,-9.164 c -0.269,0 -0.575,0.031 -0.921,0.092 -0.346,0.06 -0.695,0.16 -1.051,0.297 -0.354,0.138 -0.697,0.322 -1.026,0.552 -0.33,0.23 -0.613,0.514 -0.85,0.854 l 0.921,1.064 c 0.218,-0.261 0.441,-0.484 0.672,-0.666 0.23,-0.182 0.464,-0.328 0.7,-0.437 0.237,-0.109 0.474,-0.187 0.711,-0.235 0.236,-0.048 0.473,-0.072 0.71,-0.072 0.422,0 0.802,0.061 1.142,0.183 0.339,0.122 0.628,0.299 0.868,0.532 0.24,0.234 0.424,0.523 0.552,0.868 0.127,0.346 0.191,0.742 0.191,1.191 v 0.892 C 4.865,-4.446 4.457,-4.748 3.987,-4.956 3.517,-5.164 2.972,-5.268 2.351,-5.268 c -0.633,0 -1.205,0.134 -1.717,0.403 -0.512,0.268 -0.946,0.639 -1.3,1.113 -0.355,0.473 -0.629,1.031 -0.821,1.674 -0.192,0.642 -0.287,1.336 -0.287,2.078 z"
             style="fill:#f37731;fill-opacity:1;fill-rule:nonzero;stroke:none"
             id="path204"
             inkscape:connector-curvature="0" /></g><g
           id="g206"
           transform="translate(390.8251,13.2021)"><path
             d="M 0,0 C -0.358,0 -0.697,-0.066 -1.017,-0.197 -1.337,-0.328 -1.624,-0.52 -1.88,-0.772 -2.136,-1.025 -2.352,-1.336 -2.528,-1.703 -2.704,-2.071 -2.827,-2.495 -2.897,-2.975 H 2.687 V -2.84 C 2.668,-2.495 2.602,-2.152 2.49,-1.813 2.378,-1.475 2.214,-1.171 1.996,-0.902 1.778,-0.633 1.505,-0.416 1.176,-0.25 0.846,-0.084 0.454,0 0,0 m 0.23,-9.307 c -0.729,0 -1.399,0.124 -2.009,0.373 -0.612,0.25 -1.134,0.599 -1.57,1.047 -0.434,0.448 -0.773,0.979 -1.016,1.592 -0.243,0.615 -0.364,1.283 -0.364,2.006 v 0.402 c 0,0.838 0.133,1.588 0.402,2.25 0.268,0.662 0.625,1.223 1.07,1.68 0.444,0.457 0.949,0.808 1.516,1.051 0.566,0.242 1.146,0.364 1.741,0.364 0.749,0 1.402,-0.13 1.963,-0.389 0.559,-0.258 1.024,-0.617 1.395,-1.074 0.371,-0.458 0.648,-0.997 0.83,-1.616 0.183,-0.621 0.274,-1.293 0.274,-2.016 v -0.797 h -7.417 c 0.019,-0.472 0.11,-0.918 0.273,-1.333 0.163,-0.416 0.387,-0.778 0.672,-1.088 0.284,-0.311 0.625,-0.555 1.022,-0.735 0.396,-0.18 0.835,-0.268 1.314,-0.268 0.634,0 1.196,0.128 1.69,0.383 0.492,0.256 0.901,0.595 1.227,1.018 L 4.327,-7.302 C 4.155,-7.564 3.939,-7.814 3.68,-8.055 3.421,-8.295 3.122,-8.508 2.783,-8.693 2.443,-8.879 2.06,-9.027 1.632,-9.139 1.203,-9.251 0.735,-9.307 0.23,-9.307"
             style="fill:#f37731;fill-opacity:1;fill-rule:nonzero;stroke:none"
             id="path208"
             inkscape:connector-curvature="0" /></g><g
           id="g210"
           transform="translate(399.077,14.4678)"><path
             d="m 0,0 0.048,-0.979 c 0.211,0.366 0.487,0.65 0.83,0.855 0.342,0.204 0.756,0.31 1.242,0.316 0.953,0 1.59,-0.371 1.909,-1.112 0.205,0.332 0.476,0.6 0.812,0.801 0.336,0.201 0.743,0.305 1.222,0.311 0.762,0 1.347,-0.233 1.756,-0.7 0.41,-0.467 0.615,-1.174 0.615,-2.121 v -7.752 H 6.745 v 7.772 c 0,0.87 -0.4,1.301 -1.199,1.295 C 5.335,-1.314 5.152,-1.343 4.999,-1.4 4.846,-1.458 4.717,-1.536 4.615,-1.635 4.513,-1.734 4.433,-1.85 4.375,-1.98 4.317,-2.111 4.279,-2.248 4.26,-2.389 v -7.992 H 2.571 V -2.6 c 0,0.416 -0.092,0.736 -0.278,0.959 -0.186,0.225 -0.48,0.333 -0.883,0.327 -0.371,0 -0.659,-0.074 -0.863,-0.221 C 0.342,-1.682 0.191,-1.877 0.096,-2.119 v -8.262 H -1.593 V 0 Z"
             style="fill:#f37731;fill-opacity:1;fill-rule:nonzero;stroke:none"
             id="path212"
             inkscape:connector-curvature="0" /></g><g
           id="g214"
           transform="translate(414.4091,13.2021)"><path
             d="M 0,0 C -0.358,0 -0.697,-0.066 -1.017,-0.197 -1.337,-0.328 -1.624,-0.52 -1.88,-0.772 -2.136,-1.025 -2.352,-1.336 -2.528,-1.703 -2.704,-2.071 -2.827,-2.495 -2.897,-2.975 H 2.687 V -2.84 C 2.668,-2.495 2.602,-2.152 2.49,-1.813 2.378,-1.475 2.214,-1.171 1.996,-0.902 1.778,-0.633 1.505,-0.416 1.176,-0.25 0.846,-0.084 0.454,0 0,0 m 0.23,-9.307 c -0.729,0 -1.399,0.124 -2.009,0.373 -0.612,0.25 -1.134,0.599 -1.57,1.047 -0.434,0.448 -0.773,0.979 -1.016,1.592 -0.243,0.615 -0.364,1.283 -0.364,2.006 v 0.402 c 0,0.838 0.133,1.588 0.402,2.25 0.268,0.662 0.625,1.223 1.07,1.68 0.444,0.457 0.949,0.808 1.516,1.051 0.566,0.242 1.146,0.364 1.741,0.364 0.749,0 1.402,-0.13 1.963,-0.389 0.559,-0.258 1.024,-0.617 1.395,-1.074 0.371,-0.458 0.648,-0.997 0.83,-1.616 0.183,-0.621 0.274,-1.293 0.274,-2.016 v -0.797 h -7.417 c 0.019,-0.472 0.11,-0.918 0.273,-1.333 0.163,-0.416 0.387,-0.778 0.672,-1.088 0.284,-0.311 0.625,-0.555 1.022,-0.735 0.396,-0.18 0.835,-0.268 1.314,-0.268 0.634,0 1.196,0.128 1.69,0.383 0.492,0.256 0.901,0.595 1.227,1.018 L 4.327,-7.302 C 4.155,-7.564 3.939,-7.814 3.68,-8.055 3.421,-8.295 3.122,-8.508 2.783,-8.693 2.443,-8.879 2.06,-9.027 1.632,-9.139 1.203,-9.251 0.735,-9.307 0.23,-9.307"
             style="fill:#f37731;fill-opacity:1;fill-rule:nonzero;stroke:none"
             id="path216"
             inkscape:connector-curvature="0" /></g><g
           id="g218"
           transform="translate(423.4374,14.4678)"><path
             d="m 0,0 0.125,-1.535 c 0.377,0.538 0.841,0.959 1.392,1.262 0.549,0.304 1.164,0.459 1.841,0.465 0.544,0 1.038,-0.077 1.483,-0.229 C 5.285,-0.191 5.664,-0.432 5.978,-0.758 6.291,-1.084 6.532,-1.498 6.702,-2 6.871,-2.502 6.956,-3.099 6.956,-3.789 v -6.592 H 5.182 v 6.553 c 0,0.461 -0.052,0.851 -0.154,1.171 C 4.926,-2.338 4.773,-2.078 4.572,-1.88 4.371,-1.682 4.124,-1.537 3.833,-1.448 3.542,-1.359 3.208,-1.314 2.831,-1.314 2.235,-1.314 1.713,-1.463 1.262,-1.76 0.811,-2.058 0.451,-2.449 0.183,-2.936 v -7.445 H -1.593 V 0 Z"
             style="fill:#f37731;fill-opacity:1;fill-rule:nonzero;stroke:none"
             id="path220"
             inkscape:connector-curvature="0" /></g><g
           id="g222"
           transform="translate(437.8397,16.9824)"><path
             d="M 0,0 V -2.515 H 3.953 V -3.886 H 0 v -5.642 c 0,-0.403 0.051,-0.735 0.153,-0.997 0.103,-0.263 0.243,-0.472 0.422,-0.629 0.179,-0.158 0.386,-0.267 0.619,-0.331 0.234,-0.065 0.482,-0.096 0.743,-0.096 0.193,0 0.391,0.012 0.595,0.033 0.205,0.024 0.406,0.05 0.601,0.082 0.194,0.031 0.377,0.066 0.547,0.101 0.169,0.035 0.307,0.065 0.417,0.091 l 0.249,-1.256 c -0.147,-0.09 -0.326,-0.168 -0.537,-0.237 -0.211,-0.066 -0.442,-0.124 -0.691,-0.171 -0.25,-0.049 -0.514,-0.085 -0.792,-0.111 -0.278,-0.026 -0.555,-0.038 -0.83,-0.038 -0.46,0 -0.891,0.065 -1.29,0.196 -0.4,0.131 -0.747,0.339 -1.041,0.624 -0.294,0.285 -0.526,0.653 -0.695,1.104 -0.17,0.45 -0.255,0.996 -0.255,1.635 v 5.642 H -4.51 v 1.371 h 2.725 V 0 Z"
             style="fill:#f37731;fill-opacity:1;fill-rule:nonzero;stroke:none"
             id="path224"
             inkscape:connector-curvature="0" /></g></g></g></g></svg>